<?xml version="1.0" encoding="utf-8"?>
<!-- Generator: Adobe Illustrator 27.2.0, SVG Export Plug-In . SVG Version: 6.00 Build 0)  -->
<svg version="1.1" id="Layer_1" xmlns:svgjs="http://svgjs.com/svgjs"
	 xmlns="http://www.w3.org/2000/svg" xmlns:xlink="http://www.w3.org/1999/xlink" x="0px" y="0px" viewBox="0 0 512 512"
	 style="enable-background:new 0 0 512 512;" xml:space="preserve">
<style type="text/css">
	.st0{fill:#FFFFFF;}
</style>
<g id="_x38_">
	<path class="st0" d="M359.4,233.5c30.2-22.4,47.6-56.3,47.6-96.3C407,54.4,346.7,0,254.4,0S102,54.4,102,137.1
		c0,41.1,17.7,74.7,49.4,97C112.7,260.5,91,302.6,91,353.4C91,447.7,158.3,512,258.5,512c98.9,0,162.5-68.3,162.5-162.4
		C421,300,398.9,258.9,359.4,233.5z M255.7,287.7c33.7,0,48.8,29.2,48.8,58.1c0,39.4-17.8,62.9-47.5,62.9c-24,0-49.7-16.8-49.7-63.8
		C207.2,323.5,217.4,287.7,255.7,287.7z M254.4,185.6c-25.3,0-39.2-14.9-39.2-42c0-25.7,15-41.1,40.1-41.1
		c24.3,0,38.8,15.2,38.8,40.8C294.2,170.5,280.1,185.6,254.4,185.6z"/>
</g>
</svg>
