<?xml version="1.0" encoding="utf-8"?>
<!-- Generator: Adobe Illustrator 27.2.0, SVG Export Plug-In . SVG Version: 6.00 Build 0)  -->
<svg version="1.1" id="Layer_1" xmlns:svgjs="http://svgjs.com/svgjs"
	 xmlns="http://www.w3.org/2000/svg" xmlns:xlink="http://www.w3.org/1999/xlink" x="0px" y="0px" viewBox="0 0 512 512"
	 style="enable-background:new 0 0 512 512;" xml:space="preserve">
<style type="text/css">
	.st0{fill:#FFFFFF;}
</style>
<g id="_x35_">
	<path class="st0" d="M272.4,153.7c-15,0-30,2.2-44.7,6.6l7.7-42.5H414V0H139.2L85.7,278.6l99.7,14.1c4.2-3.4,26-35.9,66.9-35.9
		c37.4,0,58,26,58,73.1c0,49.2-20.7,78.6-55.3,78.6c-55.8,0-54.8-65.6-56.3-68.6L75,352.5c1.6,3.1,6.6,159.5,179,159.5
		c118.9,0,183-94.6,183-183.7C437,213.7,354.2,153.7,272.4,153.7z"/>
</g>
</svg>
