<svg id="Layer_1" enable-background="new 0 0 512.002 512.002" height="512" viewBox="0 0 512.002 512.002" width="512" xmlns="http://www.w3.org/2000/svg"><g><g><g><path d="m497 256.008c0 133.102-107.902 241-241.004 241-133.1 0-240.997-107.898-240.999-241 .002-133.1 107.898-241 241.002-241 133.099 0 241.001 107.9 241.001 241z" fill="#ff5b5b"/></g><g><path d="m358.248 312.809-56.807-56.805 56.805-56.805c12.549-12.545 12.549-32.893 0-45.441s-32.896-12.549-45.441 0l-56.806 56.805-56.806-56.805c-12.548-12.549-32.894-12.549-45.443 0-12.548 12.549-12.548 32.896.001 45.439l56.807 56.807-56.807 56.805c-12.549 12.553-12.55 32.896 0 45.445 12.548 12.549 32.896 12.549 45.442-.004l56.804-56.804 56.808 56.808c12.547 12.549 32.893 12.549 45.441 0 12.551-12.549 12.549-32.897.002-45.445z" fill="#e7f0ef"/></g></g><g><path d="m437.021 74.981c-48.353-48.352-112.64-74.98-181.019-74.98-68.381 0-132.669 26.629-181.021 74.98s-74.98 112.639-74.981 181.02c.001 68.381 26.63 132.668 74.981 181.02s112.638 74.98 181.018 74.98c68.381 0 132.669-26.629 181.021-74.98s74.981-112.639 74.981-181.02c.001-68.379-26.628-132.666-74.98-181.02zm-181.022 407.02c-124.614 0-225.997-101.383-225.999-226 .002-124.617 101.386-226 226.002-226 124.617 0 226 101.383 226 226s-101.385 226-226.003 226z"/><path d="m382.659 176.474c0-12.59-4.902-24.427-13.805-33.329s-20.738-13.806-33.328-13.806c-12.591 0-24.427 4.904-33.326 13.806l-46.198 46.198-46.198-46.198c-8.902-8.902-20.738-13.806-33.328-13.806s-24.426 4.902-33.33 13.807c-8.901 8.902-13.804 20.738-13.804 33.328.001 12.591 4.904 24.426 13.806 33.323l46.2 46.2-46.202 46.199c-18.375 18.381-18.374 48.283.001 66.657 8.902 8.901 20.737 13.805 33.327 13.805 12.593 0 24.431-4.905 33.329-13.809l46.197-46.196 46.199 46.199c8.901 8.903 20.737 13.807 33.328 13.807 12.59 0 24.426-4.903 33.326-13.805 18.379-18.376 18.381-48.279.003-66.66l-46.199-46.197 46.195-46.196c8.904-8.902 13.807-20.738 13.807-33.327zm-35.017 12.112-56.805 56.805c-2.813 2.813-4.394 6.628-4.394 10.606s1.58 7.794 4.394 10.607l56.806 56.803c6.681 6.682 6.681 17.553-.002 24.234-3.235 3.234-7.537 5.018-12.113 5.018s-8.878-1.782-12.114-5.019l-56.807-56.808c-2.813-2.813-6.628-4.394-10.606-4.394s-7.794 1.58-10.606 4.394l-56.807 56.807c-3.234 3.236-7.536 5.019-12.113 5.019-4.576 0-8.878-1.782-12.113-5.019-6.68-6.679-6.679-17.55 0-24.23l56.807-56.805c2.813-2.813 4.394-6.629 4.394-10.607s-1.58-7.793-4.394-10.606l-56.809-56.81c-3.234-3.232-5.017-7.533-5.017-12.108 0-4.577 1.782-8.88 5.018-12.114 3.236-3.236 7.539-5.02 12.116-5.02 4.576 0 8.878 1.783 12.114 5.019l56.806 56.806c5.857 5.857 15.355 5.857 21.213-.001l56.806-56.806c3.235-3.235 7.536-5.018 12.112-5.018s8.879 1.783 12.115 5.019 5.018 7.539 5.018 12.116c-.002 4.576-1.783 8.877-5.019 12.112z"/></g></g></svg>