<?xml version="1.0"?>
<svg xmlns="http://www.w3.org/2000/svg" xmlns:xlink="http://www.w3.org/1999/xlink" xmlns:svgjs="http://svgjs.com/svgjs" version="1.1" width="512" height="512" x="0" y="0" viewBox="0 0 60 60" style="enable-background:new 0 0 512 512" xml:space="preserve" class=""><g><path xmlns="http://www.w3.org/2000/svg" d="m47 20v27a8 8 0 0 1 -8 8h-26.5a11.5 11.5 0 0 0 .5-22.99v-12.01z" fill="#f44335" data-original="#f44335" class=""/><path xmlns="http://www.w3.org/2000/svg" d="m44 20v27a8 8 0 0 1 -8 8h3a8 8 0 0 0 8-8v-27z" fill="#c81e1e" data-original="#c81e1e" class=""/><path xmlns="http://www.w3.org/2000/svg" d="m47 17v3h-34v-3a2.006 2.006 0 0 1 2-2h30a2.006 2.006 0 0 1 2 2z" fill="#ffdf00" data-original="#ffdf00" class=""/><path xmlns="http://www.w3.org/2000/svg" d="m45 15h-3a2.006 2.006 0 0 1 2 2v3h3v-3a2.006 2.006 0 0 0 -2-2z" fill="#fec108" data-original="#fec108" class=""/><path xmlns="http://www.w3.org/2000/svg" d="m37 35.245v7.755a1 1 0 0 1 -1 1h-6a1 1 0 0 1 -1-1v-7.755a3.007 3.007 0 0 1 .88-2.125l3.12-3.12 3.12 3.12a3.007 3.007 0 0 1 .88 2.125z" fill="#02a9f4" data-original="#02a9f4" class=""/><path xmlns="http://www.w3.org/2000/svg" d="m36.12 33.12-3.12-3.12-1.5 1.5 1.62 1.62a3.007 3.007 0 0 1 .88 2.125v7.755a1 1 0 0 1 -1 1h3a1 1 0 0 0 1-1v-7.755a3.007 3.007 0 0 0 -.88-2.125z" fill="#0377bc" data-original="#0377bc" class=""/><path xmlns="http://www.w3.org/2000/svg" d="m53 56v1a1.9 1.9 0 0 1 -1.77 2h-42.46a1.9 1.9 0 0 1 -1.77-2v-1a.951.951 0 0 1 .88-1h44.24a.951.951 0 0 1 .88 1z" fill="#ffdf00" data-original="#ffdf00" class=""/><path xmlns="http://www.w3.org/2000/svg" d="m52.12 55h-3a.951.951 0 0 1 .88 1v1a1.9 1.9 0 0 1 -1.77 2h3a1.9 1.9 0 0 0 1.77-2v-1a.951.951 0 0 0 -.88-1z" fill="#fec108" data-original="#fec108" class=""/><path xmlns="http://www.w3.org/2000/svg" d="m59 30.26c0 5.57-6.74 16.34-12 16.72v-4.03c2.56-.72 8-8.64 8-12.69 0-4.32-3.93-7.64-8-5.68v-4.31a11.646 11.646 0 0 1 2.42-.27c5.29 0 9.58 4.59 9.58 10.26z" fill="#ffdf00" data-original="#ffdf00" class=""/><path xmlns="http://www.w3.org/2000/svg" d="m24 43.5a11.5 11.5 0 0 1 -23 0 10.828 10.828 0 0 1 .16-1.9 2.375 2.375 0 0 0 1.34.4 2.5 2.5 0 0 0 2.5-2.5 2.734 2.734 0 0 0 -.05-.5h.05a3 3 0 0 0 3-3v-.05a2.734 2.734 0 0 0 .5.05 2.5 2.5 0 0 0 2.5-2.5 2.375 2.375 0 0 0 -.4-1.34 10.828 10.828 0 0 1 1.9-.16c.17 0 .34 0 .5.01a11.5 11.5 0 0 1 11 11.49z" fill="#ffb887" data-original="#91562d" class=""/><path xmlns="http://www.w3.org/2000/svg" d="m13 32.01c-.16-.01-.33-.01-.5-.01a10.965 10.965 0 0 0 -1.471.1 11.492 11.492 0 0 1 -.029 22.791 11.5 11.5 0 1 0 2-22.881z" fill="#d49b75" data-original="#6d4122" class=""/><path xmlns="http://www.w3.org/2000/svg" d="m0 59a1 1 0 0 0 1 1h58a1 1 0 0 0 0-2h-5.17a3.2 3.2 0 0 0 .17-1v-1a1.947 1.947 0 0 0 -1.885-2h-7.471a8.988 8.988 0 0 0 3.314-6.169c5.842-1.393 12.042-12.018 12.042-17.571 0-6.209-4.746-11.26-10.58-11.26a11.974 11.974 0 0 0 -1.42.094v-2.094a3 3 0 0 0 -3-3h-30a3 3 0 0 0 -3 3v14.021a11.266 11.266 0 0 0 -1.575.155 1 1 0 0 0 -.651 1.549 1.375 1.375 0 0 1 .226.775 1.5 1.5 0 0 1 -1.5 1.5 1.738 1.738 0 0 1 -.317-.033 1.022 1.022 0 0 0 -.822.239 1.051 1.051 0 0 0 -.361.794 2.013 2.013 0 0 1 -2.05 2 1 1 0 0 0 -.983 1.183 1.738 1.738 0 0 1 .033.317 1.5 1.5 0 0 1 -1.5 1.5 1.375 1.375 0 0 1 -.775-.226 1 1 0 0 0 -1.549.651 11.723 11.723 0 0 0 -.176 2.075 12.511 12.511 0 0 0 6.622 11.026 2.043 2.043 0 0 0 -.622 1.474v1a3.2 3.2 0 0 0 .17 1h-5.17a1 1 0 0 0 -1 1zm39-5h-19.742a12.483 12.483 0 0 0 -5.258-22.9v-10.1h18v8.586l-2.827 2.827a3.98 3.98 0 0 0 -1.173 2.832v7.755a2 2 0 0 0 2 2h6a2 2 0 0 0 2-2v-7.755a3.98 3.98 0 0 0 -1.173-2.832l-2.827-2.827v-8.586h12v26a7.008 7.008 0 0 1 -7 7zm-6-22.586 2.413 2.413a1.991 1.991 0 0 1 .587 1.418v7.755h-6v-7.755a1.991 1.991 0 0 1 .587-1.418zm15-6.168a4.111 4.111 0 0 1 3.608.4 5.431 5.431 0 0 1 2.392 4.614c0 3.113-3.6 8.747-6 10.892zm1.42-4.246c4.731 0 8.58 4.154 8.58 9.26 0 4.869-5.556 13.875-10 15.477v-2.152c3.114-1.765 8-9.162 8-13.325a7.443 7.443 0 0 0 -3.327-6.311 6.088 6.088 0 0 0 -4.673-.774v-2.057a10.081 10.081 0 0 1 1.42-.118zm-3.42-4v2h-12v-3h11a1 1 0 0 1 1 1zm-31-1h17v3h-18v-2a1 1 0 0 1 1-1zm-13 27.5c0-.182 0-.359.013-.533a3.557 3.557 0 0 0 .487.033 3.5 3.5 0 0 0 3.479-3.122 4.013 4.013 0 0 0 2.892-2.9 3.5 3.5 0 0 0 3.129-3.478 3.557 3.557 0 0 0 -.033-.487c.174-.013.351-.013.533-.013a10.5 10.5 0 1 1 -10.5 10.5zm6 13.5.009-1h43.991v1a.92.92 0 0 1 -.769 1h-42.462a.92.92 0 0 1 -.769-1z" fill="#000000" data-original="#000000"/><circle xmlns="http://www.w3.org/2000/svg" cx="6" cy="46" r="1" fill="#000000" data-original="#000000"/><circle xmlns="http://www.w3.org/2000/svg" cx="11" cy="40" r="1" fill="#000000" data-original="#000000"/><circle xmlns="http://www.w3.org/2000/svg" cx="12" cy="45" r="1" fill="#000000" data-original="#000000"/><circle xmlns="http://www.w3.org/2000/svg" cx="17" cy="38" r="1" fill="#000000" data-original="#000000"/><circle xmlns="http://www.w3.org/2000/svg" cx="17" cy="49" r="1" fill="#000000" data-original="#000000"/><circle xmlns="http://www.w3.org/2000/svg" cx="11" cy="50" r="1" fill="#000000" data-original="#000000"/><circle xmlns="http://www.w3.org/2000/svg" cx="18" cy="43" r="1" fill="#000000" data-original="#000000"/><path xmlns="http://www.w3.org/2000/svg" d="m23 12a1 1 0 0 0 .707-.293l1.234-1.234a3.9 3.9 0 0 0 .359-5.073 1.89 1.89 0 0 1 .175-2.457l1.234-1.234a1 1 0 0 0 -1.416-1.416l-1.234 1.234a3.9 3.9 0 0 0 -.359 5.073 1.89 1.89 0 0 1 -.175 2.457l-1.234 1.234a1 1 0 0 0 .709 1.709z" fill="#000000" data-original="#000000"/><path xmlns="http://www.w3.org/2000/svg" d="m31 12a1 1 0 0 0 .707-.293l1.234-1.234a3.9 3.9 0 0 0 .359-5.073 1.89 1.89 0 0 1 .175-2.457l1.234-1.234a1 1 0 0 0 -1.416-1.416l-1.234 1.234a3.9 3.9 0 0 0 -.359 5.073 1.89 1.89 0 0 1 -.175 2.457l-1.234 1.234a1 1 0 0 0 .709 1.709z" fill="#000000" data-original="#000000"/><path xmlns="http://www.w3.org/2000/svg" d="m39 12a1 1 0 0 0 .707-.293l1.234-1.234a3.9 3.9 0 0 0 .359-5.073 1.89 1.89 0 0 1 .175-2.457l1.234-1.234a1 1 0 0 0 -1.416-1.416l-1.234 1.234a3.9 3.9 0 0 0 -.359 5.073 1.89 1.89 0 0 1 -.175 2.457l-1.234 1.234a1 1 0 0 0 .709 1.709z" fill="#000000" data-original="#000000"/></g></svg>
