<?xml version="1.0" encoding="utf-8"?>
<!-- Generator: Adobe Illustrator 27.2.0, SVG Export Plug-In . SVG Version: 6.00 Build 0)  -->
<svg version="1.1" id="Layer_1" xmlns:svgjs="http://svgjs.com/svgjs"
	 xmlns="http://www.w3.org/2000/svg" xmlns:xlink="http://www.w3.org/1999/xlink" x="0px" y="0px" viewBox="0 0 512 512"
	 style="enable-background:new 0 0 512 512;" xml:space="preserve">
<style type="text/css">
	.st0{fill:#3F97F6;}
</style>
<g id="_x39_">
	<path class="st0" d="M250,0C156.4,0,91,72.5,91,174.9C91,284.7,165.7,344,235.9,344c23.3,0,44.3-6,62.8-17.8
		c-5.8,45.1-18.4,80.4-50.8,80.4c-39.8,0-33.9-47-36.8-53.8L97.3,365.9C101.9,376,95,512,241.4,512C357.2,512,421,419.4,421,253.1
		C421,90.5,360.3,0,250,0L250,0z M294.5,182.3c0,11-2.1,65.7-43.8,65.7c-40.7,0-45.1-51.1-45.1-73.1c0-31.6,7-69.3,40.5-69.3
		C281.6,105.7,294.5,151.5,294.5,182.3L294.5,182.3z"/>
</g>
</svg>
