<?xml version="1.0" encoding="utf-8"?>
<!-- Generator: Adobe Illustrator 27.2.0, SVG Export Plug-In . SVG Version: 6.00 Build 0)  -->
<svg version="1.1" id="Layer_1" xmlns:svgjs="http://svgjs.com/svgjs"
	 xmlns="http://www.w3.org/2000/svg" xmlns:xlink="http://www.w3.org/1999/xlink" x="0px" y="0px" viewBox="0 0 512 512"
	 style="enable-background:new 0 0 512 512;" xml:space="preserve">
<style type="text/css">
	.st0{fill:#3F97F6;}
</style>
<g id="_x36_">
	<path class="st0" d="M207.5,187.2c6.8-50.5,21.7-82.2,58.4-82.2c16,0,35,4.5,39.4,39.5l1.8,14.5l122.3-12.8l-2.8-15.8
		C412.1,48.2,355.6,0,271.7,0C145.5,0,76,92.8,76,259.4C76,421.6,142.1,512,262.2,512C364.5,512,436,439.3,436,336.7
		C436,190.2,288.8,135.9,207.5,187.2L207.5,187.2z M262.2,264c32.9,0,51.1,26.1,51.1,73.6c0,31.4-8,68.8-46.3,68.8
		c-26.4,0-54.8-24-54.8-76.8C212.2,288.6,230.9,264,262.2,264z"/>
</g>
</svg>
