<?xml version="1.0" encoding="utf-8"?>
<!-- Generator: Adobe Illustrator 27.2.0, SVG Export Plug-In . SVG Version: 6.00 Build 0)  -->
<svg version="1.1" id="Layer_1" xmlns:svgjs="http://svgjs.com/svgjs"
	 xmlns="http://www.w3.org/2000/svg" xmlns:xlink="http://www.w3.org/1999/xlink" x="0px" y="0px" viewBox="0 0 512 512"
	 style="enable-background:new 0 0 512 512;" xml:space="preserve">
<style type="text/css">
	.st0{fill:#3F97F6;}
</style>
<g id="_x33_">
	<path class="st0" d="M363.4,231.1c33.9-25.1,51.1-56.8,51.1-94.5C414.5,69.9,353.7,0,252.1,0C93.6,0,84.5,144.4,81,151.1
		l118.7,19.1c1.7-4.7-1.1-65.1,49.7-65.1c45.7,0,47.5,48.2,27.7,67.4c-13.9,13.6-22.5,11.4-65.4,14.8l-15.6,109.1
		c14.7-3.5,39.5-12,61.8-12c25.6,0,51.4,18.2,51.4,58.8c0,43.7-27.5,63.2-54.8,63.2c-58,0-55.9-65.9-57.5-70.2l-121.8,14
		c1.6,3,4,161.9,180,161.9c101.9,0,181.7-73.1,181.7-165.1C436.8,294.7,408.9,252,363.4,231.1L363.4,231.1z"/>
</g>
</svg>
