<?xml version="1.0"?>
<svg xmlns="http://www.w3.org/2000/svg" xmlns:xlink="http://www.w3.org/1999/xlink" xmlns:svgjs="http://svgjs.com/svgjs" version="1.1" width="512" height="512" x="0" y="0" viewBox="0 0 512 512.001" style="enable-background:new 0 0 512 512" xml:space="preserve" class=""><g><g xmlns="http://www.w3.org/2000/svg" fill="#c7d2e5"><path d="m471.226562 197.042969h-25.304687c-.28125 0-.558594-.019531-.835937-.042969v296.019531c0 6.703125 5.46875 12.191407 12.148437 12.191407h2.683594c6.679687 0 12.144531-5.488282 12.144531-12.191407v-296.019531c-.273438.023438-.550781.042969-.835938.042969zm0 0" fill="#c7d2e5" data-original="#c7d2e5"/><path d="m42.730469 197.042969h-25.304688c-.28125 0-.558593-.019531-.835937-.042969v296.019531c0 6.703125 5.464844 12.191407 12.144531 12.191407h2.6875c6.679687 0 12.144531-5.488282 12.144531-12.191407v-296.019531c-.277344.023438-.554687.042969-.835937.042969zm0 0" fill="#c7d2e5" data-original="#c7d2e5"/><path d="m445.921875 44.65625h25.304687c.285157 0 .5625.019531.835938.042969v-23.992188c0-6.875-5.464844-12.496093-12.144531-12.496093h-2.683594c-6.679687 0-12.148437 5.621093-12.148437 12.496093v23.992188c.277343-.023438.554687-.042969.835937-.042969zm0 0" fill="#c7d2e5" data-original="#c7d2e5"/><path d="m17.425781 44.65625h25.304688c.28125 0 .5625.019531.835937.042969v-23.992188c0-6.875-5.464844-12.496093-12.144531-12.496093h-2.6875c-6.679687 0-12.144531 5.621093-12.144531 12.496093v23.992188c.277344-.023438.554687-.042969.835937-.042969zm0 0" fill="#c7d2e5" data-original="#c7d2e5"/></g><path xmlns="http://www.w3.org/2000/svg" d="m439.078125 188.554688v-135.300782c0-.824218.117187-1.621094.320313-2.390625-51.105469 10.582031-119.9375 17.070313-195.679688 17.070313s-144.570312-6.488282-195.675781-17.070313c.199219.765625.320312 1.566407.320312 2.390625v135.300782c0 .691406-.078125 1.367187-.222656 2.015624 51.097656 10.570313 119.886719 17.050782 195.578125 17.050782 75.695312 0 144.484375-6.480469 195.582031-17.050782-.144531-.652343-.222656-1.324218-.222656-2.015624zm0 0" fill="#6bc2ff" data-original="#ff6b6b" class=""/><path xmlns="http://www.w3.org/2000/svg" d="m48.140625 190.570312c10.296875 2.128907 21.324219 4.089844 32.96875 5.867188v-139.683594c-11.683594-1.785156-22.742187-3.753906-33.066406-5.890625.199219.765625.320312 1.566407.320312 2.390625v135.300782c0 .691406-.082031 1.363281-.222656 2.015624zm0 0" fill="#52aeee" data-original="#ee5253" class=""/><path xmlns="http://www.w3.org/2000/svg" d="m471.226562 43.640625h-25.304687c-5.289063 0-9.613281 4.328125-9.613281 9.613281v135.300782c0 5.289062 4.324218 9.617187 9.613281 9.617187h25.304687c5.289063 0 9.617188-4.328125 9.617188-9.617187v-135.300782c0-5.289062-4.328125-9.613281-9.617188-9.613281zm0 0" fill="#6bc2ff" data-original="#ff6b6b" class=""/><path xmlns="http://www.w3.org/2000/svg" d="m42.730469 43.640625h-25.304688c-5.289062 0-9.617187 4.328125-9.617187 9.613281v135.300782c0 5.289062 4.328125 9.617187 9.617187 9.617187h25.304688c5.289062 0 9.617187-4.328125 9.617187-9.617187v-135.300782c0-5.289062-4.328125-9.613281-9.617187-9.613281zm0 0" fill="#6bc2ff" data-original="#ff6b6b" class=""/><path xmlns="http://www.w3.org/2000/svg" d="m462.90625 188.554688v-135.300782c0-5.070312 3.980469-9.246094 8.96875-9.582031-.214844-.015625-.429688-.035156-.648438-.035156h-25.304687c-5.289063 0-9.613281 4.328125-9.613281 9.617187v135.300782c0 5.289062 4.324218 9.617187 9.613281 9.617187h25.304687c.21875 0 .433594-.019531.648438-.035156-4.988281-.335938-8.96875-4.511719-8.96875-9.582031zm0 0" fill="#52aeee" data-original="#ee5253" class=""/><path xmlns="http://www.w3.org/2000/svg" d="m34.410156 188.554688v-135.300782c0-5.070312 3.980469-9.246094 8.96875-9.582031-.214844-.015625-.429687-.035156-.648437-.035156h-25.304688c-5.289062 0-9.617187 4.328125-9.617187 9.617187v135.300782c0 5.289062 4.328125 9.617187 9.617187 9.617187h25.304688c.21875 0 .433593-.019531.648437-.035156-4.988281-.335938-8.96875-4.511719-8.96875-9.582031zm0 0" fill="#52aeee" data-original="#ee5253" class=""/><path xmlns="http://www.w3.org/2000/svg" d="m149.378906 108.414062c3.199219.355469 5.390625-2.855468 5.828125-6.800781.375-3.414062-.703125-7.3125-4.21875-7.703125l-37.003906-4.105468c-3.625-.398438-7.441406.902343-7.820313 4.316406l-7.511718 67.710937c-.378906 3.414063 3.589844 5.582031 7.75 6.042969s8.507812-.78125 8.882812-4.195312l3.054688-27.511719 16.101562 1.789062c3.519532.386719 5.390625-2.859375 5.710938-5.738281.378906-3.410156-1.09375-6.707031-4.292969-7.058594l-16.101563-1.789062 2-18.019532zm0 0" fill="#000000" data-original="#000000" class=""/><path xmlns="http://www.w3.org/2000/svg" d="m160.0625 99.46875-4.734375 68.074219c-.234375 3.425781 3.816406 5.429687 7.992187 5.71875 4.175782.289062 8.46875-1.132813 8.707032-4.558594l4.734375-68.074219c.246093-3.53125-3.824219-5.320312-8-5.609375-4.171875-.289062-8.453125.917969-8.699219 4.449219zm0 0" fill="#000000" data-original="#000000" class=""/><path xmlns="http://www.w3.org/2000/svg" d="m225.347656 102.636719-1.074218 36.464843-16.398438-33.652343c-3.84375-7.953125-6.082031-8.554688-12.085938-8.730469-4.183593-.125-8.414062 1.359375-8.515624 4.902344l-2.011719 68.101562c-.101563 3.433594 4.03125 5.273438 8.214843 5.398438 4.179688.121094 8.414063-1.46875 8.515626-4.902344l1.078124-36.464844 19.28125 37.710938c1.925782 3.8125 5.335938 4.664062 9.195313 4.78125 4.183594.121094 8.417969-1.46875 8.519531-4.902344l2.015625-68.210938c.101563-3.539062-4.035156-5.164062-8.21875-5.289062-4.183593-.125-8.410156 1.253906-8.515625 4.792969zm0 0" fill="#000000" data-original="#000000" class=""/><path xmlns="http://www.w3.org/2000/svg" d="m261.285156 176.226562c4.183594-.03125 8.359375-1.777343 8.332032-5.210937l-.480469-68.242187c-.023438-3.539063-4.21875-5.011719-8.402344-4.984376-4.1875.03125-8.359375 1.5625-8.335937 5.101563l.480468 68.242187c.023438 3.433594 4.222656 5.121094 8.40625 5.09375zm0 0" fill="#000000" data-original="#000000" class=""/><path xmlns="http://www.w3.org/2000/svg" d="m304.015625 161.277344c-9.96875.40625-13.511719-7.394532-18.550781-7.1875-4.074219.164062-7.070313 5.65625-6.917969 9.300781.289063 7.078125 12.359375 13.457031 26.40625 12.882813 15.542969-.636719 26.457031-9.460938 25.828125-24.898438-1.105469-27.015625-35.007812-23.589844-35.445312-34.308594-.136719-3.324218 2.84375-6.558594 10.457031-6.871094 8.792969-.359374 10.996093 3.628907 14.855469 3.472657 4.714843-.191407 6.40625-6.167969 6.285156-9.0625-.339844-8.363281-16.039063-8.792969-21.71875-8.5625-13.402344.550781-27.195313 7.234375-26.535156 23.316406 1.023437 25.085937 34.917968 21.445313 35.449218 34.414063.207032 5.148437-5.179687 7.300781-10.113281 7.503906zm0 0" fill="#000000" data-original="#000000" class=""/><path xmlns="http://www.w3.org/2000/svg" d="m352.164062 98.796875c-.339843-3.527344-4.648437-4.617187-8.816406-4.214844-4.164062.40625-8.183594 2.304688-7.84375 5.828125l6.582032 67.917969c.332031 3.417969 4.664062 4.722656 8.828124 4.316406 4.164063-.402343 8.164063-2.515625 7.832032-5.933593l-2.804688-28.9375 21.253906-2.058594 2.804688 28.9375c.328125 3.417968 4.660156 4.722656 8.824219 4.320312 4.164062-.40625 8.164062-2.515625 7.832031-5.933594l-6.582031-67.917968c-.339844-3.523438-4.648438-4.617188-8.8125-4.210938-4.167969.402344-8.1875 2.300782-7.84375 5.824219l2.535156 26.164063-21.253906 2.058593zm0 0" fill="#000000" data-original="#000000" class=""/><path xmlns="http://www.w3.org/2000/svg" d="m8.78125 37.609375c-5.230469 2.929687-8.78125 8.523437-8.78125 14.933594v135.300781c0 6.414062 3.550781 12.003906 8.78125 14.9375v289.570312c0 10.835938 8.8125 19.648438 19.648438 19.648438h2.683593c10.832031 0 19.644531-8.8125 19.644531-19.648438v-289.570312c2-1.121094 3.746094-2.632812 5.148438-4.429688 107.34375 21.421876 268.9375 21.410157 376.226562 0 1.402344 1.796876 3.148438 3.308594 5.144532 4.429688v289.574219c0 10.832031 8.816406 19.644531 19.648437 19.644531h2.683594c10.835937 0 19.648437-8.8125 19.648437-19.644531v-135.089844c0-4.144531-3.359374-7.5-7.5-7.5-4.144531 0-7.5 3.355469-7.5 7.5v135.089844c0 2.515625-2.128906 4.644531-4.648437 4.644531h-2.683594c-2.519531 0-4.644531-2.128906-4.644531-4.644531v-287.394531h11.976562v117.300781c0 4.144531 3.355469 7.5 7.5 7.5 4.140626 0 7.5-3.355469 7.5-7.5v-119.484375c5.230469-2.929688 8.777344-8.523438 8.777344-14.933594v-135.300781c0-6.410157-3.546875-12.003907-8.777344-14.933594v-17.960937c0-10.835938-8.816406-19.648438-19.648437-19.648438h-2.683594c-10.835937 0-19.648437 8.8125-19.648437 19.648438v17.960937c-2.546875 1.425781-4.683594 3.488281-6.214844 5.96875-46.648438 9.472656-106.683594 15.152344-169.648438 16.019531-4.140624.054688-7.453124 3.460938-7.394531 7.601563.054688 4.144531 3.476563 7.445312 7.601563 7.398437 61.402344-.847656 120.183594-6.226562 166.875-15.21875v124.402344c-105.148438 20.847656-263.847656 20.839844-368.960938 0v-124.402344c46.695313 8.992188 105.476563 14.371094 166.878906 15.214844 4.144532.0625 7.542969-3.253906 7.601563-7.394531s-3.253906-7.546875-7.394531-7.605469c-62.964844-.863281-123.003906-6.542969-169.648438-16.015625-1.53125-2.480469-3.667968-4.542969-6.214844-5.972656v-17.957031c0-10.835938-8.8125-19.648438-19.644531-19.648438h-2.6875c-10.832031 0-19.644531 8.8125-19.644531 19.648438zm436.847656 152.351563c-.015625-.003907-.03125-.003907-.050781-.003907-.976563-.019531-1.820313-.738281-2.027344-1.667969 0-.003906 0-.007812-.003906-.011718-.03125-.15625-.046875-.296875-.046875-.433594v-135.300781c0-.144531.023438-.316407.074219-.511719.003906-.007812.003906-.015625.003906-.023438.246094-.890624 1.0625-1.566406 2.015625-1.578124h.03125 25.277344c.015625 0 .03125 0 .046875.003906 1.132812.015625 2.085937.972656 2.085937 2.109375v135.300781c0 1.148438-.96875 2.117188-2.117187 2.117188zm6.652344-170.3125c0-2.519532 2.125-4.648438 4.644531-4.648438h2.683594c2.519531 0 4.648437 2.128906 4.648437 4.648438v15.78125h-11.976562zm-409.828125 30.785156c.945313.011718 1.761719.6875 2.003906 1.574218 0 .007813.003907.015626.003907.023438.050781.195312.078124.367188.078124.511719v135.300781c0 .136719-.019531.28125-.050781.441406-.210937.933594-1.054687 1.65625-2.039062 1.671875-.011719 0-.023438.003907-.039063.003907h-25.277344c-.015624-.003907-.035156-.003907-.054687-.003907-1.128906-.023437-2.078125-.980469-2.078125-2.113281v-135.300781c0-1.136719.957031-2.101563 2.09375-2.113281h.035156 25.277344c.015625 0 .03125 0 .046875.003906zm-6.695313 441.917968c0 2.519532-2.128906 4.648438-4.644531 4.648438h-2.6875c-2.519531 0-4.644531-2.128906-4.644531-4.648438v-287.390624h11.976562zm-11.976562-472.703124c0-2.519532 2.128906-4.648438 4.648438-4.648438h2.683593c2.519531 0 4.644531 2.128906 4.644531 4.648438v15.78125h-11.976562zm0 0" fill="#000000" data-original="#000000" class=""/></g></svg>
