<?xml version="1.0" encoding="utf-8"?>
<!-- Generator: Adobe Illustrator 25.0.1, SVG Export Plug-In . SVG Version: 6.00 Build 0)  -->
<svg version="1.1" id="Layer_1" xmlns:svgjs="http://svgjs.com/svgjs"
	 xmlns="http://www.w3.org/2000/svg" xmlns:xlink="http://www.w3.org/1999/xlink" x="0px" y="0px" viewBox="0 0 512 512"
	 style="enable-background:new 0 0 512 512;" xml:space="preserve">
<style type="text/css">
	.st0{fill:#E50F0F;}
	.st1{fill:#282323;}
</style>
<g>
	<g id="_9_No">
		<path class="st0" d="M256,11C120.7,11,11,120.7,11,256s109.7,245,245,245s245-109.7,245-245S391.3,11,256,11z M256,461
			c-113,0-205-92-205-205S143,51,256,51s205,92,205,205S369,461,256,461z"/>
		<path class="st0" d="M303,191.3l26.5-26.5c13-13,13-34,0-47c-13-13-34-13-47,0L256,144.3l-26.5-26.5c-13-13-34-13-47,0
			c0,0,0,0,0,0c-13,13-13,34,0,47l26.5,26.5l-26.5,26.5c-13,13-13,34,0,47c13,13,34,13,47,0c0,0,0,0,0,0l26.5-26.5l26.5,26.5
			c13,13,34,13,47,0c13-13,13-34,0-47L303,191.3z"/>
		<path class="st1" d="M235.6,294.4c-3.3,0-6,2.7-6,6v81l-48-83c-2.2-3.9-7.2-5.2-11.1-3c-2.5,1.4-4,4.1-4,7v97.9c0,3.3,2.7,6,6,6
			s6-2.7,6-6V317l49.5,85.5c2,3.5,6.5,4.7,10,2.7c2.3-1.3,3.7-3.7,3.7-6.3v-98.5C241.6,297,238.9,294.4,235.6,294.4z"/>
		<path class="st1" d="M295.4,293.2c-27.6,0-50.1,25.1-50.1,56s22.5,56,50.1,56s50.1-25.1,50.1-56S323,293.2,295.4,293.2z
			 M295.4,393.2c-21,0-38.1-19.7-38.1-44s17.1-44,38.1-44s38.1,19.7,38.1,44S316.4,393.2,295.4,393.2z"/>
	</g>
</g>
</svg>
