<?xml version="1.0"?>
<svg xmlns="http://www.w3.org/2000/svg" xmlns:xlink="http://www.w3.org/1999/xlink" xmlns:svgjs="http://svgjs.com/svgjs" version="1.1" width="512" height="512" x="0" y="0" viewBox="0 0 512 512" style="enable-background:new 0 0 512 512" xml:space="preserve" class=""><g><g xmlns="http://www.w3.org/2000/svg"><g><circle cx="256" cy="256" fill="#ff0000" r="248.5" data-original="#e478a4" class=""/></g><g><circle cx="256" cy="256" fill="#f5f5f5" r="202.449" data-original="#f5f5f5" class=""/></g><g><path d="m373.987 323.686h-235.974c-4.762 0-8.623-3.861-8.623-8.623v-118.126c0-4.763 3.861-8.623 8.623-8.623h235.974c4.762 0 8.623 3.861 8.623 8.623v118.126c0 4.763-3.861 8.623-8.623 8.623z" fill="#ff0000" data-original="#ef9bba" class=""/></g><g><path d="m256 7.5c-5.038 0-10.036.168-15 .464 130.256 7.757 233.5 115.831 233.5 248.036s-103.244 240.279-233.5 248.036c4.964.296 9.962.464 15 .464 137.243 0 248.5-111.257 248.5-248.5s-111.257-248.5-248.5-248.5z" fill="#ff0000" data-original="#d5558c" class=""/></g><g><path d="m256 53.551c-5.046 0-10.047.191-15 .554 104.804 7.676 187.449 95.131 187.449 201.895s-82.645 194.219-187.449 201.896c4.953.363 9.954.554 15 .554 111.81 0 202.449-90.64 202.449-202.449s-90.639-202.45-202.449-202.45z" fill="#ebe5ed" data-original="#ebe5ed" class=""/></g><g><path d="m373.987 188.314h-30c4.762 0 8.623 3.861 8.623 8.623v118.126c0 4.763-3.861 8.623-8.623 8.623h30c4.762 0 8.623-3.861 8.623-8.623v-118.126c0-4.763-3.861-8.623-8.623-8.623z" fill="#ff0000" data-original="#e478a4" class=""/></g><g><path d="m256 512c-68.38 0-132.667-26.629-181.019-74.98-48.353-48.353-74.981-112.64-74.981-181.02s26.628-132.667 74.981-181.019c48.352-48.352 112.639-74.981 181.019-74.981s132.668 26.629 181.02 74.981c48.351 48.352 74.98 112.639 74.98 181.019 0 60.874-21.733 119.863-61.197 166.103-2.688 3.151-7.423 3.524-10.573.836-3.151-2.689-3.525-7.423-.836-10.574 37.148-43.526 57.606-99.058 57.606-156.365 0-64.374-25.068-124.894-70.587-170.413s-106.039-70.587-170.413-70.587-124.894 25.068-170.413 70.587-70.587 106.039-70.587 170.413 25.068 124.894 70.587 170.413 106.04 70.587 170.413 70.587c59.756 0 117.076-22.027 161.399-62.025 3.076-2.775 7.818-2.531 10.592.543 2.775 3.075 2.532 7.818-.544 10.593-47.083 42.489-107.971 65.889-171.447 65.889z" fill="#000000" data-original="#000000" class=""/></g><g><path d="m256 465.949c-115.767 0-209.95-94.183-209.95-209.949s94.183-209.949 209.95-209.949 209.949 94.182 209.949 209.949-94.182 209.949-209.949 209.949zm0-404.898c-107.496 0-194.95 87.453-194.95 194.949s87.454 194.949 194.95 194.949 194.949-87.453 194.949-194.949-87.453-194.949-194.949-194.949z" fill="#000000" data-original="#000000" class=""/></g><g><path d="m373.987 331.186h-235.974c-8.89 0-16.123-7.233-16.123-16.123v-118.126c0-8.89 7.233-16.123 16.123-16.123h31.256c4.142 0 7.5 3.358 7.5 7.5s-3.358 7.5-7.5 7.5h-31.256c-.619 0-1.123.504-1.123 1.123v118.126c0 .619.504 1.123 1.123 1.123h235.974c.619 0 1.123-.504 1.123-1.123v-118.126c0-.619-.504-1.123-1.123-1.123h-174.718c-4.142 0-7.5-3.358-7.5-7.5s3.358-7.5 7.5-7.5h174.718c8.89 0 16.123 7.233 16.123 16.123v118.126c0 8.891-7.233 16.123-16.123 16.123z" fill="#000000" data-original="#000000" class=""/></g><g><path d="m194.013 293.623c-4.142 0-7.5-3.358-7.5-7.5v-60.133c0-3.282 2.134-6.183 5.268-7.16 3.133-.976 6.538.198 8.403 2.898l28.339 41.037-.356-36.815c-.04-4.142 3.285-7.532 7.427-7.572h.074c4.108 0 7.459 3.31 7.498 7.428l.563 58.216c.001 4.118-2.299 7.45-5.857 8.562-3.486 1.089-7.164-.266-9.37-3.452l-26.989-39.082v36.075c0 4.14-3.358 7.498-7.5 7.498z" fill="#000000" data-original="#000000" class=""/></g><g><path d="m293.79 293.623c-20.746 0-37.623-16.878-37.623-37.623s16.877-37.623 37.623-37.623 37.623 16.878 37.623 37.623-16.878 37.623-37.623 37.623zm0-60.246c-12.475 0-22.623 10.149-22.623 22.623s10.148 22.623 22.623 22.623 22.623-10.149 22.623-22.623-10.149-22.623-22.623-22.623z" fill="#000000" data-original="#000000" class=""/></g></g></g></svg>
