<?xml version="1.0"?>
<svg xmlns="http://www.w3.org/2000/svg" xmlns:xlink="http://www.w3.org/1999/xlink" xmlns:svgjs="http://svgjs.com/svgjs" version="1.1" width="512" height="512" x="0" y="0" viewBox="0 0 512 512" style="enable-background:new 0 0 512 512" xml:space="preserve" class=""><g><circle xmlns="http://www.w3.org/2000/svg" id="XMLID_891_" cx="256" cy="256" fill="#22ca08" r="246" data-original="#f5737f" class=""/><circle xmlns="http://www.w3.org/2000/svg" id="XMLID_834_" cx="256" cy="256" fill="#ffffff" r="196" data-original="#ffffff" class=""/><path xmlns="http://www.w3.org/2000/svg" id="XMLID_35_" d="m256 512c-68.38 0-132.667-26.628-181.019-74.981-48.353-48.352-74.981-112.639-74.981-181.019s26.628-132.667 74.981-181.019c48.352-48.353 112.639-74.981 181.019-74.981s132.667 26.628 181.019 74.981c48.353 48.352 74.981 112.639 74.981 181.019s-26.628 132.667-74.981 181.019c-48.352 48.353-112.639 74.981-181.019 74.981zm0-492c-130.131 0-236 105.869-236 236s105.869 236 236 236 236-105.869 236-236-105.869-236-236-236z" fill="#000000" data-original="#000000" class=""/><path xmlns="http://www.w3.org/2000/svg" id="XMLID_31_" d="m256 462c-55.024 0-106.756-21.428-145.664-60.336s-60.336-90.64-60.336-145.664 21.428-106.756 60.336-145.664c33.07-33.07 76.836-54.065 123.238-59.119 45.699-4.976 92.25 5.574 131.072 29.71 4.69 2.916 6.129 9.083 3.213 13.772-2.916 4.691-9.083 6.128-13.772 3.213-73.718-45.833-168.136-34.908-229.607 26.565-35.133 35.132-54.48 81.84-54.48 131.523s19.347 96.391 54.479 131.521c35.13 35.132 81.838 54.479 131.521 54.479s96.391-19.347 131.521-54.479c61.473-61.472 72.397-155.89 26.565-229.607-2.916-4.69-1.478-10.856 3.213-13.772 4.689-2.916 10.856-1.479 13.772 3.213 24.136 38.822 34.688 85.371 29.71 131.072-5.054 46.401-26.049 90.168-59.119 123.238-38.906 38.907-90.638 60.335-145.662 60.335z" fill="#000000" data-original="#000000" class=""/><path xmlns="http://www.w3.org/2000/svg" id="XMLID_1365_" d="m324.89 272.18-92.566 59.332c-13.734 8.803-31.769-1.059-31.769-17.372v-118.664c0-16.313 18.036-26.175 31.769-17.372l92.566 59.332c12.666 8.118 12.666 26.626 0 34.744z" fill="#22ca08" data-original="#f5737f" class=""/><path xmlns="http://www.w3.org/2000/svg" id="XMLID_32_" d="m221.22 344.841c-5.022 0-10.061-1.27-14.729-3.822-9.979-5.457-15.937-15.505-15.937-26.879v-118.664c0-11.374 5.958-21.422 15.937-26.879 9.979-5.456 21.653-5.05 31.229 1.088l92.566 59.332c8.831 5.661 14.103 15.302 14.103 25.791s-5.272 20.131-14.103 25.792l-92.566 59.332c-5.096 3.265-10.787 4.909-16.5 4.909zm.048-160.043c-2.34 0-4.217.82-5.181 1.347-1.663.91-5.532 3.64-5.532 9.331v118.664c0 5.691 3.869 8.421 5.532 9.331 1.664.91 6.05 2.694 10.84-.377l92.566-59.332c3.111-1.995 4.896-5.258 4.896-8.954 0-3.695-1.785-6.959-4.896-8.953l-92.566-59.332c-2.016-1.292-3.96-1.725-5.659-1.725z" fill="#000000" data-original="#000000" class=""/><path xmlns="http://www.w3.org/2000/svg" id="XMLID_30_" d="m394.59 127.41c-2.63 0-5.21-1.07-7.07-2.93s-2.93-4.44-2.93-7.07c0-2.64 1.07-5.21 2.93-7.07 1.86-1.87 4.44-2.93 7.07-2.93s5.21 1.06 7.07 2.93c1.87 1.86 2.93 4.44 2.93 7.07s-1.06 5.21-2.93 7.07c-1.86 1.86-4.43 2.93-7.07 2.93z" fill="#000000" data-original="#000000" class=""/></g></svg>
