<?xml version="1.0"?>
<svg xmlns="http://www.w3.org/2000/svg" xmlns:xlink="http://www.w3.org/1999/xlink" xmlns:svgjs="http://svgjs.com/svgjs" version="1.1" width="512" height="512" x="0" y="0" viewBox="0 0 512 512" style="enable-background:new 0 0 512 512" xml:space="preserve" class=""><g><g xmlns="http://www.w3.org/2000/svg"><g><path d="m395.5 365h-279c-60.199 0-109-48.801-109-109 0-60.199 48.801-109 109-109h279c60.199 0 109 48.801 109 109 0 60.199-48.801 109-109 109z" fill="#6cbae7" data-original="#6ce79a" class=""/><path d="m504.5 256c0 30.1-12.2 57.35-31.92 77.08-19.73 19.72-46.98 31.92-77.08 31.92h-30c30.1 0 57.35-12.2 77.08-31.92 19.72-19.73 31.92-46.98 31.92-77.08 0-60.2-48.8-109-109-109h30c60.2 0 109 48.8 109 109z" fill="#6cbae7" data-original="#00d8a2" class=""/><path d="m395.5 335h-279c-43.63 0-79-35.369-79-79 0-43.63 35.369-79 79-79h279c43.63 0 79 35.369 79 79 0 43.631-35.369 79-79 79z" fill="#ffffff" data-original="#ffffff"/></g><g><path d="m395.5 139.5c-4.142 0-7.5 3.358-7.5 7.5s3.358 7.5 7.5 7.5c55.967 0 101.5 45.533 101.5 101.5s-45.533 101.5-101.5 101.5h-279c-55.967 0-101.5-45.533-101.5-101.5s45.533-101.5 101.5-101.5h244c4.142 0 7.5-3.358 7.5-7.5s-3.358-7.5-7.5-7.5h-244c-64.238 0-116.5 52.262-116.5 116.5s52.262 116.5 116.5 116.5h279c64.238 0 116.5-52.262 116.5-116.5s-52.262-116.5-116.5-116.5z" fill="#000000" data-original="#000000" class=""/><path d="m151.5 342.5h244c47.696 0 86.5-38.804 86.5-86.5s-38.804-86.5-86.5-86.5h-279c-47.696 0-86.5 38.804-86.5 86.5s38.804 86.5 86.5 86.5c4.142 0 7.5-3.358 7.5-7.5s-3.358-7.5-7.5-7.5c-39.425 0-71.5-32.075-71.5-71.5s32.075-71.5 71.5-71.5h279c39.425 0 71.5 32.075 71.5 71.5s-32.075 71.5-71.5 71.5h-244c-4.142 0-7.5 3.358-7.5 7.5s3.358 7.5 7.5 7.5z" fill="#000000" data-original="#000000" class=""/><path d="m233.226 292.726 4.53-11.894h30.74l4.48 11.873c1.459 3.914 5.89 5.823 9.665 4.369 3.875-1.463 5.832-5.79 4.369-9.665l-25.344-67.156c-2.614-7.608-14.252-7.619-16.882-.019l-25.576 67.153c-1.474 3.871.468 8.204 4.339 9.678 3.873 1.474 8.205-.469 9.679-4.339zm19.971-52.435 9.639 25.541h-19.366z" fill="#000000" data-original="#000000" class=""/><path d="m125.266 282.556c-7.051 0-13.847-2.854-18.179-7.633-2.78-3.068-7.523-3.303-10.594-.521-3.069 2.781-3.302 7.524-.521 10.594 7.127 7.864 18.078 12.56 29.293 12.56 13.862 0 25.497-8.808 27.663-20.944 1.624-9.093-2.556-20.99-19.153-27.112-8.528-3.146-16.455-6.575-18.716-7.566-1.662-1.284-2.461-3.289-2.15-5.456.2-1.395 1.198-4.799 6.129-6.284 10.15-3.058 19.449 4.335 19.679 4.521 3.17 2.634 7.877 2.216 10.533-.943 2.665-3.171 2.255-7.902-.915-10.567-.626-.526-15.534-12.821-33.624-7.372-9.021 2.717-15.401 9.812-16.65 18.515-1.169 8.142 2.359 15.973 9.207 20.438.332.216.679.405 1.041.566.393.175 9.743 4.337 20.276 8.223 3.226 1.19 10.616 4.585 9.577 10.402-.752 4.216-5.782 8.579-12.896 8.579z" fill="#000000" data-original="#000000" class=""/><path d="m190.572 297.556c4.142 0 7.5-3.358 7.5-7.5v-60.612h11.384c4.142 0 7.5-3.358 7.5-7.5s-3.358-7.5-7.5-7.5h-37.616c-4.142 0-7.5 3.358-7.5 7.5s3.358 7.5 7.5 7.5h11.232v60.612c0 4.142 3.358 7.5 7.5 7.5z" fill="#000000" data-original="#000000" class=""/><path d="m355.152 239.646c0-13.896-11.755-25.202-26.204-25.202h-18.1c-.004 0-.007 0-.011 0s-.007 0-.011 0c-4.142 0-7.5 3.358-7.5 7.5v68.112c0 4.142 3.358 7.5 7.5 7.5s7.5-3.358 7.5-7.5v-21.968l23.696 26.923c2.745 3.118 7.488 3.404 10.585.675 3.109-2.737 3.412-7.476.675-10.585l-18.406-20.912c11.602-2.592 20.276-12.608 20.276-24.543zm-26.203 10.201c-2.459 0-6.81.019-10.622.038v-20.441h10.622c6.073 0 11.204 4.672 11.204 10.202s-5.132 10.201-11.204 10.201z" fill="#000000" data-original="#000000" class=""/><path d="m391.586 297.556c4.142 0 7.5-3.358 7.5-7.5v-60.612h11.384c4.142 0 7.5-3.358 7.5-7.5s-3.358-7.5-7.5-7.5h-37.616c-4.142 0-7.5 3.358-7.5 7.5s3.358 7.5 7.5 7.5h11.232v60.612c0 4.142 3.358 7.5 7.5 7.5z" fill="#000000" data-original="#000000" class=""/></g></g></g></svg>
