<?xml version="1.0"?>
<svg xmlns="http://www.w3.org/2000/svg" xmlns:xlink="http://www.w3.org/1999/xlink" xmlns:svgjs="http://svgjs.com/svgjs" version="1.1" width="512" height="512" x="0" y="0" viewBox="0 0 512 512" style="enable-background:new 0 0 512 512" xml:space="preserve" class=""><g><g xmlns="http://www.w3.org/2000/svg"><path d="m370.865 368.29h-258.575c-62.016 0-112.29-50.274-112.29-112.29 0-62.016 50.274-112.29 112.29-112.29h258.576c62.016 0 112.29 50.274 112.29 112.29-.001 62.016-50.275 112.29-112.291 112.29z" fill="#78bce9" data-original="#6ce79a" class=""/><path d="m512 256c0 31.008-12.568 59.081-32.883 79.406-20.326 20.315-48.398 32.883-79.406 32.883h-30.905c31.008 0 59.081-12.568 79.406-32.883 20.315-20.325 32.883-48.398 32.883-79.406 0-62.017-50.273-112.29-112.29-112.29h30.905c62.017 0 112.29 50.273 112.29 112.29z" fill="#78bce9" data-original="#00d8a2" class=""/><path d="m399.71 337.384h-287.42c-44.947 0-81.384-36.437-81.384-81.384 0-44.947 36.437-81.384 81.384-81.384h287.42c44.947 0 81.384 36.437 81.384 81.384.001 44.947-36.436 81.384-81.384 81.384z" fill="#ffffff" data-original="#ffffff" class=""/><g fill="#6c5e69"><path d="m261.838 219.173c-.027-.069-.054-.139-.083-.208-1.442-3.509-4.823-5.776-8.617-5.776-.003 0-.006 0-.009 0-3.797.004-7.179 2.278-8.615 5.792-.024.058-.046.116-.068.174l-26.348 69.18c-1.519 3.987.482 8.451 4.47 9.97 3.989 1.519 8.452-.483 9.97-4.471l4.667-12.253h31.668l4.616 12.231c1.503 4.031 6.068 5.999 9.957 4.5 3.992-1.506 6.008-5.964 4.501-9.957zm-18.747 46.956 10.021-26.312 9.929 26.312z" fill="#484343" data-original="#6c5e69" class=""/><path d="m130.088 249.305c-8.785-3.24-16.952-6.774-19.281-7.795-1.712-1.323-2.536-3.388-2.215-5.621.206-1.437 1.234-4.944 6.314-6.473 10.436-3.151 20.009 4.442 20.272 4.655 3.267 2.714 8.116 2.285 10.852-.971 2.745-3.267 2.323-8.141-.943-10.886-.644-.541-16.003-13.206-34.638-7.595-9.293 2.8-15.866 10.109-17.153 19.073-1.204 8.388 2.43 16.456 9.484 21.054.342.223.7.419 1.072.585.405.18 10.037 4.468 20.888 8.47 3.323 1.226 10.936 4.724 9.866 10.717-.776 4.345-5.957 8.839-13.286 8.839-7.264 0-14.265-2.94-18.727-7.863-2.864-3.162-7.75-3.402-10.913-.537-3.161 2.866-3.402 7.752-.536 10.913 7.343 8.103 18.624 12.94 30.177 12.94 14.281 0 26.266-9.074 28.498-21.576 1.672-9.367-2.633-21.623-19.731-27.929z" fill="#484343" data-original="#6c5e69" class=""/><path d="m208.051 213.189h-38.751c-4.267 0-7.726 3.459-7.726 7.726s3.459 7.726 7.726 7.726h11.571v62.443c0 4.268 3.459 7.726 7.726 7.726s7.726-3.459 7.726-7.726v-62.443h11.727c4.267 0 7.726-3.459 7.726-7.726s-3.458-7.726-7.725-7.726z" fill="#484343" data-original="#6c5e69" class=""/><path d="m358.145 239.152c0-14.316-12.11-25.963-26.994-25.963h-18.646c-.004 0-.008.001-.011.001-.004 0-.007-.001-.011-.001-4.267 0-7.726 3.459-7.726 7.726v70.169c0 4.268 3.459 7.726 7.726 7.726s7.726-3.459 7.726-7.726v-22.631l24.411 27.736c2.828 3.212 7.714 3.506 10.904.695 3.203-2.819 3.515-7.701.695-10.904l-18.962-21.544c11.952-2.67 20.888-12.989 20.888-25.284zm-26.995 10.509c-2.51 0-6.935.019-10.834.038-.02-3.818-.039-8.12-.039-10.547 0-2.055-.012-6.514-.023-10.51h10.896c6.256 0 11.542 4.813 11.542 10.51 0 5.696-5.286 10.509-11.542 10.509z" fill="#484343" data-original="#6c5e69" class=""/><path d="m415.132 213.189h-38.751c-4.267 0-7.726 3.459-7.726 7.726s3.459 7.726 7.726 7.726h11.571v62.443c0 4.268 3.459 7.726 7.726 7.726s7.726-3.459 7.726-7.726v-62.443h11.727c4.267 0 7.726-3.459 7.726-7.726s-3.458-7.726-7.725-7.726z" fill="#484343" data-original="#6c5e69" class=""/></g></g></g></svg>
