<svg xmlns="http://www.w3.org/2000/svg" version="1.1" xmlns:xlink="http://www.w3.org/1999/xlink" xmlns:svgjs="http://svgjs.com/svgjs" width="512" height="512" x="0" y="0" viewBox="0 0 682.66669 682.66669" style="enable-background:new 0 0 512 512" xml:space="preserve" class=""><g><defs id="defs7327"><clipPath clipPathUnits="userSpaceOnUse" id="clipPath7337"><path d="M 0,512 H 512 V 0 H 0 Z" id="path7335" fill="#000000" data-original="#000000"></path></clipPath></defs><g id="g7329" transform="matrix(1.3333333,0,0,-1.3333333,0,682.66667)"><g id="g7331"><g id="g7333" clip-path="url(#clipPath7337)"><g id="g7339" transform="translate(482.9511,315.664)"><path d="m 0,0 h -25.304 c -0.281,0 -0.559,0.019 -0.835,0.043 v -296.001 c 0,-6.705 5.465,-12.19 12.145,-12.19 h 2.684 c 6.68,0 12.146,5.485 12.146,12.19 V 0.043 C 0.56,0.019 0.282,0 0,0" style="fill-opacity:1;fill-rule:nonzero;stroke:none" id="path7341" fill="#c7d2e5" data-original="#c7d2e5"></path></g><g id="g7343" transform="translate(54.4795,315.664)"><path d="m 0,0 h -25.304 c -0.282,0 -0.559,0.019 -0.836,0.043 v -296.001 c 0,-6.705 5.466,-12.19 12.146,-12.19 h 2.684 c 6.68,0 12.146,5.485 12.146,12.19 V 0.043 C 0.56,0.019 0.282,0 0,0" style="fill-opacity:1;fill-rule:nonzero;stroke:none" id="path7345" fill="#c7d2e5" data-original="#c7d2e5"></path></g><g id="g7347" transform="translate(457.6474,468.042)"><path d="m 0,0 h 25.304 c 0.282,0 0.56,-0.019 0.836,-0.043 v 23.991 c 0,6.872 -5.466,12.494 -12.146,12.494 H 11.31 C 4.63,36.442 -0.835,30.82 -0.835,23.948 V -0.043 C -0.56,-0.019 -0.282,0 0,0" style="fill-opacity:1;fill-rule:nonzero;stroke:none" id="path7349" fill="#c7d2e5" data-original="#c7d2e5"></path></g><g id="g7351" transform="translate(29.1758,468.042)"><path d="m 0,0 h 25.304 c 0.282,0 0.56,-0.019 0.836,-0.043 v 23.991 c 0,6.872 -5.466,12.494 -12.146,12.494 H 11.31 C 4.63,36.442 -0.836,30.82 -0.836,23.948 V -0.043 C -0.56,-0.019 -0.282,0 0,0" style="fill-opacity:1;fill-rule:nonzero;stroke:none" id="path7353" fill="#c7d2e5" data-original="#c7d2e5"></path></g><g id="g7355" transform="translate(450.8022,324.1513)"><path d="m 0,0 v 135.292 c 0,0.826 0.119,1.625 0.321,2.391 -51.103,-10.579 -119.928,-17.067 -195.667,-17.067 -75.738,0 -144.564,6.488 -195.667,17.067 0.202,-0.766 0.321,-1.565 0.321,-2.391 V 0 c 0,-0.691 -0.079,-1.364 -0.222,-2.016 51.093,-10.566 119.879,-17.046 195.568,-17.046 75.689,0 144.475,6.48 195.568,17.046 C 0.079,-1.364 0,-0.691 0,0" style="fill-opacity:1;fill-rule:nonzero;stroke:none" id="path7357" fill="#6bff76" data-original="#ff6b6b" class=""></path></g><g id="g7359" transform="translate(59.8887,322.1357)"><path d="m 0,0 c 10.296,-2.129 21.322,-4.089 32.968,-5.867 v 139.678 c -11.683,1.783 -22.742,3.751 -33.067,5.887 0.202,-0.765 0.321,-1.564 0.321,-2.39 V 2.016 C 0.222,1.324 0.143,0.651 0,0" style="fill-opacity:1;fill-rule:nonzero;stroke:none" id="path7361" fill="#73ee52" data-original="#ee5253" class=""></path></g><g id="g7363" transform="translate(482.9516,469.0586)"><path d="m 0,0 h -25.304 c -5.289,0 -9.615,-4.326 -9.615,-9.615 v -135.292 c 0,-5.288 4.326,-9.615 9.615,-9.615 H 0 c 5.288,0 9.615,4.327 9.615,9.615 V -9.615 C 9.615,-4.326 5.288,0 0,0" style="fill-opacity:1;fill-rule:nonzero;stroke:none" id="path7365" fill="#6bff76" data-original="#ff6b6b" class=""></path></g><g id="g7367" transform="translate(54.4795,469.0586)"><path d="m 0,0 h -25.304 c -5.288,0 -9.615,-4.326 -9.615,-9.615 v -135.292 c 0,-5.288 4.327,-9.615 9.615,-9.615 H 0 c 5.289,0 9.616,4.327 9.616,9.615 V -9.615 C 9.616,-4.326 5.289,0 0,0" style="fill-opacity:1;fill-rule:nonzero;stroke:none" id="path7369" fill="#6bff76" data-original="#ff6b6b" class=""></path></g><g id="g7371" transform="translate(474.6299,324.1513)"><path d="m 0,0 v 135.292 c 0,5.07 3.98,9.246 8.968,9.583 -0.214,0.015 -0.428,0.032 -0.646,0.032 h -25.304 c -5.289,0 -9.616,-4.326 -9.616,-9.615 V 0 c 0,-5.288 4.327,-9.615 9.616,-9.615 H 8.322 c 0.218,0 0.432,0.018 0.646,0.033 C 3.98,-9.245 0,-5.069 0,0" style="fill-opacity:1;fill-rule:nonzero;stroke:none" id="path7373" fill="#73ee52" data-original="#ee5253" class=""></path></g><g id="g7375" transform="translate(46.1577,324.1513)"><path d="m 0,0 v 135.292 c 0,5.07 3.98,9.246 8.969,9.583 -0.215,0.015 -0.428,0.032 -0.647,0.032 h -25.304 c -5.289,0 -9.615,-4.326 -9.615,-9.615 V 0 c 0,-5.288 4.326,-9.615 9.615,-9.615 H 8.322 c 0.219,0 0.432,0.018 0.647,0.033 C 3.98,-9.245 0,-5.069 0,0" style="fill-opacity:1;fill-rule:nonzero;stroke:none" id="path7377" fill="#73ee52" data-original="#ee5253" class=""></path></g><g id="g7379" transform="translate(150.4888,362.4004)"><path d="m 0,0 c 1.418,12.903 -32.634,14.38 -29.891,39.334 1.758,15.997 16.397,20.539 29.727,19.074 C 5.489,57.787 20.941,55.009 20.027,46.69 19.71,43.812 17.146,38.157 12.454,38.673 8.614,39.095 7.034,43.37 -1.711,44.331 -9.282,45.164 -12.715,42.411 -13.079,39.105 -14.251,28.44 19.778,26.751 16.823,-0.123 15.136,-15.479 3.024,-22.566 -12.439,-20.867 c -13.971,1.535 -24.951,9.65 -24.177,16.688 0.398,3.626 4.183,8.607 8.236,8.161 5.012,-0.55 7.344,-8.794 17.262,-9.883 C -6.212,-6.441 -0.563,-5.119 0,0" style="fill-opacity:1;fill-rule:nonzero;stroke:none" id="path7381" fill="#000000" data-original="#000000"></path></g><g id="g7383" transform="translate(226.2949,414.6836)"><path d="m 0,0 c 3.535,-0.193 4.823,-4.132 4.63,-7.667 -0.224,-4.07 -2.238,-7.506 -5.451,-7.33 l -14.783,0.81 -3.187,-58.167 c -0.188,-3.427 -4.46,-4.913 -8.637,-4.684 -4.178,0.228 -8.262,2.172 -8.074,5.6 l 3.186,58.167 -14.782,0.809 c -3.215,0.177 -4.841,3.812 -4.618,7.882 0.194,3.535 1.905,7.309 5.44,7.115 z" style="fill-opacity:1;fill-rule:nonzero;stroke:none" id="path7385" fill="#000000" data-original="#000000"></path></g><g id="g7387" transform="translate(262.9091,365.1259)"><path d="M 0,0 -7.508,28.838 -15.663,0.176 Z m -39.194,-22.091 c 0.004,0.321 0.115,0.75 0.228,1.178 l 20.688,65.214 c 1.222,3.741 6.07,5.512 11.005,5.456 4.935,-0.056 9.741,-1.934 10.879,-5.701 l 19.326,-65.664 c 0.103,-0.43 0.205,-0.861 0.201,-1.183 -0.044,-3.969 -6.192,-6.797 -10.804,-6.745 -2.683,0.03 -4.818,0.913 -5.436,3.173 l -3.497,13.45 -22.636,0.254 -3.797,-13.368 c -0.67,-2.246 -2.824,-3.079 -5.507,-3.049 -4.613,0.051 -10.695,3.016 -10.65,6.985" style="fill-opacity:1;fill-rule:nonzero;stroke:none" id="path7389" fill="#000000" data-original="#000000"></path></g><g id="g7391" transform="translate(308.5068,400.1279)"><path d="m 0,0 0.752,-19.941 10.615,0.4 c 6.004,0.227 9.556,2.83 9.273,10.335 -0.284,7.505 -4.022,9.833 -10.026,9.607 z m -17.086,8.911 c -0.101,2.681 1.847,5.116 4.956,5.234 l 22.193,0.836 C 24.752,15.536 36.644,10.51 37.305,-6.967 37.757,-18.975 32.548,-26.043 25.153,-29.221 l 13.974,-23.201 c 0.453,-0.626 0.588,-1.373 0.609,-1.909 0.158,-4.182 -5.248,-8.895 -10.179,-9.081 -2.145,-0.081 -4.214,0.7 -5.479,2.907 L 8.313,-32.54 1.237,-32.808 2.213,-58.646 c 0.13,-3.431 -3.987,-5.304 -8.168,-5.461 -4.181,-0.159 -8.428,1.399 -8.557,4.83 z" style="fill-opacity:1;fill-rule:nonzero;stroke:none" id="path7393" fill="#000000" data-original="#000000"></path></g><g id="g7395" transform="translate(397.5864,420.79)"><path d="m 0,0 c 3.526,0.32 5.37,-3.391 5.69,-6.916 0.369,-4.061 -1.128,-7.751 -4.333,-8.042 l -14.743,-1.339 5.266,-58.016 c 0.31,-3.418 -3.702,-5.506 -7.869,-5.885 -4.166,-0.378 -8.489,0.954 -8.799,4.373 l -5.266,58.015 -14.745,-1.338 c -3.205,-0.291 -5.341,3.07 -5.71,7.129 -0.32,3.527 0.826,7.509 4.352,7.829 z" style="fill-opacity:1;fill-rule:nonzero;stroke:none" id="path7397" fill="#000000" data-original="#000000"></path></g><g id="g7399" transform="translate(482.8877,469.0586)"><path d="m 0,0 h -25.304 c -5.288,0 -9.615,-4.326 -9.615,-9.615 v -135.292 c 0,-5.288 4.327,-9.615 9.615,-9.615 H 0 c 5.289,0 9.616,4.327 9.616,9.615 V -9.615 C 9.616,-4.326 5.289,0 0,0 Z" style="stroke-width:15;stroke-linecap:round;stroke-linejoin:round;stroke-miterlimit:10;stroke-dasharray:none;stroke-opacity:1" id="path7401" fill="none" stroke="#000000" stroke-width="15" stroke-linecap="round" stroke-linejoin="round" stroke-miterlimit="10" stroke-dasharray="none" stroke-opacity="" data-original="#000000"></path></g><g id="g7403" transform="translate(54.416,469.0586)"><path d="m 0,0 h -25.304 c -5.288,0 -9.615,-4.326 -9.615,-9.615 v -135.292 c 0,-5.288 4.327,-9.615 9.615,-9.615 H 0 c 5.289,0 9.616,4.327 9.616,9.615 V -9.615 C 9.616,-4.326 5.289,0 0,0 Z" style="stroke-width:15;stroke-linecap:round;stroke-linejoin:round;stroke-miterlimit:10;stroke-dasharray:none;stroke-opacity:1" id="path7405" fill="none" stroke="#000000" stroke-width="15" stroke-linecap="round" stroke-linejoin="round" stroke-miterlimit="10" stroke-dasharray="none" stroke-opacity="" data-original="#000000"></path></g><g id="g7407" transform="translate(457.584,469.0586)"><path d="m 0,0 h 25.304 c 0.282,0 0.56,-0.019 0.836,-0.042 V 23.28 c 0,6.68 -5.466,12.146 -12.146,12.146 H 11.31 C 4.63,35.426 -0.836,29.96 -0.836,23.28 V -0.042 C -0.56,-0.019 -0.282,0 0,0 Z" style="stroke-width:15;stroke-linecap:round;stroke-linejoin:round;stroke-miterlimit:10;stroke-dasharray:none;stroke-opacity:1" id="path7409" fill="none" stroke="#000000" stroke-width="15" stroke-linecap="round" stroke-linejoin="round" stroke-miterlimit="10" stroke-dasharray="none" stroke-opacity="" data-original="#000000"></path></g><g id="g7411" transform="translate(54.416,314.5361)"><path d="m 0,0 h -25.304 c -0.282,0 -0.56,0.019 -0.836,0.043 v -294.918 c 0,-6.68 5.466,-12.146 12.146,-12.146 h 2.684 c 6.68,0 12.146,5.466 12.146,12.146 V 0.043 C 0.56,0.019 0.282,0 0,0 Z" style="stroke-width:15;stroke-linecap:round;stroke-linejoin:round;stroke-miterlimit:10;stroke-dasharray:none;stroke-opacity:1" id="path7413" fill="none" stroke="#000000" stroke-width="15" stroke-linecap="round" stroke-linejoin="round" stroke-miterlimit="10" stroke-dasharray="none" stroke-opacity="" data-original="#000000"></path></g><g id="g7415" transform="translate(29.1123,469.0586)"><path d="m 0,0 h 25.304 c 0.282,0 0.559,-0.019 0.836,-0.042 V 23.28 c 0,6.68 -5.466,12.146 -12.146,12.146 H 11.31 C 4.63,35.426 -0.836,29.96 -0.836,23.28 V -0.042 C -0.56,-0.019 -0.282,0 0,0 Z" style="stroke-width:15;stroke-linecap:round;stroke-linejoin:round;stroke-miterlimit:10;stroke-dasharray:none;stroke-opacity:1" id="path7417" fill="none" stroke="#000000" stroke-width="15" stroke-linecap="round" stroke-linejoin="round" stroke-miterlimit="10" stroke-dasharray="none" stroke-opacity="" data-original="#000000"></path></g><g id="g7419" transform="translate(238.5,444.8925)"><path d="m 0,0 c -67.5,0.93 -128.531,7.198 -174.784,16.941 0.199,-0.765 0.316,-1.564 0.316,-2.39 v -135.292 c 0,-0.692 -0.078,-1.364 -0.219,-2.016 50.209,-10.566 117.807,-17.046 192.187,-17.046 74.38,0 141.978,6.48 192.187,17.046 -0.141,0.652 -0.219,1.324 -0.219,2.016 V 14.551 c 0,0.826 0.117,1.625 0.316,2.39 C 163.531,7.198 102.5,0.93 35,0" style="stroke-width:15;stroke-linecap:round;stroke-linejoin:round;stroke-miterlimit:10;stroke-dasharray:none;stroke-opacity:1" id="path7421" fill="none" stroke="#000000" stroke-width="15" stroke-linecap="round" stroke-linejoin="round" stroke-miterlimit="10" stroke-dasharray="none" stroke-opacity="" data-original="#000000"></path></g><g id="g7423" transform="translate(483.7236,189.7412)"><path d="m 0,0 v 124.838 c -0.276,-0.025 -0.554,-0.043 -0.836,-0.043 H -26.14 c -0.281,0 -0.559,0.018 -0.836,0.043 V -170.08 c 0,-6.68 5.466,-12.146 12.146,-12.146 h 2.684 c 6.68,0 12.146,5.466 12.146,12.146 L 0,-35" style="stroke-width:15;stroke-linecap:round;stroke-linejoin:round;stroke-miterlimit:10;stroke-dasharray:none;stroke-opacity:1" id="path7425" fill="none" stroke="#000000" stroke-width="15" stroke-linecap="round" stroke-linejoin="round" stroke-miterlimit="10" stroke-dasharray="none" stroke-opacity="" data-original="#000000"></path></g></g></g></g></g></svg>