<?xml version="1.0" encoding="utf-8"?>
<!-- Generator: Adobe Illustrator 25.0.1, SVG Export Plug-In . SVG Version: 6.00 Build 0)  -->
<svg version="1.1" id="Layer_1" xmlns="http://www.w3.org/2000/svg" xmlns:xlink="http://www.w3.org/1999/xlink" x="0px" y="0px"
	 viewBox="0 0 551.6 193.9" enable-background="new 0 0 551.6 193.9" xml:space="preserve">
<g id="g10" transform="matrix(1.3333333,0,0,-1.3333333,0,158.42667)">
	<g id="g12" transform="scale(0.1)">
		<path id="path14" fill="#E42024" d="M898.8,1085.7c-0.8,0.2-93,9.4-409.5,9.4h-4.7c-287.6,0-388.6-5.5-410.4-9.5
			c-10.1-1.7-16.4-9.1-17.7-17.9c0,0-1.1-274.8-1.9-459.2c40.8,1.8,161.9,5.7,435.2,5.7c267.9,0,387.1-3.8,428.6-5.7l-2,460.4
			C916.1,1073.1,914,1083.4,898.8,1085.7"/>
		<path id="path16" fill="#E42024" d="M898.8,1085.7l1.8,8.6l-0.6,0.1c-0.5,0.1-0.9,0.1-1.9,0.2c-13.7,1.3-114.2,9.3-408.8,9.3h-4.7
			c-143.9,0-241.1-1.4-305.1-3.2c-32-0.9-55.8-2-73-3.1c-17.2-1.1-27.7-2.2-33.9-3.3l1.6-8.6l-1.5,8.7c-6.8-1.1-12.8-4.4-17.1-8.9
			c-4.3-4.5-7-10.3-7.9-16.4l-0.1-0.6l0-0.6c0,0-1.1-274.8-1.9-459.3l0-9.2l9.2,0.4c40.6,1.8,161.7,5.7,434.8,5.7
			c267.8,0,386.9-3.8,428.2-5.7l9.2-0.4l-2.1,469.8l0,0.2c-0.2,3.2-1,8.5-4.9,13.8c-3.8,5.3-10.8,9.9-20.2,11.2L898.8,1085.7
			l1.8,8.6L898.8,1085.7l-1.3-8.7c5.8-1,7.5-2.7,8.6-4.2c1.1-1.5,1.5-3.4,1.5-4.5l8.8,0.5l-8.8,0l2-460.4l8.8,0l0.4,8.8
			c-41.7,1.9-161,5.7-429,5.7c-273.3,0-394.6-4-435.6-5.7l0.4-8.8l8.8,0c0.4,92.2,0.8,207,1.2,298.8c0.2,45.9,0.4,86,0.5,114.6
			c0.1,28.6,0.2,45.8,0.2,45.8l-8.8,0l8.7-1.3c0.4,2.8,1.5,5.1,3.2,6.9c1.7,1.8,4,3.1,7.2,3.7l0.1,0l0.1,0c4.7,0.9,15,2,31.8,3.1
			c50.7,3.2,161.4,6.3,377,6.3h4.7c158.1,0,260.2-2.3,322.8-4.7c31.3-1.2,52.7-2.3,66.3-3.2c6.8-0.4,11.7-0.8,14.8-1.1
			c1.6-0.1,2.7-0.2,3.5-0.3l0.8-0.1l0.1,0l0.5,4.4l-0.6-4.4l0.1,0l0.5,4.4l-0.6-4.4l1.1,8.2l-1.7-8.1l0.5-0.1l1.1,8.2l-1.7-8.1
			l0.2-0.1l0.2,0L898.8,1085.7"/>
		<path id="path18" fill="#FFFFFF" d="M486.8-37c0,0-285.6,146.2-357.8,257.1c0,0-104.2,114.2-84,297.3v77.3
			c0,0,374.6,6.7,445.2,6.7c0,0,381.4-5.1,438.5-5.1V492.2c0,0,23.5-168-92.4-282.2C836.2,210,716.9,73.9,486.8-37"/>
		<path id="path20" fill="#100F0D" d="M1472.5,905.1v201.3h-62.6V877.7c0-19.1-0.5-35.2-3.1-45c-7.7-33.1-30.5-49.2-73.5-49.2
			c-39.9,0-61.6,15-70.4,44.5c-3.1,9.9-4.2,25.8-4.2,45v233.4h-73.9v-208c0-50.7,4.1-85.9,19.6-109.7
			c19.6-30.5,58.5-53.3,125.7-53.3c74,0,109.7,30,126.3,63.1C1466.8,818.7,1472.5,846.1,1472.5,905.1"/>
		<path id="path22" fill="#100F0D" d="M2652.1,1003.5c-7.7,3.2-18.1,6.7-34.6,6.7c-45.1,0-63.7-39.3-63.7-39.3v35.2h-70.4V741.1
			h72.4v208c0,0,14,9.3,38.8,9.3c23.9,0,38.9-9.8,42.9-12.9L2652.1,1003.5z M2367,905.7h-92.6c0,4.7,0,18.1,3.1,31.1
			c5.7,23.8,18.1,39.3,44,39.3c30.9,0,45.5-19.7,45.5-59L2367,905.7L2367,905.7z M2438.9,868.9v4.1c0,29-1.6,64.2-16,90.1
			c-16.5,28.9-44,48.1-96.2,48.1c-107.7,0-126.2-88.5-126.2-138.2c0-106.1,65.2-136.1,137.6-136.1c62.1,0,91,15.5,91,15.5
			l-13.9,39.9c0,0-20.2-11.9-56.4-11.9c-51.2,0-84.9,31.6-84.9,83.4v5.1L2438.9,868.9z M2189.5,1006h-64.2l-51.2-171.2
			c-3.6-12.9-9.3-32.6-9.3-32.6s-2.1,11.4-7.8,31.6l-50.7,172.3h-78.1l93.2-265.4h70.3L2189.5,1006z M1898.2,1006h-72.5V741.1h72.5
			V1006z M1903.9,1082.6c0,22.2-16.6,37.3-41.4,37.3c-26.4,0-43-15-43-38.8c0-22.3,16.5-37.3,41.4-37.3
			C1887.3,1043.8,1903.9,1058.8,1903.9,1082.6 M1766.2,741.1V901c0,11.9,0,33.2-4.2,51.8c-6.2,26.9-27.9,59-83.3,59
			c-56.4,0-79.2-32.6-79.2-32.6v26.9h-70.4V741.1h72.5v215.2c0,0,16.5,8.8,39.9,8.8c26.9,0,44.5-10.3,49.7-35.2
			c2.1-9.8,2.1-23.8,2.1-37.3V741.1H1766.2"/>
		<path id="path24" fill="#100F0D" d="M3196.7,749.4l-11.9,39.8c0,0-13.4-7.2-31.1-7.2c-34.1,0-37.2,21.7-37.2,48.1v136.1h78.1v39.3
			h-78.1v62.1h-47.1l-0.5-4.7c-4.7-26.9-23.8-52.3-50.7-61.1l-7.3-2.7v-33.1h33.1V834.8c0-20.2,1.1-41.4,5.2-53.9
			c11.4-33.1,37.8-42.9,80.7-42.9C3165.6,738,3189.4,746.8,3196.7,749.4 M2969.7,1006h-72.5V741.1h72.5V1006z M2975.4,1082.6
			c0,22.2-16.6,37.3-41.4,37.3c-26.4,0-43-15-43-38.8c0-22.3,16.6-37.3,41.4-37.3C2958.8,1043.8,2975.4,1058.8,2975.4,1082.6
			 M2849.1,819.8c0,35.7-17.6,55.9-49.7,72.5l-37.7,19.1c-21.2,10.9-31.1,16-31.1,32.6c0,20.2,19.1,25.9,40.9,25.9
			c33.1,0,57.4-14,57.4-14l14.5,41.4c0,0-29,14-81.2,14c-59,0-95.2-25.3-95.2-75.6c0-37.3,18.2-56.4,52.8-75.6l38.8-21.2
			c17.6-9.9,24.8-14.5,24.8-30c0-19.7-15.5-29.5-44-29.5c-43.4,0-67.2,14.5-67.2,14.5l-14.5-41.4c0,0,28.5-15.5,89.5-15.5
			C2802,737,2849.1,759.2,2849.1,819.8"/>
		<path id="path26" fill="#100F0D" d="M3470.6,1006h-64.2l-48.6-172.8c-4.1-15-8.8-32.1-8.8-32.1s-1.6,10.9-8.3,33.2l-52.3,171.7
			h-78.6l106.1-277.9l-8.8-24.3c-8.8-24.8-19.7-36.7-41.9-36.7c-13.4,0-29.5,6.2-29.5,6.2l-7.2-42.5c0,0,15.5-6.7,45.1-6.7
			c42.9,0,69.3,18.1,87.4,69.9L3470.6,1006"/>
		<path id="path28" fill="#100F0D" d="M4026.5,1132.8c0,0-18.1,8.8-53.8,8.8c-49.7,0-76.6-19.7-88-56.4c-5.7-18.6-5.2-50.8-5.2-65.7
			v-14h-33.1v-39.3h33.1V741.1h71.4v225.1h54.3v39.3H3951v38.3c0,19.6,0.5,32.6,5.2,40.9c5.1,9.3,13.9,15.5,31,15.5
			c17.1,0,26.9-6.7,26.9-6.7L4026.5,1132.8z M3751.8,873c0-63.6-14-95.7-54.9-95.7c-42.5,0-56.4,35.7-56.4,96.8
			c0,63.6,14.6,95.2,55.4,95.2C3738.3,969.3,3751.8,934.1,3751.8,873 M3826.8,877.7c0,82.8-45,134-127.8,134
			c-96.8,0-133.5-68.8-133.5-142.8c0-82.8,45.5-134,128.3-134C3790.5,734.9,3826.8,803.7,3826.8,877.7"/>
		<path id="path30" fill="#100F0D" d="M3022.8,605.3c-43.5,0-70.5-23.7-70.5-61.7c0-35.5,26.4-58.5,67.4-58.5
			c43.5,0,70.5,23.6,70.5,61.7C3090.1,582.4,3063.7,605.3,3022.8,605.3"/>
		<path id="path32" fill="#100F0D" d="M1889.5,264.5h-137.2v4.8c0,10.3,0,29.3,3.3,47.4c7.9,42.6,29.4,63.3,65.7,63.3
			c46.5,0,68.2-28,68.2-88.3L1889.5,264.5L1889.5,264.5z M1829.3,432.1c-178.8,0-198-147.5-198-210.9c0-170.3,116-206,213.2-206
			c87,0,133.3,17.2,145.6,22.6c-2.2,6.7-17.3,52.1-20.1,60.4c-11.4-5.1-41.7-16.6-86.1-16.6c-90.4,0-130.8,58.8-130.8,117.2v10.4
			h253.4v2.4c0,45.5-2.6,102.8-23.5,142.1C1954.5,407.2,1905.7,432.1,1829.3,432.1"/>
		<path id="path34" fill="#100F0D" d="M1387.8,303.1c-13.1-3.3-20.6-4.1-48.5-4.1l-37.8,0.9v216.5l4.1,0.7
			c0.4,0.1,10.3,1.7,35.3,1.7c72.9,0,108.3-35.4,108.3-108.3C1449.2,342.6,1417.5,310.5,1387.8,303.1 M1456.7,263.6
			c4.7,1.3,114.3,32.9,114.3,162.9c0,105.5-89.2,135.5-116.6,142.1c-31.2,7.4-79.9,11.1-148.8,11.1c-56.2,0-105.9-2.8-120.3-3.7
			V21.5h116.2v223.8h33.8c0,0,155.2-219.7,158.1-223.8h140c-11.2,14.6-183.7,240.2-183.7,240.2L1456.7,263.6"/>
		<path id="path36" fill="#100F0D" d="M2284.1,85.2l-2.4-1.4c-0.6-0.3-14.3-7.9-44.9-7.9c-25.8,0-69,8.5-69,65.1
			c0,10.4,1.8,36,17.5,50.8c14.5,13.6,33.1,19.7,60.3,19.7l34.3-0.8l4.2-0.1L2284.1,85.2z M2238.3,432.9
			c-83.3,0-135.3-16.9-149.4-22.1c2.5-7.2,18.7-53.8,21.6-61.9c12.1,5.4,46.3,18.3,95,18.3c24.3,0,58.1-3.6,71.7-34.1
			c4.7-10.1,6.9-24.5,6.9-45.3v-25.7l-0.2-5l-59.2,2.6c-45.8,0-93.5-2.2-129.5-28c-30.3-21.8-44.5-52.7-44.5-97.1
			c0-73.6,47.9-119.4,125-119.4c74,0,102.4,40.7,102.6,41.1l8.9,13.2V21.5h111.4v245.4c0,33.8-0.8,68.8-10.1,92.9
			C2369.8,409,2320.7,432.9,2238.3,432.9"/>
		<path id="path38" fill="#100F0D" d="M2961.1,424.1h120.2V21.5h-120.2V424.1"/>
		<path id="path40" fill="#100F0D" d="M2745.3,365.7v-266l-2.5-1.4c-0.8-0.4-19.9-11-51.3-11c-62.7,0-98.7,49.7-98.7,136.4
			c0,98.5,37.8,148.4,112.3,148.4c23.1,0,36.4-4.9,37-5.1L2745.3,365.7z M2656.2,430.5c-111.7,0-186.8-86.7-186.8-215.7
			c0-127,59.3-199.7,162.8-199.7c80.1,0,107.8,45.2,108.1,45.7l9,15.3V21.5h116.2v611.1h-120.2V417.7l0-9.6l-7.7,5.7
			C2737.3,414,2714.4,430.5,2656.2,430.5"/>
		<path id="path42" fill="#100F0D" d="M3419.7,432.9c-85,0-117.5-48.6-117.8-49.1l-9-13.8v54h-116.2V21.5H3297v326.1l2.6,1.4
			c0.9,0.5,22.2,11.8,55.2,11.8c40.3,0,64.6-16.6,72.2-49.6c2.9-14.9,3.3-39.8,3.3-49.8V21.5h121.1v244.6c0,17.8,0,50.8-6.4,79.2
			C3539,371.6,3514.8,432.9,3419.7,432.9"/>
		<path id="path44" fill="#100F0D" d="M3825,220.3l-0.2-0.1c-9.6-5.7-21-8.6-33.8-8.6c-40.8,0-63.4,30.2-63.4,85
			c0,27.1,3.3,60.4,28.8,77.2c10.2,6.2,22.5,9.5,34.6,9.5c40.8,0,63.4-29.9,63.4-84.2C3854.6,271.1,3851.2,236.9,3825,220.3
			 M3820,11.1c37.3,0,64.3,0,78.5-14.2c6.6-6.6,9.7-15.6,9.7-27.6c0-31.8-20.1-69.8-115.5-69.8c-46,0-98.7,6.9-98.7,60.2
			c0,36.5,32.1,50.5,33.4,51l0.9,0.4L3820,11.1z M3786.3,432.1c-118,0-170.8-68.1-170.8-135.5c0-105,89.9-119.8,93.7-120.3l17.9-2.7
			l-16.8-6.6c-2.4-1-60.3-24.5-60.3-83.7c0-41,30.3-55.1,31.6-55.7l16.5-7.5l-18-1.8c-3.5-0.4-85.5-9.4-85.5-81.8
			c0-83.7,105.5-96.2,168.4-96.2c50.2,0,91.7,5.7,126.8,17.4c102.5,34.2,117.7,103.7,117.7,142.2c0,88.8-68.5,100.2-128.2,100.2
			l-56.7-1l-32.3-0.7c-16.6,0-47.4,0-47.4,35.3c0,19.6,11.5,30.4,12,30.9l1.9,1.4l39.2-2.5c104.9,0,165.1,46.4,165.1,127.5
			c0,41.4-23.1,64.5-23.3,64.7l-8.5,8.3h82.5v59.3c-9.2,0-159.3,0.2-159.3,0.2C3840.8,426.7,3816.8,432.1,3786.3,432.1"/>
		<path id="path46" fill="#100F0D" d="M840.8,233.6c-4.2,8.6-12.7,14-22.2,14c-12.4,0-22.9-9.3-24.5-21.7c-0.3-1.6-0.9-2.8-1.6-2.8
			c-0.7,0-1.4,1.2-1.6,2.8c-1.7,12.4-12.2,21.7-24.6,21.7c-12.3,0-22.9-9.3-24.5-21.7c-0.3-1.6-1-2.8-1.7-2.8
			c-0.7,0-1.3,1.2-1.5,2.8c-1.8,12.4-12.3,21.7-24.7,21.7c-12.3,0-22.9-9.3-24.5-21.7c-0.3-1.6-1-2.8-1.6-2.8
			c-0.7,0-1.4,1.2-1.5,2.8c-1.7,12.4-12.2,21.7-24.6,21.7c-12.3,0-22.9-9.3-24.6-21.7c-0.3-1.7-1-2.8-1.6-2.8
			c-0.7,0-1.3,1.2-1.5,2.8c-1.7,12.4-12.2,21.7-24.6,21.7c-13.7,0-24.8-11.2-24.8-24.8c0-12.4,9.3-22.9,21.6-24.5
			c1.8-0.3,2.8-1.1,2.8-1.7c0-0.7-1.2-1.4-2.8-1.6c-12.4-1.7-21.6-12.2-21.6-24.6c0-12.3,9.3-22.9,21.6-24.5
			c1.8-0.3,2.8-1.1,2.8-1.6c0-0.7-1.2-1.3-2.8-1.6c-12.4-1.7-21.6-12.2-21.6-24.6c0-12.4,9.3-22.9,21.6-24.5
			c1.8-0.3,2.8-1.1,2.8-1.7c0-0.7-1.2-1.3-2.8-1.5c-12.4-1.7-21.6-12.3-21.6-24.6c0-11.2,7.5-20.9,18.3-23.9
			c-9.1-6.2-14.5-9.9-14.5-9.9c-55.7-34.1-92.2-51.2-101.9-55.6c-9.8,4.3-45.7,20.8-100.6,54.3c0,0-6.3,4.2-16.3,11
			c11.5,2.5,19.5,12.6,19.5,24.1c0,12.3-9.3,22.9-21.6,24.5c-1.6,0.3-2.9,1-2.9,1.7c0,0.6,1.1,1.3,2.9,1.5
			c12.3,1.7,21.6,12.2,21.6,24.6c0,12.4-9.3,22.9-21.6,24.5c-1.7,0.3-2.9,0.9-2.9,1.6c0,0.5,1.1,1.3,2.9,1.5
			c12.3,1.7,21.6,12.2,21.6,24.6c0,12.4-9.3,22.9-21.6,24.5c-1.7,0.3-2.9,1-2.9,1.7c0,0.6,1.1,1.3,2.9,1.5
			c12.3,1.8,21.6,12.2,21.6,24.6c0,13.7-11.1,24.8-24.8,24.8c-12.3,0-22.9-9.3-24.5-21.7c-0.3-1.6-1-2.8-1.6-2.8
			c-0.7,0-1.3,1.1-1.6,2.8c-1.8,12.4-12.3,21.7-24.6,21.7c-12.4,0-22.9-9.3-24.6-21.7c-0.3-1.6-0.9-2.8-1.6-2.8
			c-0.7,0-1.3,1.2-1.6,2.8c-1.7,12.4-12.2,21.7-24.6,21.7c-12.4,0-22.9-9.3-24.6-21.7c-0.3-1.6-0.9-2.8-1.6-2.8
			c-0.7,0-1.3,1.2-1.6,2.8c-1.7,12.4-12.2,21.7-24.6,21.7c-12.4,0-22.9-9.3-24.5-21.7c-0.3-1.6-1-2.8-1.7-2.8
			c-0.7,0-1.3,1.2-1.5,2.8c-1.8,12.4-12.3,21.7-24.6,21.7c-9.5,0-18-5.4-22.2-14c-58.8,76.6-74.1,148.9-77.7,185.8l0,4.5v0.1
			c1,0.3,1.8,0.7,2.8,1.1c8.9,2.9,15.4,10.3,16.7,19.6h0.1c0.2,1.7,0.9,2.9,1.5,2.9c0.7,0,1.3-1.2,1.5-2.9
			c1.7-12.3,12.2-21.6,24.6-21.6c12.4,0,22.9,9.3,24.5,21.6c0.3,1.7,1,2.9,1.7,2.9c0.7,0,1.3-1.2,1.5-2.9
			c1.8-12.3,12.2-21.6,24.6-21.6c12.4,0,22.9,9.3,24.5,21.6c0.3,1.7,1,2.9,1.6,2.9c0.7,0,1.4-1.2,1.6-2.9
			c1.7-12.3,12.3-21.6,24.6-21.6c12.4,0,22.9,9.3,24.5,21.6c0.3,1.7,1,2.9,1.6,2.9c0.7,0,1.3-1.2,1.6-2.9
			c1.7-12.3,12.2-21.6,24.6-21.6c12.3,0,22.9,9.3,24.5,21.6c0.3,1.7,1,2.9,1.6,2.9c0.7,0,1.4-1.2,1.6-2.9
			c1.7-12.3,12.2-21.6,24.6-21.6c12.3,0,22.9,9.3,24.5,21.6c0.3,1.9,1.1,2.9,1.6,2.9c0.7,0,1.4-1.2,1.5-2.9
			c1.8-12.3,12.3-21.6,24.6-21.6c13.7,0,24.9,11.1,24.9,24.8c0,12.4-9.3,23-21.6,24.5c-1.8,0.3-2.9,1.1-2.9,1.6
			c0,0.7,1.2,1.3,2.9,1.5c12.3,1.7,21.6,12.3,21.6,24.6c0,12.4-9.3,22.9-21.6,24.5c-1.8,0.3-2.9,1.1-2.9,1.6c0,0.7,1.2,1.4,2.9,1.6
			c12.3,1.7,21.6,12.2,21.6,24.6c0,12.4-9.3,22.9-21.6,24.6c-1.8,0.3-2.9,1-2.9,1.6c0,0.7,1.3,1.3,2.9,1.5
			c7.8,1.2,14.8,5.9,18.6,12.9l-0.4,0v0.1h0.3c47.3,0.7,84.6,1.2,97.8,1.2c14,0,54-0.5,104.4-1.2h0.2l0-0.1
			c3.8-7,10.8-11.7,18.6-12.8c1.6-0.3,2.9-1,2.9-1.7c0-0.6-1.1-1.3-2.9-1.5c-12.4-1.8-21.7-12.3-21.7-24.6
			c0-12.4,9.3-22.9,21.7-24.5c1.7-0.4,2.9-1,2.9-1.7c0-0.6-1.1-1.3-2.9-1.5c-12.4-1.7-21.7-12.3-21.7-24.6
			c0-12.3,9.3-22.9,21.7-24.5c1.6-0.3,2.9-1,2.9-1.7c0-0.6-1.1-1.4-2.9-1.6c-12.4-1.6-21.7-12.2-21.7-24.6
			c0-13.7,11.1-24.8,24.8-24.8c12.4,0,22.9,9.3,24.6,21.6c0.3,1.7,0.9,2.9,1.6,2.9c0.6,0,1.3-1,1.6-2.9
			c1.7-12.3,12.2-21.6,24.6-21.6c12.4,0,23,9.3,24.5,21.6c0.3,1.7,1,2.9,1.6,2.9c0.7,0,1.3-1.2,1.6-2.9
			c1.7-12.3,12.3-21.6,24.6-21.6c12.4,0,22.9,9.3,24.5,21.6c0.3,1.7,0.9,2.9,1.6,2.9c0.7,0,1.4-1.2,1.6-2.9
			c1.7-12.3,12.2-21.6,24.7-21.6c12.3,0,22.9,9.3,24.5,21.6c0.3,1.7,1,2.9,1.7,2.9c0.7,0,1.3-1.2,1.6-2.9
			c1.7-12.3,12.2-21.6,24.6-21.6c12.4,0,22.9,9.3,24.5,21.6c0.3,1.7,1,2.9,1.7,2.9c0.7,0,1.3-1.2,1.5-2.9
			c1.7-12.3,12.3-21.6,24.6-21.6c12.3,0,23,9.3,24.5,21.6c0.3,1.7,0.9,2.9,1.6,2.9c0.7,0,1.4-1.2,1.5-2.9
			c1.5-10.3,9.1-18.6,19.2-20.9l-0.1-4C914.5,382.8,899.6,310.2,840.8,233.6 M385.1,593h0.2c-0.7-1-1.4-1.8-2.2-2.7
			C383.8,591.1,384.5,592,385.1,593 M918.2,424.1c-1,0.3-1.9,0.8-2.9,1.2C916.3,424.9,917.1,424.4,918.2,424.1L918.2,424.1z
			 M56.3,1067.6c1.3,8.9,7.6,16.3,17.7,17.9c21.8,4.1,122.8,9.6,410.4,9.6h4.7c316.4,0,406.8-9.3,407.6-9.4
			c15.2-2.3,19.2-14.4,19.5-18.7l2.1-458.5c-41.6,1.8-160.8,5.7-428.6,5.7c-273.3,0-394.4-4-435.2-5.8
			C55.2,792.8,56.3,1067.6,56.3,1067.6 M944,446.2l-2.8,625.5c-1.1,19.4-16.8,34.9-36.6,37.9c-2.7,0.6-95.4,9.8-415.4,9.8h-4.7
			c-289.4,0-394.2-5.7-415.5-9.8c-19-3.2-36.3-20-37.2-39.4c-0.2-2-2.3-624.7-2.3-624.7c-0.2-3-2.3-43.6,13.8-96.8
			c18.5-61.7,60.3-142.4,158.5-219.4C364.8,1.7,477.7-47,482.2-49c2.6-1.2,3.3-1.5,4.3-1.5c1,0,1.6,0.2,4.9,1.6
			c4.4,2.1,116.4,51.9,279.4,178.2c98.2,76.1,141,156.5,159.6,218.4C946.4,401.5,944.3,442.9,944,446.2"/>
		<path id="path48" fill="#F9E605" d="M486.3,380.5c-13,0-23.6-10.4-23.6-23.4c0-12.9,10.6-23.4,23.6-23.4c13,0,23.6,10.5,23.6,23.4
			C509.9,370.1,499.3,380.5,486.3,380.5"/>
		<path id="path50" fill="#F9E605" d="M486.3,380.5v3.5c-14.9,0-27.1-12-27.1-26.9c0-14.9,12.1-26.9,27.1-26.9
			c15,0,27.1,12,27.2,26.9c0,15-12.2,26.9-27.2,26.9V380.5V377c11.1,0,20.1-8.9,20.1-19.9c0-10.9-9-19.9-20.1-19.9
			c-11.1,0-20,8.9-20,19.9c0,11,9,19.9,20,19.9V380.5"/>
		<path id="path52" fill="#E42024" d="M486.3,333.7c-13,0-23.6,10.5-23.6,23.4c0,13,10.6,23.4,23.6,23.4c13,0,23.6-10.4,23.6-23.4
			C509.9,344.1,499.3,333.7,486.3,333.7 M576.2,374.7c-4.7,2.5-8.4,3-12.4,1.6l-6.2-2.9L553,371l-10.7-4.3
			c-17.5-6.3-22.3-4.2-23.4-1.3l0.2,2.8c1.2,2.5,5.4,6.6,18.7,11.3l11,3.6l5.1,1.2l6.5,1.8c3.9,1.4,6.6,4.2,8.5,9
			c6.5,16.2-6.8,33.2-21.5,43.6c-16.5,11.6-38.9,18.2-50,8.2c-3.8-3.5-5.6-6.9-5.6-11.1l0.6-6.6l0.6-5.3l0.4-11.5
			c0-19.6-4.3-22.5-6.8-22.5l-2.5,1.1c-4.1,4.1-4.1,16.9-4.1,21.1l0.4,12l0.5,5.3l0.5,6.6c0,4.2-1.7,7.6-5.6,11
			c-11.1,10-33.6,3.4-50-8.2c-14.7-10.4-28.1-27.3-21.5-43.6c2-4.9,4.5-7.6,8.4-9.1l6.6-1.8l5-1.2l11-3.6c10.8-3.9,17-7.7,18.6-11.2
			l0.2-2.8c-0.9-2.3-5.1-5.3-23.5,1.3l-10.8,4.4l-4.7,2.3l-6,2.7c-3.9,1.5-7.6,1-12.3-1.5c-12.3-6.5-15-21.9-8.3-47.2
			c5-19.6,18-39,33-38.5c5.3,0.1,8.8,1.7,11.5,4.9l3.8,5.3l3,4.5l7,9.1c3.4,4,12,14.2,17.7,14.8l2.4-0.7l1.6-2.5
			c0.7-4.8-5.6-13.1-8.3-16.6l-1.1-1.4l-7.2-8.9l-3.7-4l-4.4-4.8c-2.5-3.4-3.2-7.1-2.2-12.3c2.9-14.7,24.8-22.9,45-23.6
			c18-0.5,38.8,5,43.3,21.9c1.3,5.1,1,8.9-1.3,12.4l-4,5.2l-3.4,4.1l-6.6,9.5l-1.8,2.7c-2.9,4-8.8,12.4-8,16.8l1.3,1.9l2.7,0.9
			c2.4-0.2,8.1-2.5,18.7-15.2l7.2-9.1l2.9-4.4l3.8-5.4c2.7-3.2,6.3-4.7,11.5-4.9c14.9-0.5,27.9,18.9,33,38.5
			c2.1,7.8,3.1,14.9,3.1,21.1C588.8,361.3,584.5,370.3,576.2,374.7"/>
		<path id="path54" fill="#31997E" d="M563,384.4c-4-1.5-4.1-1.1-10.8-3c-3.9-1-11.2-3.7-14.6-4.9c-8.6-3.1-14.3-6.5-13.2-9.3
			c0.9-2.8,7.2-1.3,15.8,1.9c3.4,1.2,10.7,4,14.4,5.6c6.5,2.9,6.2,3.2,10.2,4.6c6.7,2.5,12.5,0.6,16.1-1.7c4.7-2.9,5.7-3.4,8.2-7.9
			c21,22.9,32,26.8,31.8,27.6c-0.2,0.7-15.7-1.7-45.5,3.8c-0.2-3,0.1-2.2-0.9-5.3C573,392,569.7,386.8,563,384.4"/>
		<path id="path56" fill="#31997E" d="M563,384.4l-1.3,3.3c-1.9-0.7-2.6-0.9-3.9-1.2c-1.3-0.3-3.2-0.7-6.6-1.7l1-3.4l-0.9,3.4
			c-4.2-1.1-11.5-3.8-14.9-4.9l0,0l0,0c-4.1-1.5-7.6-3-10.3-4.7c-1.4-0.8-2.5-1.7-3.5-2.8c-0.9-1.1-1.9-2.5-1.9-4.4l0.4-2l3.3,1.3
			l-3.3-1.1c0.4-1.4,1.7-2.7,2.9-3.2c1.2-0.6,2.4-0.7,3.5-0.7c3.8,0.1,8.3,1.5,14,3.5l0,0c3.5,1.3,10.8,4,14.7,5.7l0,0
			c3.3,1.4,5,2.3,6.2,2.9c1.2,0.6,1.9,1,3.8,1.7l0,0c1.9,0.7,3.6,1,5.2,1c3.1,0,5.8-1.1,7.7-2.3l0,0l0,0c2.4-1.5,3.6-2.3,4.4-3
			c0.7-0.7,1.4-1.5,2.5-3.6l2.4-4.3l3.3,3.6c10.2,11.2,18,17.7,23.2,21.5c2.6,1.9,4.5,3.1,5.8,4l1.7,1.1l0.8,0.7
			c0.3,0.4,1,0.8,1.2,2.7l-0.1,1l0,0.1l0,0.1c-0.3,0.9-0.9,1.5-1.3,1.8l-1.4,0.6l-1.8,0.1c-1.4,0-3.5-0.1-6.6-0.1
			c-7.2,0-19.6,0.5-37,3.7l-3.9,0.7l-0.2-4c-0.1-1.6-0.1-2.2-0.1-2.3c0-0.1-0.1-0.5-0.6-2.1l0,0l0,0c-1-3.2-3.6-7.4-9-9.3l0,0l0,0
			L563,384.4l1.2-3.3c7.9,2.8,11.9,9.1,13.4,13.8l-3.4,1.1l3.3-1.1c0.5,1.5,0.7,2.2,0.9,3.2c0.1,1,0.1,1.5,0.2,3l-3.5,0.2l-0.6-3.5
			c17.9-3.3,30.7-3.8,38.3-3.8c3.2,0,5.5,0.1,6.6,0.1l0.5,0l0.3,2.4l-0.8-2.2l0.5-0.1l0.3,2.4l-0.8-2.2l1,3.1l-1.9-2.7l0.8-0.4
			l1,3.1l-1.9-2.7l2,2.8l-3.3-1.1c0.3-0.9,0.9-1.4,1.3-1.7l2,2.8l-3.3-1.1l3.3,1.1l-3.4-1l3.3,0.9h-3.4l0.1-0.9l3.3,0.9h-3.4h3.2
			l-2.3,2.3c-0.1-0.2-0.8-0.5-0.9-2.3h3.2l-2.3,2.3l1.1-1.2l-1,1.3l-0.1-0.1l1.1-1.2l-1,1.3c0,0-1.2-0.8-2.8-1.8
			c-4.9-3.2-14.8-10.2-29.1-25.8l2.6-2.4l3.1,1.7c-1.3,2.3-2.4,4-4,5.4c-1.5,1.4-3.1,2.3-5.4,3.7l-1.9-3l1.9,3
			c-2.8,1.8-6.8,3.4-11.5,3.4c-2.4,0-5-0.4-7.7-1.4l0,0h0c-2.1-0.8-3.2-1.3-4.5-2c-1.3-0.6-2.7-1.4-5.9-2.8l0,0
			c-3.5-1.6-10.8-4.3-14.1-5.5l0,0l0,0c-5.3-2-9.7-3.2-11.5-3.1l-0.5,0l-0.1,0l-0.2-0.9l0.6,0.7l-0.4,0.2l-0.2-0.9l0.6,0.7l-1.1-1.3
			l1.6,0.5l-0.5,0.8l-1.1-1.3l1.6,0.5l0,0.1l0,0.1l-1.5-0.6h1.6l-0.1,0.6l-1.5-0.6h1.6h-1.2l1.1-0.5l0.1,0.5h-1.2l1.1-0.5l0.1,0.2
			c0.4,0.5,1.7,1.5,3.6,2.5c1.9,1,4.5,2.1,7.4,3.2l-1.2,3.3l1.1-3.3c3.4,1.2,10.8,3.8,14.4,4.8l0,0l0,0c3.3,1,4.9,1.3,6.3,1.6
			c1.4,0.3,2.7,0.7,4.8,1.5L563,384.4l1.2-3.3L563,384.4"/>
		<path id="path58" fill="#31997E" d="M483.9,437.9c0-4.2-0.4-4.1-0.9-11.1c-0.3-4.1-0.4-11.8-0.4-15.4c0-9.2,0.7-15.5,3.6-15.4
			c3-0.1,4.2,6.1,4.2,15.3c0,3.6-0.1,11.4-0.3,15.4c-0.5,7.1-0.9,7-0.9,11.1c0,7.2,3.7,12,7,14.6c3.5,2.7,3.8,3.2,8,4.2
			c-14.9,25.9-16.5,36.1-17.2,36.1c-0.7,0-2.6-11.3-16.3-37c3.4-1.1,3.2-1,6.1-3.3C480.2,449.9,483.9,445,483.9,437.9"/>
		<path id="path60" fill="#31997E" d="M483.9,437.9h-3.5c0-2-0.1-2.7-0.2-4.1c-0.2-1.3-0.4-3.2-0.7-6.8l0,0v0
			c-0.3-4.3-0.4-12-0.4-15.7c0-4.6,0.1-8.6,0.7-11.8c0.3-1.6,0.7-3,1.6-4.4c0.8-1.3,2.6-2.8,4.7-2.8l0.2,0l-0.1,3.5l-0.1-3.5l0.2,0
			c2.1,0,3.9,1.3,4.7,2.6c1.4,2,1.9,4.2,2.3,6.9c0.4,2.7,0.6,5.8,0.6,9.4c0,3.6-0.1,11.4-0.3,15.7v0l0,0c-0.3,3.6-0.5,5.4-0.6,6.8
			c-0.1,1.3-0.2,2.1-0.2,4.1c0,5.9,3,9.7,5.7,11.8h0c1.8,1.4,2.7,2.1,3.3,2.5c0.6,0.3,1.3,0.6,3.3,1.1l4.6,1.1l-2.4,4.1
			c-7.4,12.8-11.4,21.7-13.7,27.3c-1.1,2.8-1.8,4.8-2.3,6.2l-0.6,1.7l-0.5,1l-0.8,0.8c-0.4,0.3-1.2,0.8-2.3,0.8
			c-1.4,0-2.1-0.7-2.5-1l-0.9-1.3c-0.4-1-0.7-1.9-1.3-3.6c-1.7-5-5.5-15.6-14.7-32.9l-2-3.8l4.1-1.3c1.7-0.5,2.3-0.7,2.6-0.9
			c0.3-0.2,0.9-0.6,2.5-1.8l0,0c2.7-2.1,5.7-6,5.7-11.8L483.9,437.9l3.5,0c0,8.4-4.5,14.3-8.5,17.4l0,0l0,0
			c-1.4,1.1-2.2,1.7-3.3,2.4c-1.2,0.6-2.2,0.9-3.9,1.5l-1-3.4l3.1-1.6c6.9,13,10.8,22.4,13.2,28.5c1.2,3.1,1.9,5.4,2.4,6.8l0.5,1.4
			l0,0.1l-2.1,1l1.8-1.4l0.3,0.4l-2.1,1l1.8-1.4l-2.6,2l1.9-2.6l0.7,0.7l-2.6,2l1.9-2.6l-2,2.8v-3.4c1,0,1.7,0.4,2,0.7l-2,2.8v-3.4
			v3.4l-2.2-2.6c0.4-0.3,1.1-0.8,2.2-0.8v3.4l-2.2-2.6l1.8,2.2l-2.5-1.3l0.7-0.9l1.8,2.2l-2.5-1.3l0.1,0l-0.1,0l0,0l0.1,0l-0.1,0
			c0.1-0.2,0.5-1.4,1.1-3.1c1.9-5.2,6-15.7,15.9-32.9l3.1,1.8l-0.8,3.4c-2.2-0.5-3.7-1-5.2-1.8c-1.5-0.8-2.5-1.7-4.1-3h0
			c-3.9-3.1-8.4-8.9-8.4-17.4c0-2.1,0.1-3.4,0.3-4.8c0.2-1.4,0.4-3.1,0.6-6.6v0c0.3-3.8,0.3-11.6,0.3-15.2c0-4.4-0.3-8.1-0.9-10.3
			c-0.3-1.1-0.6-1.8-0.7-1.9v0l1-1v1.4l-1-0.4l1-1v1.4v-1l0,1h0v-1l0,1l-0.1,0l-0.1,0h0v-1.7l0.9,1.4l-0.9,0.3v-1.7l0.9,1.4
			l-0.5-0.8l0.8,0.6l-0.3,0.2l-0.5-0.8l0.8,0.6c-0.1,0-0.7,1.5-0.9,3.8c-0.3,2.2-0.4,5.2-0.4,8.6c0,3.5,0.1,11.3,0.4,15.2v0
			c0.3,3.5,0.5,5.1,0.6,6.5c0.2,1.4,0.3,2.7,0.3,4.9H483.9"/>
		<path id="path62" fill="#31997E" d="M555.2,284.4c-4.2-0.2-10.2,1.1-14.8,6.5c-2.8,3.3-2.3,3.5-6.5,9.1c-2.3,3.3-7.3,9.3-9.6,12.1
			c-5.9,7-12.6,13.3-14.7,11.2c-2.5-1.5,1.5-6.8,6.5-14.5c1.9-3,6.3-9.5,8.7-12.7c4.3-5.7,4.6-5.4,6.9-8.9c3.8-6,3.4-12,2-16
			c-1.4-3.8-1.2-4.4-3.7-7.4c27.7-12.2,36.3-20.7,37-20.2c0.7,0.4-4.5,12.1-8.6,41.6C556.2,284.7,557.4,284.5,555.2,284.4"/>
		<path id="path64" fill="#31997E" d="M555.2,284.4l-0.2,3.5l-0.7,0c-3.4,0-7.7,1.1-11.2,5.3c-1.3,1.5-1.7,2.2-2.5,3.3
			c-0.8,1.2-1.8,2.7-3.9,5.6l-2.8-2.1l2.9,2c-2.5,3.5-7.4,9.5-9.8,12.3l0,0c-2.6,3.1-5.4,6.1-8.1,8.5c-1.3,1.2-2.6,2.2-3.9,2.9
			c-1.3,0.8-2.6,1.4-4.4,1.5c-1.1,0-2.5-0.4-3.5-1.3l2.4-2.6l-1.8,3.1c-1.6-0.8-2.7-3-2.5-4.5c0-1.4,0.4-2.5,0.9-3.6
			c1.4-3.2,4.1-6.9,7-11.4l0,0c2-3.1,6.3-9.5,8.9-12.9l2.8,2.1l-2.8-2.1c2.2-2.9,3.4-4.4,4.3-5.4c0.9-1.1,1.3-1.6,2.4-3.3l0,0
			c1.8-2.9,2.5-5.6,2.5-8.1c0-1.8-0.3-3.5-0.8-4.8c-0.7-2-1-3.1-1.3-3.8c-0.3-0.6-0.6-1.2-1.8-2.6l-3-3.6l4.3-1.9
			c13.3-5.9,22-10.8,27.6-14.3c2.8-1.7,4.8-3.1,6.2-4.1l1.8-1.2l0.9-0.5c0.4-0.1,0.7-0.4,1.8-0.4l2.1,0.7l-2,2.9l1.8-3
			c1,0.6,1.4,1.5,1.6,2l0.2,1.1c0,1-0.2,1.3-0.3,2c-0.5,2.1-1.8,5.9-3.3,12.4c-1.5,6.5-3.4,15.5-5.1,27.5l-0.5,3.9l-3.8-0.9
			l-1.6-0.5l-0.7-0.3l0.2-0.3l-0.2,0.3l0,0l0.2-0.3l-0.2,0.3l0.8-1.7l-0.3,1.8l-0.5-0.2l0.8-1.7l-0.3,1.8l-0.7,0h0l0,0L555.2,284.4
			l0.1-3.5l1.6,0.1l1.2,0.3l0.5,0.3l0,0l0,0l0.5,0.1l-0.8,3.4l-3.5-0.5c1.9-14,4.1-24.1,5.9-30.9c0.9-3.4,1.6-6,2.1-7.8
			c0.3-0.9,0.5-1.6,0.6-2.1l0.1-0.5l0,0l2,0.3h-2l0-0.3l2,0.3h-2h3.1l-2.9,0.9l-0.1-0.9h3.1l-2.9,0.9l3.3-1l-1.8,2.9
			c-1-0.6-1.3-1.5-1.5-1.9l3.3-1l-1.8,2.9l-0.1-0.1l-0.1-0.1l1.9-2.7v3.4l-1.9-0.6l1.9-2.7v3.4v-2.7l1.2,2.5c-0.1,0-0.2,0.2-1.2,0.2
			v-2.7l1.2,2.5l0,0l0,0h0l0,0l0,0c-0.3,0.1-1.4,0.9-3,2c-5,3.4-15.2,9.9-33.6,18.1l-1.4-3.2l2.7-2.2c1.3,1.6,2.2,2.9,2.8,4.2
			c0.6,1.4,0.9,2.4,1.5,4.3c0.7,2,1.2,4.5,1.2,7.2c0,3.7-1,7.9-3.6,11.9l0,0c-1.2,1.9-2,2.9-2.9,4c-0.9,1.1-2,2.3-4.1,5.1l0,0l0,0
			c-2.3,3-6.7,9.5-8.5,12.4l0,0c-2,3.1-3.8,5.8-5.1,7.8c-0.6,1-1.1,1.9-1.4,2.6l-0.3,0.7l0,0.1l-0.4-0.1h0.4v0.1l-0.4-0.1h0.4h-1.9
			l0.9-1.6l1,1.6h-1.9l0.9-1.6l0.4,0.2l0.3,0.3l-1.4,1.4v-2l1.4,0.6l-1.4,1.4v-2v0.8l-0.2-0.8l0.2,0v0.8l-0.2-0.8
			c0.1,0.1,2.2-1.1,4.2-3c2.1-1.9,4.6-4.6,6.9-7.4l0,0c2.3-2.7,7.3-8.8,9.4-11.9l0,0l0,0c2-2.8,2.9-4.1,3.7-5.3c0.8-1.2,1.5-2.3,3-4
			c5.1-6,11.7-7.8,16.6-7.8l1,0L555.2,284.4l0.1-3.5L555.2,284.4"/>
		<path id="path66" fill="#31997E" d="M448,297.3c2.6,3,7.4,9.2,9.6,12.1c5.5,7.3,7.5,11.6,5.1,13.4c-2.2,1.9-7.1-3.7-12.9-10.7
			c-2.4-2.8-7.3-8.8-9.7-12.1c-4.1-5.7-3.8-5.9-6.5-9.1c-4.5-5.4-10.6-6.7-14.7-6.5c-2.4,0.1-1.3-0.3-3.6,0.4
			c-3.1-30.2-8-40.7-7.3-41.2c0.7-0.5,8.4,6.1,34.8,18.8c-3.5,3.7-4,5.8-5.3,10.7c-1.1,4.1-1.2,10.2,3.1,15.9
			C443,292.3,443.4,292,448,297.3"/>
		<path id="path68" fill="#31997E" d="M448,297.3l2.7-2.3c2.7,3.2,7.5,9.3,9.8,12.4l-2.8,2.1l2.8-2.1c2,2.7,3.6,5,4.8,7.2
			c1.1,2.1,2,4,2,6.2c0.1,1.7-0.8,3.8-2.4,4.9l-2.1-2.8l2.3,2.7c-0.9,0.8-2.2,1.3-3.3,1.2c-1.8,0-3-0.7-4.2-1.5
			c-3.3-2.3-6.6-6.3-10.4-10.9l2.7-2.2l-2.7,2.3c-2.5-2.9-7.3-8.9-9.8-12.3l0,0c-2.1-2.9-3.1-4.5-3.9-5.6c-0.7-1.1-1.2-1.8-2.5-3.3
			l0,0c-3.5-4.1-7.9-5.3-11.2-5.3l-0.7,0h0h0l-0.8,0l-0.9,0l-0.3,0v-1.6l0.2,1.5l-0.2,0v-1.6l0.2,1.5l-0.1-0.7l0.1,0.6l-0.1,0
			l-0.1-0.7l0.1,0.6l-1.1,0.3l-4.1,1.2l-0.4-4.2c-1.4-14-3.2-23.7-4.7-30.1c-0.7-3.2-1.4-5.5-1.8-7.2l-0.6-2.1
			c-0.1-0.6-0.3-1-0.3-1.9l0.2-1.1l1.3-1.9l0,0l0,0c0.9-0.7,1.7-0.8,2.3-0.8c0.9,0,1.2,0.2,1.6,0.3c1.1,0.5,1.9,1,3.4,1.9
			c4.4,2.7,13.5,8.4,31.2,16.9l4.3,2.1l-3.3,3.5c-1.6,1.7-2.3,2.7-2.8,3.9c-0.6,1.2-1,2.8-1.7,5.2l-3.4-0.9l3.4,0.9
			c-0.3,1.1-0.5,2.5-0.5,3.9c0,2.8,0.7,5.9,3,9l0,0l0,0c1.2,1.6,1.7,2.1,2.6,3.1c1,1,2.3,2.3,4.7,5.1l0,0L448,297.3l-2.7,2.3
			c-2.3-2.6-3.4-3.7-4.4-4.8c-1-1-1.9-2-3.3-3.8l0,0c-3.3-4.4-4.5-9.2-4.5-13.2c0-2.1,0.3-4.1,0.7-5.7l0,0l0,0
			c0.7-2.4,1.2-4.3,2.1-6.3c0.9-2,2.2-3.8,4.1-5.8l2.6,2.4l-1.5,3.2c-12.8-6.2-21.3-10.9-26.7-14.1c-2.7-1.6-4.7-2.8-6-3.6l-1.4-0.8
			l-0.1-0.1l0,0l1-2.4v2.5l-1-0.2l1-2.4v2.5v-3.3l2,2.7l-2,0.7v-3.3l2,2.7l0,0l-2.1-2.7l3.3,0.9l-1.2,1.7l-2.1-2.7l3.3,0.9l-2.9-0.8
			h3l-0.1,0.8l-2.9-0.8h3h-2l2-0.2l0,0.2h-2l2-0.2l0,0c0,0.3,0.4,1.6,0.9,3.5c1.5,5.7,4.4,17.3,6.5,37.4l-3.5,0.4l-1-3.4l1.4-0.4
			l1.4-0.2l1.1,0l0.6,0l0.1,3.5l-0.2-3.5l1,0c4.9,0,11.6,1.8,16.6,7.8l0,0c1.4,1.7,2.2,2.8,2.9,4c0.8,1.2,1.6,2.5,3.7,5.3l0,0
			c2.3,3.1,7.2,9.2,9.5,11.9l0,0l0,0c2.5,3,4.8,5.7,6.7,7.6c0.9,0.9,1.7,1.6,2.3,2l0.5,0.3l0,0.1l0-0.1h0l0,0.1l0-0.1l-0.3,1.2v-1.3
			l0.3,0l-0.3,1.2v-1.3v1.9l-1.3-1.5l1.3-0.5v1.9l-1.3-1.5l0.1-0.1l0.1-0.1l0.7,0.9l-1-0.5l0.3-0.4l0.7,0.9l-1-0.5l0.9,0.4l-1-0.2
			l0.1-0.2l0.9,0.4l-1-0.2l0.2,0h-0.2l0,0l0.2,0h-0.2c0-0.1-0.2-1.2-1.1-2.9c-0.9-1.6-2.3-3.8-4.2-6.3l0,0l0,0
			c-2.1-2.8-6.9-9-9.4-11.9l0,0L448,297.3"/>
		<path id="path70" fill="#31997E" d="M408.1,379.5c4-1.4,3.8-1.8,10.3-4.6c3.7-1.6,10.9-4.4,14.3-5.6c8.6-3.1,15.2-4.2,16.1-1.4
			c1.1,2.8-4.6,5.6-13.2,8.7c-3.4,1.2-10.8,3.8-14.7,4.9c-6.8,2-6.9,1.5-10.8,3c-6.7,2.4-9.9,7.7-11.2,11.6
			c-1.3,3.7-1.4,4.5-1.3,8.2c-29.8-6.2-41-4.7-41.2-5.6c-0.3-0.8,8.3-5,29.2-26.6c2.3,3.7,2.5,3.4,6.4,5.8
			C395.6,380,401.5,382,408.1,379.5"/>
		<path id="path72" fill="#31997E" d="M408.1,379.5l-1.2-3.3c1.9-0.7,2.5-1,3.8-1.6c1.2-0.6,2.9-1.5,6.2-3l0,0
			c3.8-1.7,11.1-4.4,14.5-5.7l0,0c5.4-1.9,10-3.2,13.8-3.2c1.3,0,2.5,0.1,3.8,0.7c1.3,0.5,2.6,1.8,3.1,3.4l-3.4,1.1l3.3-1.3l0.4,2
			c0,2-1,3.4-2,4.4c-1.5,1.5-3.4,2.6-5.7,3.7c-2.3,1.1-5,2.2-8,3.3l-0.1,0l0,0c-3.5,1.3-10.8,3.8-14.9,5l-0.9-3.4l1,3.4
			c-3.5,1-5.3,1.4-6.7,1.7c-1.3,0.3-2,0.5-3.9,1.2l0,0l0,0c-5.5,1.9-8,6.1-9,9.4l0,0l0,0c-1.1,3.2-1.1,3.3-1.1,5.5l0,1.4l0.1,4.4
			l-4.3-0.9c-14.8-3.1-24.8-4.2-31.3-4.7c-3.2-0.3-5.5-0.3-7.1-0.4l-2-0.2l-1.2-0.3l-1.1-0.6c-0.4-0.3-1-1-1.3-1.9l3.4-0.9l-3.3,1.1
			l-0.2-1.2c0.1-1.4,0.6-2,0.8-2.4l1.3-1.3c1.5-1.2,4.2-3.1,8.8-7c4.6-3.9,10.9-9.7,19.3-18.3l3.1-3.2l2.4,3.8
			c1.1,1.8,1.5,2.2,1.9,2.5c0.4,0.3,1.4,0.9,3.4,2.2l-1.9,3l1.8-3c2,1.2,4.9,2.3,8,2.3c1.6,0,3.3-0.3,5.1-0.9l0,0l0,0L408.1,379.5
			l1.2,3.3c-2.6,1-5.1,1.4-7.5,1.4c-4.8,0-8.8-1.6-11.6-3.3l0,0l0,0c-1.8-1.2-2.9-1.7-4.2-2.7c-1.3-1.1-2.2-2.4-3.3-4.2l3-1.9
			l2.5,2.5c-10.4,10.7-17.8,17.2-22.7,21.2c-2.4,2-4.2,3.3-5.3,4.2l-1,0.8l0,0l-1.6-1.5l1.9,1.2l-0.3,0.4l-1.6-1.5l1.9,1.2l-2.7-1.7
			h3.2c0,1-0.3,1.5-0.5,1.7l-2.7-1.7h3.2h-3.4l3.2-1.1l0.2,1.1h-3.4l3.2-1.1l0,0.1l0,0.1l-3.3,0.9l2.1-2.7c0.4,0.3,0.9,0.9,1.2,1.8
			l-3.3,0.9l2.1-2.7l-1.7,2.2l0.6-2.7l1.1,0.5l-1.7,2.2l0.6-2.7l-0.1,0.3l0-0.3l0,0l-0.1,0.3l0-0.3c0.2,0,1.5,0.1,3.4,0.2
			c5.8,0.3,17.6,1.1,37.4,5.2l-0.7,3.4l-3.5,0.1l0-1.5c0-2.7,0.4-4.8,1.5-7.9l3.3,1.1l-3.4-1.1c1.5-4.7,5.4-11,13.4-13.9l1.2,3.3
			l-1.2-3.3c2-0.8,3.4-1.1,4.7-1.4c1.4-0.3,3-0.7,6.3-1.6l0,0l0,0c3.6-1,11-3.6,14.4-4.8h0c3.9-1.4,7.1-2.7,9.1-3.9
			c1-0.6,1.7-1.1,2-1.4l0.1-0.1l0.4,0.3l-0.4-0.2l0.1-0.1l0.4,0.3l-0.4-0.2l1.4,0.6h-1.5l0.1-0.6l1.4,0.6h-1.5h1.7l-1.6,0.6
			l-0.1-0.6h1.7l-1.6,0.6l0-0.1l0-0.1l1.3-0.4l-0.6,1.4l-0.7-0.9l1.3-0.4l-0.6,1.4l-0.2,0l-0.8-0.1c-2.1,0-6.4,1-11.4,2.8l0,0l0,0
			c-3.3,1.2-10.6,4-14.1,5.5h0c-3.2,1.4-4.6,2.2-5.9,2.8c-1.3,0.7-2.5,1.2-4.6,2L408.1,379.5l1.2,3.3L408.1,379.5"/>
		<path id="path74" fill="#100F0D" d="M582.5,328.4c-5-19-17.1-36.5-29.7-36.1c-5,0.2-7.4,1.6-9.1,3.7c-2.8,3.4-3.4,5.3-6.5,9.7
			c-1.8,2.3-4.3,5.8-7.3,9.2c-3.9,4.7-18,21.5-25.7,15c-8.4-5.5,4.2-20.7,7.5-25.8c2.5-3.8,5-7.3,6.8-9.7c3.2-4.2,4.9-5.4,7.3-9.1
			c1.4-2.3,2.2-4.9,0.9-9.8c-3.8-14.2-21.9-19.9-40.1-19.4c-19.6,0.6-39.4,8.5-41.9,20.9l-0.2,2.2c-0.3,3.6,0.5,5.7,1.9,7.5l1.3,1.6
			c2,2.4,3.7,3.7,6.7,7.1c1.9,2.2,4.6,5.5,7.4,9.1c3.6,4.8,15.3,18.8,7.3,24.9c-7.7,6.5-20.9-9.8-24.7-14.4c-3-3.5-5.5-6.9-7.2-9.2
			c-3.1-4.4-3.8-6.3-6.6-9.7c-1.8-2.1-4.1-3.6-9.1-3.7c-12.7-0.4-24.8,17.1-29.8,36.1c-4.6,17.6-6.3,36.7,6.7,43.6
			c4.4,2.3,7.2,2.2,9.7,1.3c4.2-1.5,5.7-2.9,10.6-5c2.7-1.2,6.6-2.8,10.9-4.5c5.7-2,24.3-8.7,27.7,0.7c3.4,9.5-15,16.1-20.7,18.1
			c-4.3,1.6-8.4,2.8-11.2,3.7c-5.2,1.4-7.2,1.3-11.4,2.9c-2.5,1-4.7,2.6-6.6,7.2c-5.6,13.7,5.5,29.2,20.4,39.8
			c16,11.3,36.5,16.8,46,8.4c3.7-3.4,4.5-6,4.5-8.7c0-4.5-0.7-6.3-1.1-11.8c-0.1-2.9-0.4-7.2-0.4-11.7c0-6-0.2-25.8,9.9-25.8
			c10.1,0,10.1,19.7,10.1,25.8c0,4.6-0.2,8.9-0.4,11.8c-0.4,5.4-1.1,7.3-1.1,11.7c0,2.7,0.8,5.3,4.6,8.7c9.3,8.4,29.9,2.8,45.9-8.4
			c14.9-10.6,25.9-26.1,20.4-39.9c-1.9-4.5-4.1-6.3-6.6-7.1c-4.2-1.6-6.2-1.5-11.3-3c-2.8-0.8-6.9-2.1-11.2-3.7
			c-5.7-2-24.3-8.8-20.8-18.2c3.5-9.5,21.8-2.6,27.5-0.6c4.3,1.6,8.2,3.2,10.9,4.5c4.9,2.2,6.4,3.5,10.6,5.1c2.6,0.8,5.3,1,9.7-1.4
			C587.7,364.9,587.2,346,582.5,328.4 M567,243.6c-0.8-0.5-9.4,7.9-37,20.2c2.5,3,2.3,3.6,3.7,7.4c1.4,4,1.9,10-2,16
			c-2.3,3.5-2.6,3.2-6.9,8.9c-2.4,3.2-6.8,9.6-8.7,12.7c-5,7.7-9.1,13.1-6.5,14.5c2.2,2,8.8-4.2,14.7-11.2c2.3-2.8,7.3-8.8,9.6-12.1
			c4.2-5.7,3.7-5.9,6.5-9.1c4.6-5.4,10.6-6.7,14.8-6.5c2.2,0.1,1.1,0.3,3.2,0.8C562.4,255.7,567.7,244,567,243.6 M407.9,243.6
			c-0.7,0.5,4.3,11,7.3,41.2c2.3-0.7,1.2-0.3,3.6-0.4c4.2-0.2,10.2,1.1,14.7,6.5c2.7,3.3,2.3,3.5,6.5,9.1c2.4,3.3,7.3,9.3,9.7,12.1
			c5.8,7,10.7,12.7,12.9,10.7c2.4-1.8,0.4-6.1-5.1-13.4c-2.2-3-7-9.1-9.6-12.1c-4.6-5.3-5-5-7.5-8.4c-4.3-5.7-4.2-11.8-3.1-15.9
			c1.3-4.9,1.8-7,5.3-10.7C416.3,249.7,408.6,243.1,407.9,243.6 M385.6,372c-21,21.6-29.5,25.8-29.2,26.6c0.2,0.9,11.5-0.6,41.2,5.6
			c-0.1-3.6,0-4.5,1.3-8.2c1.3-4,4.5-9.2,11.2-11.6c3.9-1.4,4-1,10.8-3c3.9-1.1,11.2-3.6,14.7-4.9c8.6-3.1,14.3-6,13.2-8.7
			c-0.9-2.8-7.5-1.7-16.1,1.4c-3.4,1.2-10.6,4-14.3,5.6c-6.5,2.9-6.3,3.3-10.3,4.7c-6.6,2.5-12.5,0.5-16.1-1.6
			C388.1,375.4,387.9,375.7,385.6,372 M487,492.8c0.7,0,2.3-10.2,17.2-36.1c-4.2-1-4.5-1.5-8-4.2c-3.3-2.6-7-7.4-7-14.6
			c0-4.1,0.3-4.1,0.9-11.1c0.3-4,0.3-11.8,0.3-15.4c0-9.2-1.2-15.5-4.2-15.3c-3-0.1-3.6,6.2-3.6,15.4c0,3.6,0.1,11.4,0.4,15.4
			c0.5,7,0.9,6.9,0.9,11.1c0,7.1-3.8,12-7.1,14.6c-3,2.3-2.7,2.2-6.1,3.3C484.4,481.5,486.4,492.8,487,492.8 M588.9,369.9
			c-2.5,4.5-3.5,5-8.2,7.9c-3.6,2.3-9.4,4.1-16.1,1.7c-3.9-1.5-3.7-1.8-10.2-4.6c-3.7-1.7-10.9-4.4-14.4-5.6
			c-8.6-3.2-14.8-4.6-15.8-1.9c-1.1,2.8,4.6,6.2,13.2,9.3c3.4,1.2,10.7,3.8,14.6,4.9c6.8,2,6.8,1.5,10.8,3
			c6.7,2.4,9.9,7.6,11.2,11.6c1,3,0.8,2.2,0.9,5.3c29.8-5.5,45.2-3.1,45.5-3.8C620.9,396.6,609.8,392.8,588.9,369.9 M575.7,409.7
			c-1.4,13.8-11.1,27.1-23.9,36.3c-11.9,8.7-26.4,13.8-39.1,12.6c-9.5,14.5-25.1,55.2-25.9,55.2c-0.7,0-13.2-38.2-24.3-55.4
			c-13.2,2-28.7-3.2-41.4-12.5c-12-8.7-21.3-21.1-23.5-34.2c-17.1-4.4-62.4-6.2-62.6-7c-0.3-0.7,32.6-24.6,45.6-40.5
			c-4.7-11.2-3.7-25.8-0.3-39.2c4-16.5,13.9-31.6,26.9-37.8c-0.8-17.8-13.4-61.4-12.7-62c0.6-0.5,33.9,24.1,53.8,31.6
			c9.5-7.7,23.4-11.9,37.4-12.1c14.6-0.2,29.1,3.7,38.6,12.4c16.6-6.4,54.8-31.6,55.4-31.1c0.7,0.6-12.6,39.8-13.7,60.8
			c13.3,6,23.3,21.3,27.5,38.1c3.2,12.6,3.8,26.1-0.2,36.9c11,13.5,45.9,40.8,45.7,41.5C638.8,404.3,596.4,404.1,575.7,409.7"/>
		<path id="path76" fill="#F9E605" d="M573.9,856.2c-5.6,3.9-12.1,10.4-14.2,12.3c-7.6,6.6-54.9,70.6-63.9,86.4
			c-2.6,4.5-6.3,5.2-9.2,5.2c-2.9,0-6.5-0.7-9.1-5.2c-9.1-15.8-56.4-79.8-64-86.4c-2.1-1.8-8.6-8.4-14.2-12.3
			c-4.2-2.9-16.9-12-17.6-21c-0.4-5.1,0.3-8.4,1.4-11c1.1-2.6,3.8-6.8,5.5-10c3.6,3.7,42.4,42.3,44.6,40.1
			c2.2-2.2-35.2-49.1-38.8-52.5c0,0,3.4-10.5,6.5-15.7c3.1-5.2,9.2-10.1,9.4-10.2c2.1,3.5,36.5,58.3,39.6,57
			c3.1-1.3-28.3-62.8-29.5-65.4c0,0,11.8-11.1,16.1-13.4c4.3-2.4,9.2-3.7,13.1-4.9c0.9,3.9,19.6,71.6,22.5,71.6
			c2.8,0-6.2-72.5-6.6-75.7c1.6-0.6,5.7-1.1,10.4-2.4c3.2-0.9,6.8-2.3,10.7-2.7c3.8,0.4,7.6,1.8,10.7,2.7c4.7,1.3,8.8,1.8,10.4,2.4
			c-0.4,3.2-9.4,75.7-6.6,75.7c2.8,0,21.7-67.7,22.5-71.6c4,1.1,8.7,2.5,13,4.9c4.4,2.4,16.2,13.4,16.2,13.4
			c-1.3,2.6-32.6,64.1-29.5,65.4c3.1,1.3,37.5-53.5,39.6-57c0.2,0.1,6.3,5,9.4,10.2c3,5.2,6.6,15.7,6.6,15.7
			c-3.7,3.4-41,50.3-38.8,52.5c2.2,2.2,40.9-36.4,44.6-40.1c1.7,3.2,4.3,7.4,5.4,10c1.2,2.6,1.9,5.9,1.5,11
			C590.8,844.1,578.1,853.3,573.9,856.2"/>
		<path id="path78" fill="#F9E605" d="M573.9,856.2l1.8,2.7c-2.6,1.8-5.5,4.3-8.1,6.6c-2.6,2.3-4.6,4.4-5.9,5.4l0,0
			c-0.6,0.6-2.2,2.3-4.2,4.6c-7,8.3-19.9,25.2-31.9,41.7c-12,16.5-23.3,32.7-27.1,39.3l0,0c-1.6,2.8-3.7,4.6-5.9,5.6
			c-2.2,1-4.3,1.2-6,1.2h0h0c-1.7,0-3.8-0.2-6-1.2c-2.2-1-4.3-2.8-5.9-5.6l0,0l0,0c-4.4-7.6-18.5-27.6-32.4-46.4
			c-6.9-9.4-13.8-18.5-19.4-25.6c-2.8-3.6-5.3-6.7-7.3-9c-2-2.4-3.6-4.1-4.2-4.6l0,0l0,0c-1.1-1-3.2-3.1-5.8-5.4
			c-2.5-2.3-5.5-4.9-8.1-6.6l0,0l0,0c-2.1-1.5-6.5-4.6-10.5-8.6c-4-4-7.9-8.9-8.5-14.8c-0.1-1.1-0.1-2.1-0.1-3c0-3.9,0.7-7,1.8-9.5
			v0c1.3-3.1,4-7.2,5.6-10.2l2.1-4l3.1,3.2c1.7,1.8,11.8,11.8,21.9,21.4c5,4.8,10.1,9.4,14.1,12.9c2,1.7,3.7,3.1,5,4l1.5,1l0.2,0.1
			l-0.6,1.7v-1.8l0.6,0.1l-0.6,1.7v-1.8v2.9l-2-2l2-0.9v2.9l-2-2l2.3,2.3l-2.3-2.3l2,2H430l0.8-2l2,2H430h1.4l-1.4,0.4l0-0.4h1.4
			l-1.4,0.4c0-0.2-0.7-1.6-1.8-3.3c-3.7-6-12.2-17.3-20-27.2c-3.9-5-7.6-9.7-10.6-13.3c-1.5-1.8-2.8-3.3-3.7-4.5
			c-1-1.1-1.7-2-1.9-2.1l-1.5-1.4l0.6-2c0.1-0.1,3.4-10.5,6.8-16.3l0,0l0,0c3.6-5.9,9.9-10.8,10.1-11l2.9-2.3l1.9,3.2
			c1,1.7,9.9,15.9,19,29.7c4.6,6.9,9.2,13.7,12.8,18.7c1.8,2.5,3.4,4.6,4.6,5.9l1.3,1.4l0.1,0.1l0,0l-1.2,1.9v-2.2
			c0.9,0,1.1,0.3,1.2,0.3l-1.2,1.9v-2.2v2.9l-1.2-2.7l1.2-0.2v2.9l-1.2-2.7l0,0l1.1,2.7l-2.7-1c0.1-0.4,0.7-1.3,1.6-1.7l1.1,2.7
			l-2.7-1l2,0.7h-2.1l0.1-0.7l2,0.7h-2.1h0.2l-0.2,0v0h0.2l-0.2,0c0-0.3-0.5-2-1.3-4.1c-2.8-7.6-9.7-22-15.8-34.6
			c-6.2-12.7-11.7-23.6-12.3-24.7l-1-2.1l1.7-1.6c0,0,3-2.8,6.5-5.9c3.6-3.1,7.5-6.5,10.3-8l0,0c4.8-2.6,9.9-4,13.8-5.1l3.3-0.9
			l0.7,3.4c0.2,0.7,1.5,5.8,3.4,12.7c2.9,10.3,7.1,25,10.8,37.1c1.9,6,3.6,11.4,5,15.2c0.7,1.9,1.3,3.4,1.7,4.3l0.4,0.8l-1.2,0.9
			l1-1.1l0.2,0.3l-1.2,0.9l1-1.1l-1.9,2.2v-2.9c1.2,0,1.7,0.5,1.9,0.7l-1.9,2.2v-2.9v3l-2.2-2.2c0.4-0.4,1.2-0.9,2.2-0.9v3l-2.2-2.2
			l1.7,1.7l-2.3-0.6l0.7-1l1.7,1.7l-2.3-0.6l0,0l0,0l0,0l0,0l0,0c0-0.2,0.1-1.1,0.1-2.3c0-7-1.7-24.4-3.4-40.2
			c-1.7-15.8-3.5-30.2-3.7-31.4l-0.4-2.6l2.4-0.9c1.3-0.5,2.7-0.7,4.5-1.1c1.8-0.4,3.9-0.8,6.1-1.4h0c2.9-0.8,6.8-2.4,11.3-2.8
			l0.3,0l0.3,0c4.5,0.4,8.4,2,11.3,2.8l0,0c2.2,0.6,4.3,1,6.1,1.4c1.8,0.4,3.2,0.6,4.5,1.1l2.4,0.9l-0.3,2.5
			c-0.2,1.4-1.9,15.7-3.7,31.5c-1.7,15.8-3.4,33.2-3.4,40.2c0,1.1,0,1.9,0.1,2.2l0,0.1l-1.9,0.4l1.6-1l0.3,0.6l-1.9,0.4l1.6-1
			l-2.5,1.5l1.7-2.3l0.8,0.8l-2.5,1.5l1.7-2.3l-1.8,2.5v-3.1l1.8,0.6l-1.8,2.5v-3.1v2.8l-2.1-1.9c0.2-0.1,0.5-0.7,2.1-0.8v2.8
			l-2.1-1.9l0,0l-0.1,0h0l0,0l-0.1,0c0.3-0.5,1.1-2.2,1.9-4.5c3-8,7.7-23.7,11.8-37.7c2-7,3.9-13.6,5.3-18.6c1.4-5,2.3-8.6,2.5-9.2
			l0.7-3.4l3.3,0.9c3.9,1.1,9,2.5,13.7,5.2l-1.6,2.8l1.5-2.9c2.8,1.6,6.7,4.9,10.3,8c3.6,3.1,6.5,5.9,6.5,5.9l1.8,1.7l-1.1,2.2
			c-0.6,1.2-8.1,15.8-15.3,30.9c-3.6,7.5-7.2,15.2-9.9,21.3c-1.3,3.1-2.4,5.7-3.2,7.8c-0.4,1-0.7,1.9-0.8,2.5l-0.2,0.7l0,0.2l-0.2,0
			h0.2l0,0l-0.2,0h0.2h-2.1l2-0.7l0.1,0.7h-2.1l2-0.7l-2.8,1l1.1-2.7c0.9,0.4,1.5,1.2,1.6,1.7l-2.8,1l1.1-2.7l0,0l-1.1,2.7v-2.9
			l1.1,0.2l-1.1,2.7v-2.9v2.3l-1.2-2l1.2-0.3v2.3l-1.2-2l0.1,0.2l-0.2-0.2l0,0l0.1,0.2l-0.2-0.2c0.2-0.1,1.4-1.3,2.7-3
			c9.7-12,33.5-50,35.2-52.7l1.7-2.7l2.8,1.6l0.4,0.3c1.1,0.9,6.7,5.4,10.1,11l0,0l0,0c3.3,5.7,6.8,16.2,6.8,16.3l0.7,2l-1.5,1.4
			c-0.2,0.2-1.2,1.3-2.4,2.7c-4.5,5.3-13.6,16.6-21.4,27c-3.9,5.2-7.6,10.2-10.2,14.1c-1.3,1.9-2.4,3.6-3,4.8l-0.7,1.4l-0.1,0.2
			l-1.5-0.4h1.5l0,0.4l-1.5-0.4h1.5h-2.9l2-2l0.9,2h-2.9l2-2l-2,2v-2.9l2,0.8l-2,2v-2.9v1.8l-0.6-1.7l0.6-0.1v1.8l-0.6-1.7
			c0,0,1.2-0.7,2.6-1.7c5-3.8,14.4-12.5,22.8-20.6c8.4-8,15.8-15.5,17.3-17l3.1-3.2l2.1,4c1.6,3.1,4.2,7.2,5.5,10.2l-3,1.3l2.9-1.4
			c1.2,2.5,1.9,5.5,1.9,9.4c0,1,0,2.1-0.1,3.2v0c-0.5,5.9-4.5,10.8-8.4,14.8c-4,4-8.4,7.1-10.6,8.6l0,0l0,0L573.9,856.2l-1.8-2.7
			c2.1-1.4,6.1-4.3,9.7-7.9c3.6-3.5,6.4-7.7,6.5-10.7v0l0,0c0.1-1,0.1-1.9,0.1-2.7c0-3.1-0.5-5-1.3-6.7l0,0l0,0
			c-0.9-2.2-3.6-6.4-5.3-9.8l2.9-1.5l2.3,2.3c-1.8,1.9-11.9,11.9-22,21.5c-5.1,4.8-10.2,9.5-14.3,13.1c-2.1,1.8-3.9,3.3-5.4,4.4
			l-2.1,1.4c-0.7,0.3-1.3,0.7-2.7,0.8l-2.5-1c-0.9-1-1.1-2-1.1-2.6c0-1.3,0.4-1.9,0.7-2.6c1.2-2.7,3.9-6.7,7.5-11.7
			c5.4-7.5,12.6-16.9,18.8-24.7c3.1-3.9,6-7.4,8.2-10.1c2.3-2.7,3.8-4.5,4.8-5.4l2.2,2.4l-3.1,1c0,0-0.9-2.6-2.1-5.8
			c-1.2-3.2-2.9-7.1-4.2-9.3l0,0c-1.3-2.2-3.4-4.6-5.3-6.3c-0.9-0.9-1.7-1.6-2.3-2.1l-0.7-0.6l-0.2-0.1l0,0l1.7-2.2l-1.4,2.4
			l-0.2-0.2l1.7-2.2l-1.4,2.4l1.6-2.8l2.8,1.7c-1.1,1.8-10,16-19.2,29.9c-4.6,6.9-9.2,13.8-13,18.9c-1.9,2.6-3.6,4.7-5,6.3l-2,2
			l-1.1,0.8c-0.4,0.2-1,0.6-2.1,0.6l-1.4-0.3l0,0c-1.1-0.5-1.7-1.4-1.9-2.1l-0.3-1.5c0.1-1.8,0.6-3.3,1.4-5.6
			c2.9-7.8,9.7-22.3,16-35.3c6.3-13,12.1-24.3,12.7-25.4l2.9,1.5l-2.2,2.4c0,0-2.9-2.7-6.4-5.8c-3.4-3-7.6-6.4-9.1-7.2l0,0l0,0
			c-3.9-2.2-8.4-3.4-12.3-4.6l0.9-3.1l3.2,0.7c-0.3,1.2-1.6,6.1-3.5,13c-2.9,10.4-7.1,25.1-10.9,37.2c-1.9,6.1-3.7,11.5-5.1,15.5
			c-0.7,2-1.4,3.6-2,4.9l-1,1.7l-0.8,0.9c-0.4,0.3-1,0.9-2.3,0.9c-1,0-2-0.5-2.4-1c-0.8-0.9-0.9-1.4-1-1.8c-0.3-1.3-0.3-2.4-0.3-4
			c0-7.7,1.7-25,3.5-40.9c1.7-15.9,3.5-30.2,3.7-31.6l3.2,0.4l-1.2,3c-0.2-0.1-1.7-0.4-3.5-0.8c-1.8-0.4-4.1-0.8-6.6-1.5h0
			c-3.4-1-6.9-2.3-10.2-2.6l0.3-3.2l0.3,3.2c-3.3,0.3-6.7,1.6-10.2,2.6l0,0c-2.5,0.7-4.8,1.1-6.6,1.5c-1.8,0.3-3.3,0.7-3.5,0.8
			l-1.1-3l3.2-0.4c0.2,1.5,2,15.8,3.7,31.6c1.7,15.9,3.4,33.1,3.4,40.9c0,1.2,0,2.2-0.2,3.1l-0.4,1.5l-0.8,1.2c-0.4,0.5-1.4,1-2.4,1
			c-1.8-0.1-2.3-0.9-2.7-1.2l-1.4-2.2c-1.4-3-3.3-8.4-5.5-15.2c-3.3-10.2-7.1-23.4-10.3-34.3c-3.1-11-5.5-19.6-5.8-21.2l3.2-0.7
			l0.9,3.1c-4,1.1-8.5,2.4-12.4,4.6l0,0l0,0c-1.5,0.8-5.7,4.2-9.1,7.2c-3.5,3-6.4,5.8-6.4,5.8l-2.2-2.4l2.9-1.4
			c0.5,1.1,8,15.8,15.3,30.9c3.7,7.6,7.3,15.3,10,21.5c1.4,3.1,2.5,5.9,3.3,8.2c0.8,2.3,1.4,3.8,1.4,5.6l-0.3,1.5
			c-0.2,0.6-0.8,1.6-1.9,2v0l-1.4,0.3c-1.1,0-1.6-0.4-2.1-0.6c-1.5-1-2.5-2.2-4-4c-5.1-6.2-13.6-18.8-21.1-30.4
			c-7.6-11.6-14.1-22.1-15-23.6l2.8-1.7l2,2.5c0,0-6,4.9-8.6,9.3l0,0c-1.3,2.2-3,6.1-4.2,9.3c-1.2,3.2-2,5.8-2.1,5.8l-3.1-1l2.2-2.4
			c0.7,0.7,1.6,1.7,2.9,3.3c4.6,5.5,13.7,16.8,21.7,27.3c4,5.3,7.7,10.3,10.4,14.3c1.4,2,2.5,3.8,3.3,5.3l1,2.1
			c0.3,0.7,0.5,1.2,0.6,2.4c0,0.6-0.1,1.6-1,2.6l0,0l0,0l-2.6,1c-1.4-0.1-2-0.5-2.7-0.8c-2.4-1.4-5.8-4.1-10-7.9
			c-12.6-11.1-31.4-29.9-34-32.5l2.3-2.3l2.9,1.5c-1.8,3.4-4.4,7.6-5.4,9.8l0,0c-0.7,1.7-1.3,3.7-1.3,6.9c0,0.8,0,1.6,0.1,2.5
			c0.2,3,3,7.2,6.6,10.7c3.6,3.5,7.6,6.5,9.7,7.9l0,0c3,2.1,6.1,4.8,8.8,7.2c2.6,2.4,4.8,4.5,5.8,5.4l-2.2,2.4l2.1-2.4
			c1.2,1.1,2.8,2.8,4.9,5.3c7.2,8.6,20.1,25.5,32.2,42.1c12.1,16.6,23.4,32.7,27.6,39.9l0,0l0,0c1,1.7,2,2.5,3,3
			c1,0.5,2.1,0.6,3.3,0.6l0,3.2l0-3.2c1.2,0,2.4-0.2,3.4-0.6c1-0.5,2-1.2,3-3l0,0c4.7-8.2,18.8-28.1,32.7-47
			c7-9.4,13.9-18.6,19.6-25.8c2.8-3.6,5.4-6.7,7.4-9.2c2.1-2.5,3.7-4.2,4.9-5.3l0,0c0.9-0.8,3.1-2.9,5.7-5.3
			c2.6-2.4,5.7-5.1,8.7-7.2l0,0L573.9,856.2"/>
		<path id="path80" fill="#F9E605" d="M453,938h-40.7c-0.4,0-3.9,0.4-4.7-0.9c-1.3-1.9,0.3-5.5,0.3-5.5l13.8-36
			C424.9,899.9,449.1,932.7,453,938"/>
		<path id="path82" fill="#F9E605" d="M453,938v3.2h-40.7v-0.1l0,0.1h0v-0.1l0,0.1l-1.5,0.1c-0.7,0-1.6,0-2.6-0.3
			c-0.9-0.3-2.3-0.6-3.4-2.2l2.8-1.7l-2.7,1.8c-0.9-1.3-1.1-2.7-1.1-3.8c0-2.7,1-4.7,1.1-4.9l3,1.3l-3-1.2l15.9-41.5l3.5,4.7
			c3.2,4.4,27.4,37.2,31.4,42.4l3.9,5.2H453L453,938l-2.6,1.9c-4-5.3-28.2-38.1-31.4-42.4l2.6-1.9l3,1.2l-13.8,36.1l0,0.1l-0.1,0.2
			l-0.5,2.2l0,0.3l-0.6,0.1l0.5-0.3l0.1,0.2l-0.6,0.1l0.5-0.3l0,0.1l0,0.1l-1.6,1l0.9-1.6l0.7,0.7l-1.6,1l0.9-1.6l-0.4,0.7l0.3-0.7
			l0.1,0l-0.4,0.7l0.3-0.7l0.4,0.1l0.9,0l0.8,0l0.7,0H453L453,938l-2.6,1.9L453,938"/>
		<path id="path84" fill="#F9E605" d="M565.2,931.6c0,0,1.5,3.7,0.3,5.5c-0.9,1.3-4.4,0.9-4.8,0.9h-40.7c3.9-5.3,28.2-38,31.4-42.4
			L565.2,931.6"/>
		<path id="path86" fill="#F9E605" d="M565.2,931.6l3-1.3c0.1,0.2,1,2.2,1.1,4.9c0,1.1-0.2,2.3-1,3.6l0,0l0,0
			c-1.1,1.5-2.4,1.9-3.4,2.1c-1,0.2-1.9,0.3-2.6,0.3l-1.2,0l-0.4,0l0-0.3v0.3h0l0-0.3v0.3h-47.2l3.9-5.2c3.9-5.2,28.2-38,31.4-42.4
			l3.5-4.8l15.9,41.5L565.2,931.6l3-1.3L565.2,931.6l-3,1.2l-13.8-36l3-1.2l2.6,1.9c-3.2,4.4-27.4,37.1-31.4,42.4l-2.6-1.9v-3.2
			h40.7l0.7,0l0.8,0l1.2-0.1l0.1,0l0.2,0.7l-0.4-0.6l0.2-0.1l0.2,0.7l-0.4-0.6l1,1.6l-1.5-1l0.5-0.5l1,1.6l-1.5-1l2.7,1.8l-2.7-1.8
			l0.4,0.3l-0.5-0.1l0.1-0.2l0.4,0.3l-0.5-0.1l0-0.3l-0.3-1.6l-0.2-0.6l-0.1-0.2l0,0l0-0.1L565.2,931.6"/>
		<path id="path88" fill="#F9E605" d="M305.8,852.8c-5.6,3.9-12.1,10.5-14.2,12.3c-7.6,6.6-54.9,70.6-64,86.5
			c-2.5,4.5-6.2,5.2-9.1,5.2c-2.9,0-6.6-0.7-9.1-5.2c-9.1-15.9-56.4-79.9-64-86.5c-2.1-1.8-8.6-8.4-14.2-12.3
			c-4.2-2.9-17-12-17.6-20.9c-0.4-5.1,0.3-8.4,1.5-11c1.1-2.6,3.8-6.8,5.5-10c3.6,3.7,42.4,42.4,44.6,40.1
			c2.2-2.2-35.2-49.1-38.8-52.6c0,0,3.5-10.5,6.6-15.6c3.1-5.2,9.2-10.1,9.3-10.2c2.2,3.5,36.5,58.2,39.6,57
			c3.1-1.3-28.2-62.8-29.5-65.4c0,0,11.8-11.1,16.1-13.5c4.3-2.4,9.1-3.7,13.1-4.8c0.9,3.9,19.7,71.6,22.5,71.6
			c2.8,0-6.2-72.5-6.6-75.7c1.6-0.6,5.7-1.1,10.3-2.4c3.2-0.9,6.9-2.4,10.8-2.7c3.8,0.4,7.5,1.8,10.8,2.7c4.6,1.3,8.8,1.8,10.3,2.4
			c-0.4,3.2-9.4,75.7-6.6,75.7c2.9,0,21.6-67.6,22.5-71.6c3.9,1.1,8.8,2.5,13.1,4.8c4.3,2.4,16.1,13.5,16.1,13.5
			c-1.2,2.6-32.6,64.1-29.5,65.4c3.1,1.3,37.5-53.4,39.6-57c0.2,0.1,6.3,5,9.4,10.2c3.1,5.1,6.5,15.6,6.5,15.6
			c-3.6,3.5-41,50.4-38.8,52.6c2.2,2.3,40.9-36.4,44.5-40.1c1.7,3.2,4.3,7.4,5.5,10c1.1,2.6,1.8,5.9,1.4,11
			C322.7,840.7,310,849.9,305.8,852.8"/>
		<path id="path90" fill="#F9E605" d="M305.8,852.8l1.9,2.7c-2.6,1.8-5.6,4.4-8.1,6.7c-2.6,2.3-4.7,4.4-5.8,5.4l0,0
			c-0.6,0.6-2.2,2.3-4.2,4.6c-7,8.3-19.9,25.2-31.9,41.7c-12,16.5-23.4,32.7-27.2,39.3l0,0c-1.6,2.8-3.7,4.6-5.9,5.6
			c-2.2,1-4.3,1.2-6,1.2h0h0c-1.7,0-3.8-0.2-6-1.2c-2.2-1-4.3-2.8-5.9-5.6l0,0c-4.4-7.6-18.5-27.7-32.4-46.4
			c-6.9-9.4-13.8-18.5-19.5-25.6c-2.8-3.6-5.3-6.7-7.3-9c-2-2.4-3.6-4.1-4.2-4.6l0,0c-1.2-1-3.3-3.1-5.8-5.4
			c-2.5-2.3-5.5-4.9-8.1-6.7l0,0c-2.2-1.5-6.5-4.6-10.6-8.6c-4-4-7.9-8.9-8.5-14.8v0c-0.1-1.1-0.1-2.1-0.1-3c0-4,0.7-7.1,1.9-9.6
			l3,1.3l-3-1.3c1.3-3.1,4-7.2,5.6-10.3l2.1-3.9l3.1,3.2c1.7,1.7,11.8,11.8,21.8,21.4c5,4.8,10.1,9.4,14.1,12.9c2,1.7,3.7,3.1,5,4
			l1.5,0.9l0.2,0.1l-0.6,1.7v-1.8l0.6,0.1l-0.6,1.7v-1.8v2.9l-2-2l2-0.9v2.9l-2-2l0,0l0,0l2,2h-2.8l0.9-2l2,2h-2.8h1.4l-1.3,0.4
			l0-0.4h1.4l-1.3,0.4c0-0.2-0.7-1.6-1.8-3.3c-3.7-6-12.2-17.3-20-27.2c-3.9-5-7.6-9.7-10.6-13.3c-1.5-1.8-2.8-3.3-3.7-4.5
			c-1-1.1-1.7-2-1.9-2.1l-1.5-1.4l0.6-2c0.1-0.1,3.4-10.5,6.9-16.3l2.8,1.7l-2.8-1.6c1.8-3,4.2-5.7,6.3-7.7c1-1,2-1.8,2.7-2.4
			l0.9-0.7l0.3-0.2l0.2-0.1l0.8-0.4l2.4-0.8l1.3,2.2c1,1.7,10,15.9,19.1,29.7c4.5,6.9,9.1,13.7,12.8,18.6c1.8,2.5,3.4,4.5,4.6,5.9
			l1.3,1.4l0.1,0.1l0,0l-1.2,1.9v-2.3c1,0,1.2,0.3,1.2,0.3l-1.2,1.9v-2.3v2.9l-1.2-2.7l1.2-0.2v2.9l-1.2-2.7l0,0l1.1,2.7l-2.7-1
			c0.1-0.4,0.7-1.3,1.6-1.7l1.1,2.7l-2.7-1l2,0.7h-2.1l0.1-0.7l2,0.7h-2.1h0.1l-0.1,0l0,0h0.1l-0.1,0c0-0.3-0.5-2-1.3-4.1
			c-2.8-7.6-9.6-22-15.8-34.6c-6.2-12.7-11.7-23.5-12.3-24.7l-1-2.1l1.7-1.6c0,0,3-2.8,6.5-5.9c3.6-3.1,7.5-6.5,10.3-8l0,0l0,0
			c4.7-2.6,9.8-4,13.8-5.1l3.3-0.9l0.8,3.3c0.4,1.7,5.3,19.7,10.5,37.1c2.6,8.7,5.2,17.2,7.4,23.6c1.1,3.2,2,5.8,2.8,7.5
			c0.4,0.9,0.7,1.5,0.8,1.8l0,0l-2.1,1.9v-2.8c1.6,0.1,1.9,0.8,2.1,0.8l-2.1,1.9v-2.8v3l-2.2-2.2c0.4-0.4,1.2-0.9,2.2-0.9v3
			l-2.2-2.2l1.7,1.7l-2.3-0.6l0.7-1.1l1.7,1.7l-2.3-0.6l0.1,0l-0.1,0v0l0.1,0l-0.1,0c0-0.2,0.1-1.1,0.1-2.3c0-7-1.7-24.4-3.4-40.1
			c-1.7-15.8-3.5-30.2-3.7-31.5l-0.3-2.6l2.5-0.9c1.3-0.4,2.7-0.7,4.5-1.1c1.8-0.4,3.9-0.8,6.1-1.4h0c3-0.8,6.8-2.4,11.4-2.8l0.3,0
			l0.3,0c4.5,0.4,8.3,2,11.3,2.8h0c2.2,0.6,4.3,1,6.1,1.4c1.8,0.4,3.2,0.6,4.5,1.1l2.4,0.9l-0.3,2.5c-0.2,1.4-1.9,15.7-3.7,31.5
			c-1.7,15.8-3.4,33.2-3.4,40.2c0,1.1,0,1.9,0.1,2.2l0,0.1l-1.9,0.4l1.6-1l0.3,0.6l-1.9,0.4l1.6-1l-2.5,1.5l1.7-2.3l0.8,0.8
			l-2.5,1.5l1.7-2.3l-1.8,2.5v-3.1l1.8,0.6l-1.8,2.5v-3.1v2.8l-2.1-1.9c0.2-0.1,0.5-0.7,2.1-0.8v2.8l-2.1-1.9l0,0l-0.1,0h0l0,0
			l-0.1,0c0.3-0.5,1.1-2.2,1.9-4.5c6-16,18.9-62.5,19.5-65.4l0.8-3.3l3.3,0.9c4,1.1,9,2.5,13.8,5.1l0,0c2.8,1.6,6.6,4.9,10.2,8
			c3.5,3.1,6.5,5.9,6.5,5.9l1.7,1.6l-1,2.1c-0.6,1.3-8,15.8-15.3,30.9c-3.6,7.5-7.2,15.2-9.9,21.3c-1.3,3.1-2.4,5.7-3.2,7.8
			c-0.4,1-0.7,1.9-0.8,2.5l-0.2,0.7l0,0.2l-0.1,0h0.1v0l-0.1,0h0.1h-2.1l2-0.7l0.2,0.7h-2.1l2-0.7l-2.7,1l1.1-2.7
			c0.9,0.4,1.5,1.2,1.6,1.7l-2.7,1l1.1-2.7l0,0l-1.1,2.7v-2.9l1.1,0.2l-1.1,2.7v-2.9v2.3l-1.2-2l1.2-0.3v2.3l-1.2-2l0.1,0.2
			l-0.2-0.2l0,0l0.1,0.2l-0.2-0.2c0.2-0.1,1.4-1.3,2.7-3c9.7-12,33.5-49.9,35.2-52.7l1.4-2.3l2.5,1l0.7,0.4l1.6,1.2
			c2.2,1.9,6.2,5.6,8.8,9.9l0,0c3.4,5.8,6.7,16.2,6.8,16.3l0.6,1.9l-1.5,1.4c-0.2,0.2-1.2,1.3-2.4,2.8c-4.5,5.3-13.5,16.6-21.4,27
			c-3.9,5.2-7.6,10.2-10.2,14.1c-1.3,1.9-2.4,3.6-3.1,4.8l-0.7,1.4l-0.1,0.2l-1.5-0.4h1.5l0,0.4l-1.5-0.4h1.5h-2.8l2-2l0.9,2h-2.8
			l2-2l0,0l0,0l-2.1,2v-2.9l2.1,0.9l-2.1,2v-2.9v1.8l-0.6-1.7l0.6-0.1v1.8l-0.6-1.7c0,0,1.2-0.7,2.6-1.7c5-3.8,14.4-12.6,22.8-20.6
			c8.4-8,15.8-15.5,17.3-17l3.1-3.1l2.1,3.9c1.7,3.1,4.2,7.2,5.6,10.2l0,0l0,0c1.1,2.5,1.8,5.6,1.8,9.6c0,0.9,0,1.9-0.1,2.9l0,0v0
			c-0.6,5.9-4.5,10.7-8.5,14.8c-4,4-8.4,7.1-10.6,8.6L305.8,852.8l1.9,2.7L305.8,852.8l-1.8-2.7c2-1.4,6.1-4.3,9.7-7.8
			c3.6-3.5,6.4-7.7,6.6-10.7l3.2,0.3l-3.2-0.2c0.1-0.9,0.1-1.7,0.1-2.4c0-3.3-0.6-5.4-1.3-7.1l3-1.3l-3,1.3c-1-2.3-3.6-6.5-5.4-9.9
			l2.9-1.5l2.3,2.3c-1.8,1.8-11.8,11.9-22,21.5c-5.1,4.8-10.2,9.5-14.3,13.1c-2.1,1.8-3.9,3.3-5.4,4.4l-2.1,1.4
			c-0.7,0.4-1.3,0.7-2.7,0.8c-0.6,0-1.8-0.2-2.6-1.1l2.3-2.3l-2.3,2.3c-1-1-1.1-2-1.1-2.6c0-1.3,0.4-1.8,0.7-2.6
			c1.2-2.7,3.9-6.7,7.5-11.7c5.4-7.5,12.6-16.9,18.8-24.7c3.1-3.9,6-7.4,8.2-10.1c2.3-2.7,3.8-4.5,4.7-5.4l2.2,2.3l-3.1,1
			c0,0-0.8-2.5-2.1-5.7c-1.2-3.2-2.8-7-4.1-9.2l0,0c-1.3-2.2-3.4-4.6-5.2-6.3c-0.9-0.9-1.7-1.6-2.3-2.1l-0.7-0.6l-0.1-0.1l0.7-0.9
			l-0.7,1l0,0l0.7-0.9l-0.7,1l1.7-2.5l-1.1,2.9l-0.6-0.3l1.7-2.5l-1.1,2.9l1.2-3l2.8,1.7c-1.1,1.8-10,16-19.2,29.9
			c-4.6,6.9-9.2,13.8-13,18.9c-1.9,2.6-3.6,4.7-4.9,6.3l-2,2l-1.1,0.8c-0.4,0.2-1,0.6-2.1,0.6l-1.4-0.3l0,0l0,0
			c-1.1-0.4-1.7-1.4-1.9-2l-0.3-1.5c0.1-1.8,0.6-3.3,1.4-5.6c2.9-7.8,9.7-22.3,16-35.3c6.3-12.9,12.1-24.3,12.6-25.3l2.9,1.4
			l-2.2,2.4c0,0-2.9-2.7-6.4-5.8c-3.4-3-7.5-6.4-9.1-7.2l0,0c-3.9-2.1-8.5-3.5-12.4-4.6l0.9-3.1l3.2,0.7c-0.3,1.2-1.6,6-3.5,13
			c-2.9,10.4-7.1,25.1-10.9,37.2c-1.9,6.1-3.7,11.5-5.1,15.5c-0.7,2-1.4,3.6-2,4.9l-1,1.7l-0.8,0.9c-0.4,0.3-1,0.9-2.3,0.9
			c-1,0-2-0.5-2.4-1c-0.8-0.9-0.9-1.4-1-1.8c-0.3-1.3-0.3-2.4-0.3-4c0-7.7,1.7-25,3.5-40.9c1.7-15.8,3.5-30.2,3.7-31.6l3.2,0.4
			l-1.1,3c-0.2-0.1-1.7-0.4-3.5-0.8c-1.8-0.4-4.1-0.8-6.5-1.5l0,0c-3.5-1-7-2.3-10.2-2.6l0.3-3.2l0.3,3.2c-3.3,0.3-6.7,1.6-10.3,2.6
			l0,0c-2.4,0.7-4.7,1.1-6.5,1.5c-1.8,0.4-3.3,0.7-3.6,0.8l-1.1-3l3.2-0.4c0.2,1.4,2,15.7,3.7,31.6c1.7,15.9,3.5,33.1,3.5,40.9
			c0,1.2,0,2.2-0.2,3.1l-0.4,1.5l-0.8,1.2c-0.4,0.5-1.4,1-2.4,1c-1.8-0.1-2.3-0.9-2.7-1.2l-1.4-2.2c-1.4-2.9-3.3-8.4-5.5-15.2
			c-3.3-10.2-7.1-23.4-10.3-34.3c-3.1-11-5.5-19.6-5.8-21.1l3.2-0.7l0.9,3.1c-4,1.1-8.5,2.4-12.4,4.6l0,0c-1.5,0.8-5.7,4.2-9.1,7.2
			c-3.5,3-6.4,5.8-6.4,5.8l-2.2-2.4l2.9-1.4c0.5,1.1,8,15.8,15.3,30.9c3.6,7.6,7.3,15.3,10,21.5c1.4,3.1,2.5,5.9,3.3,8.2
			c0.8,2.3,1.4,3.8,1.4,5.6l-0.3,1.5c-0.2,0.6-0.8,1.6-1.9,2l0,0l-1.4,0.3c-1.1,0-1.6-0.4-2.1-0.6c-1.5-1-2.5-2.1-4-3.9
			c-5-6.2-13.5-18.8-21.1-30.4c-7.6-11.6-14.1-22-15-23.6l2.8-1.7l1,3.1l-1-2.9l1.7,2.6l-0.7,0.3l-1-2.9l1.7,2.6l-0.9-1.3l0.9,1.3
			l-0.1,0l-0.9-1.3l0.9,1.3c-0.2,0.1-1.8,1.4-3.5,3.1c-1.7,1.7-3.7,4-4.9,6l0,0l0,0c-1.3,2.2-3,6.1-4.2,9.2
			c-1.2,3.2-2.1,5.7-2.1,5.7l-3.1-1l2.2-2.4c0.7,0.7,1.6,1.7,2.9,3.3c4.6,5.5,13.7,16.8,21.7,27.3c4,5.3,7.7,10.3,10.4,14.3
			c1.4,2,2.5,3.8,3.3,5.3l1,2.1c0.3,0.7,0.5,1.2,0.6,2.4c0,0.6-0.1,1.6-1,2.6l-2.3-2.3l2.3,2.3c-0.8,0.9-2,1.1-2.6,1.1
			c-1.4-0.1-2-0.5-2.7-0.8c-2.5-1.4-5.8-4.1-10-7.9c-12.6-11.1-31.4-29.9-33.9-32.5l2.3-2.3l2.9,1.5c-1.8,3.4-4.4,7.6-5.3,9.8l0,0
			l0,0c-0.7,1.7-1.3,3.7-1.3,6.9c0,0.8,0,1.6,0.1,2.5l0,0c0.1,3,2.9,7.2,6.6,10.7c3.6,3.5,7.7,6.5,9.7,7.8l0,0l0,0
			c3,2.1,6.1,4.8,8.8,7.2c2.6,2.4,4.8,4.5,5.7,5.3l0,0c1.2,1.1,2.8,2.8,4.9,5.3c7.2,8.6,20.1,25.5,32.2,42.1
			c12.1,16.6,23.4,32.7,27.6,39.9l0,0l0,0c1,1.7,2,2.5,3,2.9c1,0.5,2.2,0.6,3.4,0.6l0,3.2l0-3.2c1.2,0,2.3-0.2,3.3-0.6
			c1-0.5,2-1.2,3-2.9l0,0h0c4.8-8.3,18.8-28.1,32.8-47c7-9.4,13.9-18.6,19.6-25.8c2.8-3.6,5.4-6.7,7.4-9.2c2.1-2.5,3.7-4.2,4.9-5.3
			l0,0c0.9-0.8,3.1-2.9,5.8-5.3c2.6-2.4,5.7-5.1,8.8-7.2l0,0l0,0L305.8,852.8"/>
		<path id="path92" fill="#F9E605" d="M184.9,934.6h-40.7c-0.4,0-3.9,0.3-4.8-0.9c-1.2-1.9,0.3-5.5,0.3-5.5l13.8-36
			C156.8,896.5,181,929.3,184.9,934.6"/>
		<path id="path94" fill="#F9E605" d="M184.9,934.6v3.2h-40.7h0l-1.4,0c-0.7,0-1.6,0-2.6-0.2c-1-0.2-2.2-0.5-3.4-2l0-0.1l0-0.1
			c-0.8-1.3-1-2.6-1-3.7c0-2.7,1-4.7,1.1-4.9l3,1.3l-3-1.2l15.9-41.5l3.5,4.7c3.2,4.3,27.4,37.1,31.3,42.4l3.8,5.2h-6.4L184.9,934.6
			l-2.6,1.9c-3.9-5.3-28.1-38.1-31.3-42.3l2.6-1.9l3,1.2l-13.8,36l0,0.1l0,0l-0.5,2.3l0,0.3l-0.4,0.1l0.4-0.2l0.1,0.1l-0.4,0.1
			l0.4-0.2l-2.7,1.8l2.6-1.9l-1.4,1l0.8-1.5l0.6,0.6l-1.4,1l0.8-1.5h0l1.4,0.1l1.4,0h40.7L184.9,934.6l-2.6,1.9L184.9,934.6"/>
		<path id="path96" fill="#F9E605" d="M297.1,928.2c0,0,1.6,3.6,0.4,5.5c-0.8,1.2-4.4,0.9-4.7,0.9H252c3.9-5.3,28.1-38.1,31.3-42.4
			L297.1,928.2"/>
		<path id="path98" fill="#F9E605" d="M297.1,928.2l3-1.3c0.1,0.2,1.1,2.2,1.1,5c0,1.1-0.2,2.4-1,3.7l0,0l0,0
			c-1.2,1.6-2.5,1.9-3.5,2.1c-1,0.2-1.9,0.2-2.6,0.2l-1,0l-0.3,0l0-0.1v0.1h0l0-0.1v0.1h-47.2l3.8-5.2c3.9-5.3,28.1-38.1,31.3-42.4
			l3.5-4.7l15.9,41.5L297.1,928.2l3-1.3L297.1,928.2l-3,1.2l-13.8-36l3-1.2l2.6,1.9c-3.2,4.3-27.4,37.1-31.3,42.4l-2.6-1.9v-3.2
			h40.7l0.6,0l0.7,0l1.3-0.1l0.1,0l0.2,0.6l-0.3-0.5l0.1-0.1l0.2,0.6l-0.3-0.5l1,1.6l-1.6-1.1l0.6-0.6l1,1.6l-1.6-1.1l0,0l0.4,0.3
			l-0.5-0.1l0.1-0.2l0.4,0.3l-0.5-0.1l0-0.3l-0.3-1.5l-0.2-0.6l-0.1-0.2l0,0l0-0.1l0-0.1L297.1,928.2"/>
		<path id="path100" fill="#F9E605" d="M840.5,852.8c-5.6,3.9-12.2,10.5-14.3,12.3c-7.6,6.6-54.9,70.6-64,86.5
			c-2.6,4.5-6.3,5.2-9.1,5.2c-2.9,0-6.6-0.7-9.2-5.2c-9-15.9-56.4-79.9-63.9-86.5c-2.1-1.8-8.6-8.4-14.3-12.3
			c-4.2-2.9-16.9-12-17.6-20.9c-0.4-5.1,0.3-8.4,1.4-11c1.2-2.6,3.8-6.8,5.5-10c3.5,3.7,42.3,42.4,44.5,40.1
			c2.3-2.2-35.2-49.1-38.8-52.6c0,0,3.5-10.5,6.5-15.6c3-5.2,9.2-10.1,9.4-10.2c2.1,3.5,36.4,58.2,39.5,57
			c3.2-1.3-28.2-62.8-29.5-65.4c0,0,11.8-11.1,16.1-13.5c4.3-2.4,9.2-3.7,13.1-4.8c0.9,3.9,19.7,71.6,22.6,71.6
			c2.8,0-6.3-72.5-6.6-75.7c1.6-0.6,5.7-1.1,10.4-2.4c3.2-0.9,6.9-2.4,10.8-2.7c3.9,0.4,7.5,1.8,10.7,2.7c4.6,1.3,8.8,1.8,10.4,2.4
			c-0.4,3.2-9.4,75.7-6.6,75.7c2.8,0,21.6-67.6,22.5-71.6c3.9,1.1,8.7,2.5,13.1,4.8c4.3,2.4,16.1,13.5,16.1,13.5
			c-1.2,2.6-32.6,64.1-29.5,65.4c3.1,1.3,37.5-53.4,39.6-57c0.1,0.1,6.3,5,9.3,10.2c3.1,5.1,6.5,15.6,6.5,15.6
			c-3.6,3.5-41.1,50.4-38.8,52.6c2.2,2.3,41-36.4,44.5-40.1c1.7,3.2,4.3,7.4,5.5,10c1.2,2.6,1.9,5.9,1.5,11
			C857.4,840.7,844.7,849.9,840.5,852.8"/>
		<path id="path102" fill="#F9E605" d="M840.5,852.8l1.8,2.7c-2.6,1.8-5.6,4.4-8.1,6.7c-2.6,2.3-4.6,4.4-5.8,5.4l0,0
			c-0.6,0.6-2.2,2.3-4.2,4.6c-7,8.3-19.9,25.2-31.9,41.7c-12,16.5-23.4,32.7-27.2,39.3c-1.6,2.8-3.7,4.6-5.9,5.6
			c-2.2,1-4.3,1.2-5.9,1.2h0h0c-1.7,0-3.8-0.2-6-1.2c-2.2-1-4.4-2.8-5.9-5.6l0,0c-4.3-7.6-18.5-27.7-32.3-46.4
			c-6.9-9.4-13.8-18.5-19.4-25.6c-2.8-3.6-5.3-6.6-7.3-9c-2-2.4-3.6-4.1-4.2-4.6l2.1-2.4l-2.1,2.5c-1.2-1.1-3.3-3.1-5.9-5.4
			c-2.5-2.3-5.5-4.9-8.1-6.7l0,0c-2.2-1.5-6.5-4.6-10.6-8.6c-4-4-7.9-8.9-8.4-14.8l0,0c-0.1-1.1-0.1-2.1-0.1-3.1
			c0-3.9,0.7-7,1.8-9.5c1.4-3,3.9-7.1,5.7-10.3l2.1-3.9l3.1,3.2c1.6,1.7,11.7,11.8,21.8,21.3c5,4.8,10.1,9.4,14.1,12.9
			c2,1.7,3.7,3.1,5,4l1.5,0.9l0.2,0.1l-0.6,1.7v-1.8l0.6,0.1l-0.6,1.7v-1.8v2.9l-2.1-2l2.1-0.9v2.9l-2.1-2l0,0l0,0l2,2h-2.8l0.9-2
			l2,2h-2.8h1.3l-1.3,0.4l0-0.4h1.3l-1.3,0.4c0-0.2-0.7-1.6-1.8-3.3c-3.7-6-12.2-17.3-19.9-27.2c-3.9-5-7.6-9.7-10.6-13.2
			c-1.5-1.8-2.7-3.3-3.7-4.5c-1-1.1-1.7-2-1.9-2.1l-1.5-1.4l0.7-2c0.1-0.1,3.5-10.5,6.8-16.2l0,0c1.8-3,4.2-5.7,6.3-7.7
			c1-1,2-1.8,2.7-2.4l0.9-0.7l0.4-0.3l0.2-0.2l0.9-0.4l2.4-0.6l1.3,2.1c1,1.6,9.9,15.9,19,29.7c4.5,6.9,9.1,13.7,12.8,18.6
			c1.8,2.5,3.4,4.5,4.6,5.9l1.3,1.4l0.1,0.1v0l-1.2,1.9v-2.3c1,0,1.2,0.3,1.2,0.3l-1.2,1.9v-2.3v2.9l-1.2-2.7l1.2-0.2v2.9l-1.2-2.7
			l0,0l1.1,2.7l-2.7-1c0.1-0.4,0.7-1.3,1.6-1.7l1.1,2.7l-2.7-1l2,0.7h-2.1l0.1-0.7l2,0.7h-2.1h0.1l-0.1,0l0,0h0.1l-0.1,0
			c0-0.3-0.5-2-1.3-4.2c-5.7-15.3-27-57.2-28.1-59.2l-1.1-2.2l1.8-1.7c0,0,3-2.8,6.5-5.9c3.6-3.1,7.5-6.5,10.3-8l0,0l0,0
			c4.8-2.6,9.8-4,13.8-5.1l3.3-0.9l0.8,3.3c0.4,1.7,5.3,19.7,10.5,37c2.6,8.7,5.2,17.2,7.4,23.6c1.1,3.2,2,5.8,2.8,7.5
			c0.4,0.9,0.7,1.5,0.8,1.8l0.1,0.1l-1.2,0.9l1-1.1l0.2,0.3l-1.2,0.9l1-1.1l-1.9,2.2v-2.9c1.2,0,1.7,0.5,1.9,0.7l-1.9,2.2v-2.9v3
			l-2.2-2.2c0.4-0.4,1.2-0.9,2.2-0.9v3l-2.2-2.2l1.7,1.7l-2.4-0.7l0.7-1.1l1.7,1.7l-2.4-0.7l0.1,0l-0.2,0l0,0l0.1,0l-0.2,0
			c0-0.2,0.1-1,0.1-2.2c0-6.9-1.7-24.3-3.4-40.1c-1.8-15.9-3.5-30.2-3.7-31.6l-0.3-2.5l2.4-0.9c1.3-0.5,2.7-0.7,4.5-1.1
			c1.8-0.4,3.9-0.8,6.1-1.4c2.9-0.8,6.9-2.4,11.4-2.8l0.3,0l0.3,0c4.5,0.4,8.3,2,11.3,2.8h0c2.2,0.6,4.3,1,6.1,1.4
			c1.8,0.4,3.2,0.6,4.5,1.1l2.4,0.9l-0.3,2.6c-0.2,1.3-2,15.6-3.7,31.4c-1.7,15.7-3.4,33.1-3.4,40.2c0,1.1,0,1.9,0.1,2.2l0,0.1
			l-1.8,0.4l1.6-1l0.3,0.6l-1.8,0.4l1.6-1l-2.4,1.5l1.7-2.3l0.8,0.8l-2.4,1.5l1.7-2.3l-1.8,2.5v-3.1l1.8,0.6l-1.8,2.5v-3.1v2.8
			l-2.1-1.9c0.2-0.1,0.5-0.7,2.1-0.9v2.8l-2.1-1.9l0,0l-0.1,0l0,0l0,0l-0.1,0c0.3-0.5,1.1-2.2,1.9-4.5c6-16,18.9-62.5,19.6-65.4
			l0.8-3.3l3.3,0.9c3.9,1.1,9,2.5,13.7,5.1l0,0c2.8,1.6,6.6,4.9,10.2,8c3.5,3.1,6.5,5.9,6.5,5.9l1.7,1.6l-1,2.1
			c-0.7,1.4-8,15.8-15.3,30.9c-3.6,7.5-7.2,15.2-9.9,21.3c-1.3,3.1-2.4,5.7-3.2,7.8c-0.4,1-0.7,1.9-0.8,2.5l-0.2,0.7l0,0.2l-0.1,0
			h0.1v0l-0.1,0h0.1h-2.1l2-0.7l0.2,0.7h-2.1l2-0.7l-2.7,1l1.1-2.7c0.9,0.4,1.5,1.2,1.6,1.7l-2.7,1l1.1-2.7l-1.1,2.7v-2.9l1.1,0.2
			l-1.1,2.7v-2.9v2.3l-1.2-2.1c0.1,0,0.3-0.3,1.2-0.3v2.3l-1.2-2.1l0.1,0.2l-0.2-0.2l0,0l0.1,0.2l-0.2-0.2c0.2-0.1,1.4-1.3,2.7-3
			c9.7-12,33.5-49.9,35.2-52.7l1.6-2.5l2.7,1.3l0.5,0.3c0.5,0.4,2,1.6,4.1,3.6c2,2,4.4,4.6,6.1,7.5l-2.8,1.6l2.8-1.7
			c3.4,5.8,6.8,16.2,6.8,16.3l0.6,2l-1.5,1.4c-0.2,0.2-1.2,1.3-2.4,2.8c-4.5,5.3-13.6,16.6-21.4,27c-3.9,5.2-7.6,10.2-10.2,14.1
			c-1.3,1.9-2.4,3.6-3,4.8l-0.7,1.4l-0.1,0.3l-1.5-0.4h1.5l0,0.4l-1.5-0.4h1.5h-2.8l2-2l0.9,2h-2.8l2-2l0,0l0,0l-2.1,2v-2.9l2.1,0.9
			l-2.1,2v-2.9v1.8l-0.6-1.7l0.6-0.1v1.8l-0.6-1.7c0,0,1.2-0.7,2.6-1.7c5-3.8,14.4-12.6,22.8-20.6c8.4-8,15.8-15.5,17.2-17l3.1-3.2
			l2.1,3.9c1.6,3.1,4.2,7.2,5.6,10.3l-3,1.3l2.9-1.3c1.1,2.5,1.9,5.6,1.9,9.6c0,1,0,2-0.1,3.1c-0.6,5.9-4.5,10.7-8.4,14.8
			c-4,4-8.4,7.1-10.6,8.6l0,0L840.5,852.8l-1.8-2.7c2-1.4,6.1-4.3,9.7-7.8c3.6-3.5,6.4-7.7,6.5-10.7c0.1-0.9,0.1-1.8,0.1-2.5
			c0-3.2-0.6-5.2-1.3-6.9l0,0l0,0c-0.9-2.2-3.6-6.5-5.4-9.8l2.9-1.5l2.3,2.3c-1.8,1.9-11.8,11.9-22,21.5
			c-5.1,4.8-10.2,9.5-14.3,13.1c-2.1,1.8-3.9,3.3-5.4,4.4l-2.1,1.4c-0.7,0.4-1.3,0.7-2.7,0.8c-0.6,0-1.8-0.2-2.6-1.1l2.3-2.3
			l-2.3,2.3c-1-1-1.1-2-1.1-2.6c0-1.3,0.4-1.9,0.7-2.6c1.2-2.7,3.9-6.7,7.5-11.7c5.4-7.5,12.6-16.9,18.8-24.7
			c3.1-3.9,6-7.4,8.2-10.1c2.3-2.7,3.8-4.5,4.7-5.4l2.2,2.4l-3.1,1c0,0-0.8-2.5-2.1-5.7c-1.2-3.2-2.8-7-4.2-9.2l0,0l0,0
			c-1.3-2.2-3.4-4.6-5.2-6.3c-0.9-0.9-1.7-1.6-2.3-2.1l-0.7-0.6l-0.2-0.1l0.1-0.2l-0.1,0.2l0,0l0.1-0.2l-0.1,0.2l1.8-2.4l-1.4,2.7
			l-0.4-0.3l1.8-2.4l-1.4,2.7l1.4-2.9l2.8,1.7c-1.1,1.8-10,16-19.2,29.9c-4.6,6.9-9.2,13.7-13,18.9c-1.9,2.6-3.6,4.7-4.9,6.3l-2,2
			l-1.1,0.8c-0.4,0.2-1,0.6-2.1,0.6l-1.4-0.3c-1.1-0.4-1.7-1.4-1.9-2.1l-0.3-1.5c0.1-1.8,0.6-3.3,1.4-5.7
			c2.9-7.9,9.7-22.3,16.1-35.3c6.3-12.9,12.1-24.3,12.5-25.2l2.9,1.4l-2.2,2.4c0,0-2.9-2.7-6.4-5.8c-3.4-3-7.5-6.4-9.1-7.2l0,0
			c-3.9-2.1-8.5-3.5-12.4-4.6l0.9-3.1l3.2,0.8c-0.5,2.2-5.4,19.9-10.6,37.4c-2.6,8.7-5.2,17.3-7.4,23.8c-1.1,3.2-2.1,5.9-2.9,7.9
			c-0.4,1-0.8,1.8-1.2,2.5l-0.8,1.1c-0.4,0.3-0.9,1.1-2.7,1.2c-1,0-2-0.5-2.4-1c-0.8-0.9-0.9-1.4-1-1.8c-0.3-1.3-0.3-2.4-0.3-4.1
			c0-7.8,1.7-25,3.4-40.9c1.7-15.8,3.5-30.1,3.7-31.6l3.2,0.4l-1.1,3c-0.3-0.1-1.8-0.4-3.6-0.8c-1.8-0.4-4.1-0.8-6.5-1.5l0,0
			c-3.5-1-6.9-2.3-10.2-2.6l0.3-3.2l0.3,3.2c-3.3,0.3-6.8,1.6-10.2,2.6c-2.4,0.7-4.7,1.1-6.5,1.5c-1.8,0.3-3.3,0.7-3.6,0.8l-1.1-3
			l3.2-0.4c0.2,1.4,2,15.8,3.7,31.7c1.8,15.9,3.5,33.2,3.5,40.9c0,1.2,0,2.2-0.2,3.1l-0.4,1.5l-0.8,1.2c-0.4,0.5-1.4,1-2.4,1
			c-1.8-0.1-2.3-0.9-2.7-1.2l-1.4-2.2c-1.4-2.9-3.3-8.4-5.5-15.2c-3.3-10.2-7.2-23.3-10.3-34.3c-3.1-11-5.5-19.6-5.9-21.2l3.2-0.7
			l0.9,3.1c-3.9,1.1-8.5,2.4-12.4,4.6l0,0c-1.5,0.8-5.7,4.2-9.1,7.2c-3.4,3-6.4,5.8-6.4,5.8l-2.2-2.4l2.9-1.5
			c0.6,1.2,8.1,15.8,15.3,30.9c3.6,7.6,7.3,15.3,10,21.5c1.4,3.1,2.5,5.9,3.3,8.2c0.8,2.3,1.4,3.8,1.4,5.7l-0.3,1.5
			c-0.2,0.6-0.9,1.6-1.9,2.1l0,0l-1.4,0.3c-1.1,0-1.6-0.4-2.1-0.6c-1.5-1-2.5-2.2-4-3.9c-10-12.2-34.2-50.9-36.1-54l2.8-1.7l0.8,3.1
			l-0.8-3l1.6,2.6l-0.8,0.3l-0.8-3l1.6,2.6l-1-1.6l1.1,1.5l-0.1,0.1l-1-1.6l1.1,1.5c-0.1,0.1-1.8,1.4-3.5,3.1
			c-1.7,1.7-3.7,3.9-4.9,6l0,0c-1.3,2.2-3,6.1-4.2,9.3c-1.2,3.2-2.1,5.7-2.1,5.7l-3.1-1l2.2-2.4c0.7,0.7,1.6,1.7,2.9,3.3
			c4.6,5.5,13.7,16.8,21.6,27.3c4,5.3,7.7,10.3,10.4,14.3c1.4,2,2.5,3.8,3.3,5.3l1,2.1c0.3,0.7,0.5,1.2,0.6,2.4
			c0,0.6-0.1,1.7-1.1,2.6l-2.3-2.3l2.3,2.3c-0.8,0.9-2,1.1-2.6,1.1c-1.4-0.1-2-0.5-2.7-0.8c-2.4-1.4-5.8-4.1-10-7.9
			c-12.6-11.1-31.4-29.9-33.9-32.5l2.3-2.2l2.8,1.6c-1.8,3.3-4.4,7.5-5.4,9.8c-0.7,1.6-1.3,3.6-1.3,6.8c0,0.8,0,1.6,0.1,2.6v0
			c0.1,3,2.9,7.2,6.5,10.7c3.6,3.5,7.6,6.5,9.7,7.8l0,0c3.1,2.1,6.2,4.8,8.8,7.2c2.6,2.4,4.8,4.5,5.7,5.3l0,0l0,0
			c1.2,1.1,2.8,2.8,4.9,5.3c7.2,8.6,20.1,25.5,32.2,42.1c12.1,16.6,23.4,32.7,27.5,39.9l0,0c1,1.7,2,2.5,3,2.9
			c1,0.5,2.2,0.6,3.4,0.6l0,3.2l0-3.2c1.2,0,2.3-0.2,3.3-0.6c1-0.5,2-1.2,3-2.9c4.7-8.3,18.8-28.1,32.8-47
			c7-9.4,13.9-18.6,19.6-25.8c2.8-3.6,5.4-6.7,7.4-9.2c2.1-2.5,3.6-4.2,4.9-5.3l0,0c0.9-0.8,3.1-2.9,5.8-5.3
			c2.6-2.4,5.8-5.1,8.8-7.2l0,0l0,0L840.5,852.8"/>
		<path id="path104" fill="#F9E605" d="M719.7,934.6H679c-0.3,0-3.9,0.3-4.7-0.9c-1.2-1.9,0.3-5.5,0.3-5.5l13.8-36
			C691.5,896.5,715.7,929.3,719.7,934.6"/>
		<path id="path106" fill="#F9E605" d="M719.7,934.6v3.2H679v-0.3l0,0.3h0v-0.3l0,0.3l-1.3,0c-0.7,0-1.6,0-2.6-0.2
			c-1-0.2-2.3-0.5-3.5-2.1l0,0l0,0c-0.8-1.3-1-2.6-1-3.7c0-2.7,1-4.7,1.1-4.9l3,1.3l-3-1.2l15.8-41.4l3.5,4.6
			c3.3,4.4,27.5,37.1,31.4,42.4l3.9,5.2h-6.5L719.7,934.6l-2.6,1.9c-4-5.3-28.2-38.1-31.4-42.3l2.6-2l3,1.2l-13.8,36l0,0.1l-0.1,0.2
			l-0.5,2.2l0,0.3l-0.4,0.1l0.4-0.2l0.1,0.1l-0.4,0.1l0.4-0.2l-2.7,1.8l2.7-1.8l-1.5,1l0.8-1.6l0.7,0.6l-1.5,1l0.8-1.6l0,0l1.4,0.1
			l0.7,0l0.6,0h40.7L719.7,934.6l-2.6,1.9L719.7,934.6"/>
		<path id="path108" fill="#F9E605" d="M831.8,928.2c0,0,1.6,3.6,0.3,5.5c-0.8,1.2-4.4,0.9-4.7,0.9h-40.7
			c3.9-5.3,28.2-38.1,31.4-42.4L831.8,928.2"/>
		<path id="path110" fill="#F9E605" d="M831.8,928.2l3-1.3c0.1,0.2,1,2.2,1.1,4.9c0,1.1-0.2,2.5-1.1,3.8l-2.7-1.8l2.7,1.7
			c-1.2,1.7-2.5,1.9-3.5,2.2c-1,0.2-1.9,0.2-2.6,0.2l-1,0l-0.3,0h0h-47.2l3.9-5.2c3.9-5.3,28.2-38.1,31.4-42.4l3.5-4.8l15.9,41.5
			L831.8,928.2l3-1.3L831.8,928.2l-3,1.2l-13.8-36l3-1.2l2.6,1.9c-3.2,4.3-27.4,37.1-31.4,42.4l-2.6-1.9v-3.2h40.7l1.4,0l1.3-0.1
			l0.1,0l0.2,0.8l-0.4-0.7l0.2-0.1l0.2,0.8l-0.4-0.7l1.1,1.7l-1.7-1.1l0.6-0.6l1.1,1.7l-1.7-1.1l0-0.1l0-0.1l0.4,0.2l-0.4-0.1
			l0.1-0.1l0.4,0.2l-0.4-0.1l0-0.3l-0.3-1.5l-0.2-0.6l-0.1-0.1l0,0l0-0.1l0-0.1L831.8,928.2"/>
		<path id="path112" fill="#100F0D" d="M184,934.2c-0.8-1-29.6-40-30.2-40.8c-0.4,1.1-13.4,35.1-13.4,35.1c-0.1,0.2-0.8,1.9-0.8,3.4
			l0.4,1.6c0.2,0.3,1,0.8,4,0.7C144,934.2,182.7,934.2,184,934.2 M253.1,934.2h39.7h0.2c3.1,0.2,3.9-0.3,4.1-0.7l0.4-1.6
			c0-1.6-0.8-3.4-0.8-3.4c0,0-11.8-30.8-13.4-35.1C282.6,894.2,255.9,930.3,253.1,934.2 M271.3,850.7c0.1-5.3,35.9-49.3,38.9-52.4
			c-0.4-1.1-3.6-10.5-6.4-15.3c-2.6-4.4-7.5-8.7-8.8-9.7c-2.1,3.5-36.2,58.3-39.9,56.7l-0.4-0.4l-0.1-0.6c0-4.1,9.7-25.4,29-63.6
			l0.6-1.2c-1.6-1.5-11.9-11-15.8-13.1c-4.2-2.3-8.9-3.7-12.4-4.7c-1,3.7-19.3,71.5-22.9,71.5h-0.2l-0.3-0.3c-0.2-0.3-0.6-1-0.6-4
			c0-15,6.7-68.4,7.1-71.5l-3.2-0.8l-6.7-1.5l-2.9-0.9c-2.5-0.8-5.1-1.6-7.8-1.8c-2.6,0.2-5.2,1-7.6,1.8l-2.9,0.9l-6.7,1.5l-3.2,0.8
			c0.4,3.2,7,56.6,7,71.6c0,3-0.2,3.7-0.5,4l-0.1,0.1l-0.5,0.2c-3.5,0-21.9-67.8-22.9-71.5c-3.3,1-8.3,2.4-12.5,4.7
			c-4,2.2-14.8,12.2-15.7,13.1l0.8,1.6c13.1,26,28.8,58.1,28.8,63.1l-0.1,0.5l-0.3,0.4c-3.9,1.7-37.9-53.1-40.1-56.6
			c-1.3,1-6.2,5.3-8.8,9.7c-3,5-6.3,15-6.5,15.5c2.2,1.9,38.8,46.9,38.9,52.2l-0.2,0.6l-0.6,0.3c-4.5,0-41.2-36.7-44.3-39.8
			l-1.9,3.4l-3.2,5.9c-1,2.3-1.5,5-1.5,8l0.1,2.7c0.4,5.8,6.6,13.2,17.4,20.6c4.3,3,9.1,7.5,12,10.3l2.3,2.1
			c7.6,6.7,54.9,70.6,64,86.6c2.5,4.3,5.9,4.9,8.7,5c2.8,0,6.2-0.6,8.7-5c9.2-16,56.5-79.9,64.1-86.6l2.2-2
			c2.9-2.7,7.8-7.3,12.1-10.3c6.2-4.3,16.7-12.7,17.4-20.6l0.1-2.7c0-3-0.5-5.7-1.5-8l-3.1-5.6l-2.1-3.8
			c-3.1,3.1-39.7,39.9-44.1,39.9l-0.6-0.2L271.3,850.7 M316.9,861.8L316.9,861.8c-3.7,2.4-11.5,8.8-13.9,11.2
			c-1.4,1.4-5,5.3-10,11.2l-0.5,0.6l16.2,40.9c1.1,2.9,1.6,5.7,1.6,8.1c0,2.5-0.9,5.2-2.3,7.2c-2.3,3.2-5.9,4.9-10.8,5
			c0,0-48.7,0.1-50.9,0.1c-0.5,1.9-5.3,9.6-6.3,11.2c-5.1,9.6-11,13.2-21.4,13.2c-10.6,0-16.5-3.6-21.6-13.2
			c-1-1.5-5.8-9.2-6.4-11.1l-50.8-0.1c-5-0.2-8.5-1.9-10.8-5c-1.5-2-2.3-4.7-2.3-7.2c0-2.4,0.6-5.1,1.7-8.1c0,0,15.5-40.1,16-41.2
			l-0.4-0.3c-5.1-6-8.6-9.8-10-11.2c-2.4-2.4-10.2-8.8-13.9-11.2c-13.7-9-21.3-19.8-21.3-30.6l0-0.7c0.2-10.3,6.7-21.2,10.5-27.7
			l2.3-4c2.1-4.9,11.4-23.8,16.1-30c4.3-5.6,29.1-27.7,37.2-31.9c6.4-3.4,16.5-5.4,21.4-6.3l2.7-0.6c3.7-1.2,21.9-7.2,29.5-7.2
			c7.6,0,25.9,6,29.5,7.2l2.6,0.6c4.9,0.9,15,2.9,21.5,6.3c8.1,4.3,32.8,26.4,37.1,31.9c4.8,6.2,14,25.1,16.2,30l2.3,4.1
			c3.8,6.5,10.2,17.4,10.5,27.7v0.6C338.2,842,330.7,852.8,316.9,861.8"/>
		<path id="path114" fill="#100F0D" d="M452,937.5c-0.7-1-29.6-40-30.2-40.8c-0.4,1.1-13.4,35.1-13.4,35.1c-0.1,0.2-0.8,1.9-0.8,3.4
			l0.4,1.6c0.2,0.3,1,0.8,4.1,0.7C412.1,937.5,450.7,937.5,452,937.5 M521.1,937.5h39.7l0.3,0c3.1,0.2,3.8-0.4,4-0.7l0.4-1.6
			l-0.8-3.4c0-0.1-11.8-30.8-13.4-35.2C550.7,897.6,524,933.7,521.1,937.5 M539.4,854.1c0-5.4,35.8-49.3,38.8-52.5
			c-0.3-1.1-3.5-10.5-6.4-15.3c-2.6-4.3-7.4-8.5-8.8-9.7c-2.1,3.4-36.2,58.3-39.9,56.7l-0.4-0.4l-0.2-0.6c0-4,9.7-25.4,29-63.5
			l0.6-1.2c-1.6-1.5-11.9-11-15.8-13.1c-4.2-2.3-8.9-3.7-12.5-4.6c-1,3.7-19.4,71.4-22.9,71.4H501l-0.4-0.2c-0.2-0.2-0.5-1-0.5-4
			c0-15,6.7-68.3,7-71.5l-3.2-0.8l-6.7-1.5l-2.8-0.9c-2.6-0.8-5.1-1.6-7.8-1.9c-2.6,0.3-5.2,1.1-7.7,1.8l-2.9,0.9l-6.7,1.5l-3.2,0.8
			c0.4,3.2,7.1,56.5,7.1,71.5c0,3-0.2,3.7-0.5,4l-0.1,0.1l-0.4,0.1c-3.5,0-21.9-67.8-22.9-71.4c-3.4,0.9-8.3,2.4-12.4,4.6
			c-3.9,2.1-13.5,11.1-15.8,13.1l0.8,1.7c13.1,26,28.7,58.1,28.7,63.1l-0.1,0.5l-0.3,0.4c-3.9,1.7-37.9-53.1-40-56.6
			c-1.3,1.1-6.2,5.3-8.8,9.7c-2.9,5-6.3,15.1-6.5,15.5c2.2,1.9,38.8,46.9,38.9,52.2l-0.2,0.6l-0.7,0.3c-4.5,0-41.2-36.7-44.2-39.8
			l-2,3.5l-3.2,5.9c-1,2.3-1.5,4.9-1.5,8l0.1,2.7c0.5,5.9,6.6,13.2,17.4,20.6c4.3,3,9.2,7.5,12,10.2l2.2,2.1
			c7.7,6.6,54.9,70.6,64.1,86.6c2.5,4.3,5.9,4.9,8.7,5c2.7,0,6.2-0.6,8.7-5c9.1-16,56.4-79.9,64-86.6l2.2-2
			c2.9-2.8,7.8-7.3,12.1-10.3c6.2-4.3,16.7-12.7,17.3-20.6l0.2-2.7c0-3.1-0.5-5.7-1.6-8l-3.2-6l-1.9-3.4
			c-3.1,3.1-39.7,39.8-44.2,39.8l-0.5-0.1L539.4,854.1 M585,865.2L585,865.2c-3.8,2.4-11.5,8.8-13.9,11.1c-1.4,1.4-4.9,5.4-10,11.3
			l-0.5,0.5l16.1,40.9c1.1,3,1.7,5.7,1.7,8.1c0,2.5-0.9,5.2-2.3,7.2c-2.3,3.2-5.9,4.9-10.8,5c0,0-48.7,0.1-50.9,0.1
			c-0.5,1.9-4.9,9-6.4,11.2c-5.2,9.6-11,13.2-21.5,13.2c-10.6,0-16.4-3.6-21.6-13.3c-1.4-2.2-5.8-9.2-6.3-11.1l-50.9-0.1
			c-4.9-0.2-8.5-1.8-10.8-5c-1.4-2-2.3-4.7-2.3-7.2c0-2.4,0.6-5.1,1.7-8.1c0,0,15.6-40,16-41.1l-0.4-0.3c-5.1-6-8.6-9.9-10.1-11.3
			c-2.4-2.3-10.2-8.7-13.8-11.1c-13.8-9-21.3-19.9-21.3-30.7V834c0.3-10.3,6.7-21.2,10.5-27.7l2.3-4.1c2.1-4.8,11.4-23.7,16.1-30
			c4.3-5.6,29.1-27.7,37.1-32c6.5-3.4,16.6-5.4,21.5-6.3l2.7-0.6c2.2-0.7,21.6-7.2,29.5-7.2c7.7,0,25.9,6,29.5,7.2l2.6,0.6
			c4.9,0.9,15,2.9,21.5,6.3c8.1,4.3,32.9,26.4,37.2,32c4.7,6.2,14,25.1,16.2,30l2.2,4.1c3.8,6.5,10.2,17.4,10.5,27.7v0.6
			C606.3,845.4,598.7,856.2,585,865.2"/>
		<path id="path116" fill="#100F0D" d="M718.6,934.2c-0.7-1-29.5-40-30.2-40.8c-0.4,1.1-13.4,35.1-13.4,35.1
			c-0.1,0.2-0.8,1.9-0.8,3.4l0.4,1.6c0.2,0.3,1,0.8,4.1,0.7C678.7,934.2,717.4,934.2,718.6,934.2 M787.7,934.2h39.7h0.3
			c3,0.2,3.9-0.3,4-0.7l0.4-1.6l-0.8-3.4c0-0.1-11.7-30.8-13.4-35.1C817.3,894.2,790.6,930.3,787.7,934.2 M806.1,850.7
			c0.1-5.3,35.8-49.3,38.8-52.4c-0.4-1.1-3.5-10.5-6.4-15.3c-2.6-4.3-7.4-8.5-8.8-9.7c-2.2,3.5-36.3,58.3-40,56.7l-0.3-0.4l-0.2-0.6
			c0-4.1,9.8-25.4,29-63.6l0.6-1.2c-1.6-1.5-11.9-11-15.7-13.1c-4.2-2.3-8.9-3.7-12.5-4.7c-1,3.7-19.3,71.5-22.8,71.5h-0.2l-0.4-0.3
			c-0.2-0.3-0.5-1-0.5-4c0-15,6.7-68.4,7.1-71.5l-3.3-0.8l-6.6-1.5L761,739c-2.5-0.8-5.1-1.6-7.8-1.8c-2.7,0.2-5.3,1-7.7,1.8
			l-2.9,0.9l-6.7,1.5l-3.2,0.8c0.4,3.2,7.1,56.6,7.1,71.6c0,3-0.3,3.7-0.5,4l-0.1,0.1l-0.4,0.2c-3.6,0-21.9-67.8-22.9-71.5
			c-3.4,1-8.3,2.4-12.5,4.7c-3.8,2.1-13.5,11-15.8,13.1l0.8,1.6c13.1,26,28.8,58.1,28.8,63.1l-0.1,0.5l-0.3,0.4
			c-3.9,1.7-37.9-53.1-40.1-56.6c-1.3,1-6.2,5.3-8.8,9.7c-3,5-6.3,15-6.5,15.5c2.2,1.9,38.8,46.9,38.9,52.2l-0.2,0.6l-0.6,0.3
			c-4.6,0-41.2-36.7-44.3-39.8l-2,3.4l-3.2,5.9c-1,2.3-1.6,5-1.6,8l0.2,2.7c0.4,5.8,6.6,13.2,17.4,20.6c4.3,3,9.1,7.5,12,10.3
			l2.2,2.1c7.7,6.7,55,70.6,64.1,86.6c2.5,4.3,5.9,4.9,8.7,4.9c2.7,0,6.1-0.6,8.6-4.9c9.2-16,56.5-79.9,64.1-86.6l2.2-2
			c2.9-2.7,7.7-7.3,12.1-10.3c6.2-4.3,16.7-12.7,17.4-20.6l0.1-2.7c0-3-0.5-5.7-1.5-8l-3.2-5.9l-2-3.4c-3,3.1-39.7,39.8-44.2,39.9
			l-0.5-0.2L806.1,850.7 M851.6,861.8L851.6,861.8c-3.6,2.5-11.4,8.8-13.9,11.2c-1.4,1.4-4.9,5.3-10,11.2l-0.5,0.6l16.1,40.9
			c1.1,2.9,1.6,5.7,1.6,8.1c0,2.5-0.9,5.2-2.3,7.2c-2.3,3.2-5.9,4.9-10.8,5c0,0-48.7,0.1-51,0.1c-0.4,1.9-4.9,8.9-6.3,11.2
			c-5.1,9.6-10.9,13.2-21.5,13.2c-10.6,0-16.4-3.6-21.6-13.2c-1.4-2.2-5.8-9.2-6.3-11.1l-50.9-0.1c-5-0.2-8.5-1.9-10.8-5
			c-1.4-2-2.3-4.7-2.3-7.2c0-2.4,0.5-5.1,1.7-8.1c0,0,15.6-40.1,16-41.2l-0.3-0.3c-5.2-6-8.6-9.8-10-11.2
			c-2.5-2.4-10.3-8.7-13.9-11.2c-13.8-9-21.3-19.8-21.3-30.6l0-0.7c0.3-10.3,6.7-21.2,10.5-27.7l2.3-4c2.1-4.9,11.3-23.8,16.1-30
			c4.3-5.6,29.1-27.7,37.1-31.9c6.4-3.4,16.5-5.4,21.4-6.3l2.7-0.6c2.2-0.7,21.5-7.2,29.5-7.2c7.6,0,25.9,6,29.5,7.2l2.6,0.6
			c4.9,0.9,15,2.9,21.5,6.3c8.1,4.3,32.8,26.4,37.1,31.9c4.8,6.2,14,25.1,16.2,30l2.3,4.1c3.8,6.5,10.2,17.4,10.5,27.7l0,0.6
			C872.9,842,865.4,852.8,851.6,861.8"/>
	</g>
</g>
</svg>
