<?xml version="1.0"?>
<svg xmlns="http://www.w3.org/2000/svg" xmlns:xlink="http://www.w3.org/1999/xlink" xmlns:svgjs="http://svgjs.com/svgjs" version="1.1" width="512" height="512" x="0" y="0" viewBox="0 0 512 512" style="enable-background:new 0 0 512 512" xml:space="preserve" class=""><g><g xmlns="http://www.w3.org/2000/svg"><g><circle cx="256" cy="256" fill="#00ff62" r="248.5" data-original="#a1f2c0" class=""/></g><g><ellipse cx="256" cy="256" fill="#f5f5f5" rx="202.449" ry="202.449" transform="matrix(.707 -.707 .707 .707 -106.039 256)" data-original="#f5f5f5" class=""/></g><g><path d="m256 7.5c-5.038 0-10.036.168-15 .464 130.256 7.757 233.5 115.831 233.5 248.036s-103.244 240.279-233.5 248.036c4.964.296 9.962.464 15 .464 137.243 0 248.5-111.257 248.5-248.5s-111.257-248.5-248.5-248.5z" fill="#00ff51" data-original="#83e8a3" class=""/></g><g><path d="m256 53.551c-5.046 0-10.047.191-15 .554 104.804 7.676 187.449 95.131 187.449 201.895s-82.645 194.219-187.449 201.896c4.953.363 9.954.554 15 .554 111.81 0 202.449-90.64 202.449-202.449s-90.639-202.45-202.449-202.45z" fill="#ebe5ed" data-original="#ebe5ed"/></g><g><path d="m373.987 322.006h-235.974c-4.762 0-8.623-3.861-8.623-8.623v-118.127c0-4.762 3.861-8.623 8.623-8.623h235.974c4.763 0 8.623 3.861 8.623 8.623v118.126c0 4.763-3.861 8.624-8.623 8.624z" fill="#00ff62" data-original="#a1f2c0" class=""/></g><g><path d="m373.987 186.633h-30c4.763 0 8.623 3.861 8.623 8.623v118.126c0 4.763-3.861 8.623-8.623 8.623h30c4.763 0 8.623-3.861 8.623-8.623v-118.126c0-4.762-3.861-8.623-8.623-8.623z" fill="#00ff51" data-original="#83e8a3" class=""/></g><g><path d="m437.02 74.981c-48.353-48.352-112.64-74.981-181.02-74.981-57.453 0-111.739 18.594-156.991 53.773-3.271 2.542-3.86 7.254-1.318 10.524s7.254 3.86 10.524 1.318c42.595-33.112 93.698-50.615 147.785-50.615 64.374 0 124.894 25.068 170.413 70.587s70.587 106.039 70.587 170.413-25.068 124.894-70.587 170.413-106.039 70.587-170.413 70.587-124.894-25.068-170.413-70.587-70.587-106.039-70.587-170.413c0-64.892 25.416-125.758 71.566-171.386 2.946-2.912 2.973-7.661.061-10.606-2.913-2.945-7.661-2.973-10.607-.06-49.022 48.467-76.02 113.121-76.02 182.052 0 68.38 26.629 132.667 74.98 181.02 48.352 48.351 112.64 74.98 181.02 74.98s132.667-26.629 181.02-74.98c48.351-48.353 74.98-112.64 74.98-181.02s-26.629-132.667-74.98-181.019z" fill="#000000" data-original="#000000"/><path d="m256 465.949c115.766 0 209.949-94.183 209.949-209.949s-94.183-209.95-209.949-209.95-209.949 94.183-209.949 209.95 94.183 209.949 209.949 209.949zm0-404.899c107.495 0 194.949 87.454 194.949 194.949s-87.454 194.95-194.949 194.95-194.949-87.453-194.949-194.949 87.454-194.95 194.949-194.95z" fill="#000000" data-original="#000000"/><path d="m138.013 329.506h117.773c4.142 0 7.5-3.358 7.5-7.5s-3.358-7.5-7.5-7.5h-117.773c-.619 0-1.123-.504-1.123-1.123v-118.127c0-.619.504-1.123 1.123-1.123h235.974c.619 0 1.123.504 1.123 1.123v118.127c0 .619-.504 1.123-1.123 1.123h-88.201c-4.142 0-7.5 3.358-7.5 7.5s3.358 7.5 7.5 7.5h88.201c8.89 0 16.123-7.233 16.123-16.123v-118.127c0-8.89-7.233-16.123-16.123-16.123h-235.974c-8.89 0-16.123 7.233-16.123 16.123v118.127c0 8.89 7.233 16.123 16.123 16.123z" fill="#000000" data-original="#000000"/></g><g><path d="m267.995 235.308c4.142 0 7.5-3.358 7.5-7.5s-3.358-7.5-7.5-7.5h-22.341c-4.142 0-7.5 3.358-7.5 7.5v53.022c0 4.142 3.358 7.5 7.5 7.5h22.341c4.142 0 7.5-3.358 7.5-7.5s-3.358-7.5-7.5-7.5h-14.841v-11.511h13.194c4.142 0 7.5-3.358 7.5-7.5s-3.358-7.5-7.5-7.5h-13.194v-11.511z" fill="#000000" data-original="#000000"/><path d="m319.932 247.705c-6.435-2.374-12.436-4.956-14.42-5.823-1.014-.871-1.03-2.023-.938-2.67.113-.79.7-2.726 3.687-3.626 7.094-2.136 13.754 3.077 13.979 3.256 3.17 2.626 7.871 2.205 10.524-.951 2.665-3.171 2.255-7.902-.915-10.567-.519-.436-12.881-10.629-27.915-6.101-7.692 2.317-13.137 8.394-14.208 15.857-1.008 7.022 2.037 13.778 7.947 17.631.331.216.679.406 1.04.567.311.139 7.704 3.429 16.027 6.5 1.681.62 7.118 2.913 6.498 6.381-.475 2.662-3.803 5.415-8.549 5.415-5.093 0-9.987-2.044-13.09-5.468-2.781-3.069-7.524-3.303-10.594-.521-3.069 2.782-3.302 7.524-.521 10.594 5.987 6.607 14.81 10.396 24.205 10.396 11.67 0 21.476-7.477 23.315-17.779 1.391-7.784-2.102-17.938-16.072-23.091z" fill="#000000" data-original="#000000"/><path d="m221.345 221.415c-3.472-2.26-8.117-1.278-10.377 2.194l-10.676 16.4-10.803-16.544c-2.265-3.469-6.913-4.443-10.38-2.179-3.468 2.265-4.444 6.912-2.179 10.38l15.867 24.3-.061 25.093c-.01 4.142 3.339 7.508 7.481 7.518h.019c4.133 0 7.489-3.346 7.499-7.482l.061-25.118 15.743-24.184c2.26-3.473 1.277-8.119-2.194-10.378z" fill="#000000" data-original="#000000"/></g></g></g></svg>
