<?xml version="1.0" encoding="utf-8"?>
<!-- Generator: Adobe Illustrator 25.0.1, SVG Export Plug-In . SVG Version: 6.00 Build 0)  -->
<svg version="1.1" id="Layer_1" xmlns:svgjs="http://svgjs.com/svgjs"
	 xmlns="http://www.w3.org/2000/svg" xmlns:xlink="http://www.w3.org/1999/xlink" x="0px" y="0px" viewBox="0 0 512 512"
	 style="enable-background:new 0 0 512 512;" xml:space="preserve">
<style type="text/css">
	.st0{fill:#448E19;}
	.st1{fill:#282323;}
</style>
<g>
	<g id="_8_Yes">
		<path class="st0" d="M256,11C120.7,11,11,120.7,11,256s109.7,245,245,245s245-109.7,245-245S391.3,11,256,11z M256,461
			c-113,0-205-92-205-205S143,51,256,51s205,92,205,205S369,461,256,461z"/>
		<path class="st0" d="M358.3,118.8c-11.5-11.5-30.2-11.5-41.7,0c0,0,0,0,0,0l-77.5,77.5c-5.1,5.1-13.5,5.1-18.6,0c0,0,0,0,0,0
			l-25.1-25.1c-11.5-11.5-30.2-11.5-41.7,0c-11.5,11.5-11.5,30.2,0,41.7c0,0,0,0,0,0l47.8,47.8c15.6,15.6,40.9,15.6,56.5,0
			l100.3-100.2C369.8,149,369.8,130.3,358.3,118.8C358.3,118.8,358.3,118.8,358.3,118.8z"/>
		<path class="st1" d="M280.2,315.6c3.3,0,6-2.7,6-6s-2.7-6-6-6h-40.5c-5,0-9,4-9,9v86.2c0,5,4,9,9,9h40.5c3.3,0,6-2.7,6-6
			s-2.7-6-6-6h-37.5v-34.1h37.5c3.3,0,6-2.7,6-6s-2.7-6-6-6h-37.5v-34.1L280.2,315.6z"/>
		<path class="st1" d="M324.4,349.8L324.4,349.8L324.4,349.8L324.4,349.8c-0.6-0.1-1.1-0.1-1.6-0.1c-0.4,0-0.8,0-1.1,0
			c-9.4-1.2-16-9.8-14.8-19.1c1.2-9.4,9.8-16,19.1-14.8c3.9,0.5,7.5,2.3,10.2,5.2c2.3,2.4,6.1,2.6,8.5,0.3c2.4-2.3,2.6-6.1,0.3-8.5
			c0,0-0.1-0.1-0.1-0.1c-11.1-11.6-29.5-12.1-41.1-1s-12.1,29.5-1,41.1c4.7,4.9,10.9,8,17.6,8.8c0.1,0,0.1,0,0.2,0c0,0,0,0,0.1,0
			l0.1,0c0.4,0,0.9,0.1,1.3,0.1c0.4,0,0.7,0,1.1,0c9.4,1.2,16,9.8,14.8,19.2c-1.2,9.4-9.8,16-19.2,14.8c-5.4-0.7-10.1-3.9-12.8-8.7
			c-1.6-2.9-5.2-4-8.1-2.4s-4,5.2-2.4,8.1c0,0,0,0,0,0c4.8,8.7,13.7,14.3,23.6,14.9c0.6,0,1.3,0.1,1.9,0.1
			c16.1,0,29.1-13.1,29.1-29.2C350,364,339,351.6,324.4,349.8L324.4,349.8z"/>
		<path class="st1" d="M219.3,304.4c-2.8-1.7-6.5-0.8-8.2,2.1l-19,31.6l-19-31.6c-1.7-2.8-5.4-3.8-8.2-2.1c-2.8,1.7-3.8,5.4-2.1,8.2
			l23.3,38.8v50.4c0,3.3,2.7,6,6,6s6-2.7,6-6v-50.4l23.3-38.8C223.1,309.8,222.2,306.1,219.3,304.4
			C219.3,304.4,219.3,304.4,219.3,304.4L219.3,304.4z"/>
	</g>
</g>
</svg>
