<?xml version="1.0" encoding="UTF-8"?>
<svg id="Layer_1" xmlns="http://www.w3.org/2000/svg" version="1.1" viewBox="0 0 70.9 70.9">
  <!-- Generator: Adobe Illustrator 29.3.1, SVG Export Plug-In . SVG Version: 2.1.0 Build 151)  -->
  <defs>
    <style>
      .st0 {
        fill: #fcd6e0;
      }

      .st1 {
        fill: #7fddbb;
      }

      .st2 {
        fill: #5791d6;
      }

      .st3 {
        fill: #eab0c3;
      }

      .st4 {
        fill: #ffcfde;
      }

      .st5 {
        fill: #2c2c51;
      }

      .st6 {
        fill: #dfdfdf;
      }

      .st7 {
        fill: #689cda;
      }

      .st8 {
        fill: #abcdef;
      }

      .st9 {
        fill: #f4f4f4;
      }

      .st10 {
        fill: #00b378;
      }

      .st11 {
        fill: #31c292;
      }

      .st12 {
        fill: #f4c36e;
      }

      .st13 {
        fill: #ffc7d3;
      }

      .st14 {
        fill: #bebebe;
      }

      .st15 {
        fill: #bdecdc;
      }
    </style>
  </defs>
  <g id="FILLED_OUTLINE">
    <path class="st12" d="M22.6,17.9h0c-1.7,2.4-2.9,5.2-3.3,8.2h32.4c-.5-2.9-1.6-5.7-3.3-8.2h0s.5-1.4.5-1.4c1.5-4.1-.5-8.6-4.6-10.1-.2,0-.4-.1-.6-.2h0c-1.4-2.9-4.4-4.7-7.6-4.7h-1.2c-3.2,0-6.1,1.8-7.6,4.7h0c-4.2,1.2-6.6,5.5-5.4,9.7,0,.2.1.4.2.6l.5,1.4Z"/>
    <path class="st4" d="M49.5,49.5v-10.5l-5-2.1c-2-.9-3.5-2.6-4-4.7l-.3-1.3v-1.2h-9.3v1.2l-.3,1.3c-.5,2.1-2,3.9-4,4.7l-5,2.1v10.5h28Z"/>
    <path class="st7" d="M49.5,39l-5-2.1c-1.3-.6-2.4-1.5-3.2-2.7l-2.9,2.4c-1.7,1.4-4.2,1.4-6,0l-2.9-2.4c-.8,1.2-1.9,2.2-3.2,2.7l-5,2.1v10.5h28v-10.5Z"/>
    <path class="st13" d="M11.2,59.2c-.9-1.7-.8-3.7.3-5.4l12.4-19.6-4.1-5.8c-1-1.5-1.2-3.4-.3-5l4.4-7.9.6.6c1.1,1.1,1.6,2.7,1.3,4.2l-.7,3.4,5.2,6c1.1,1.3,1.4,3.2.8,4.8l-9.7,24.2c-.6,1.5-1.8,2.6-3.3,3.2h0c-2.6.9-5.4-.3-6.6-2.7h0Z"/>
    <path class="st13" d="M59.8,59.2c.9-1.7.8-3.7-.3-5.4l-12.4-19.6,4.1-5.8c1-1.5,1.2-3.4.3-5l-4.4-7.9-.6.6c-1.1,1.1-1.6,2.7-1.3,4.2l.7,3.4-5.2,6c-1.1,1.3-1.4,3.2-.8,4.8l9.7,24.2c.6,1.5,1.8,2.6,3.3,3.2h0c2.6.9,5.4-.3,6.6-2.7h0Z"/>
    <path class="st0" d="M43.9,13.3c-2.3,0-4.5-1.2-5.8-3.1l-.3-.4-11.7,3.5v8c0,4.4,2.5,8.5,6.5,10.4l2.9,1.4,2.9-1.4c4-2,6.5-6,6.5-10.4v-8h-.9Z"/>
    <path class="st3" d="M29.1,17.8l1-2.1,4.7,2.3-1,2.1-4.7-2.3Z"/>
    <path class="st3" d="M36.1,18.1l4.7-2.3,1,2.1-4.7,2.3-1-2.1Z"/>
    <path class="st3" d="M36.1,26c-1.7-.9-2.4-2.9-1.6-4.7,0-.1.1-.3.2-.4l.9-1.3,1.9,1.3-.9,1.3c-.3.5-.2,1.2.3,1.6,0,0,0,0,.1,0l-1,2.1Z"/>
    <path class="st3" d="M37,29.3c-.8-.8-2.2-.8-3,0l-1.7-1.7c1.7-1.7,4.6-1.7,6.3,0l-1.7,1.7Z"/>
    <rect class="st6" x="15.6" y="41.3" width="39.7" height="28" rx="12.8" ry="12.8"/>
    <circle class="st9" cx="35.5" cy="55.3" r="4.7"/>
    <rect class="st2" x="1.6" y="20.3" width="11.7" height="18.7" rx="5.3" ry="5.3"/>
    <path class="st8" d="M6.3,33.1h2.3v2.3h-2.3v-2.3Z"/>
    <path class="st11" d="M1.6,7.4v2.3c0,1.3,1,2.3,2.3,2.3h2.3l5.8,3.5V1.6l-5.8,3.5h-2.3c-1.3,0-2.3,1-2.3,2.3Z"/>
    <path class="st10" d="M6.3,12.1v-7h-2.3c-1.3,0-2.3,1-2.3,2.3v2.3c0,1.3,1,2.3,2.3,2.3h2.3Z"/>
    <path class="st1" d="M16.5,12.5l-1.8-1.5c1.2-1.3,1.2-3.3,0-4.6l1.8-1.5c1.9,2.2,1.9,5.5,0,7.7Z"/>
    <path class="st2" d="M64.6,29.2v-2c0-1.3-1-2.3-2.3-2.3s-2.3,1-2.3,2.3v2c0,.9.6,1.8,1.4,2.1l.9.4.9-.4c.9-.4,1.4-1.2,1.4-2.1Z"/>
    <path class="st2" d="M68.6,36.8c-.3-1.6-1.3-2.9-2.8-3.5l-3.5-1.5-3.5,1.5c-1.5.6-2.5,2-2.8,3.5l-.7,4.5h14l-.7-4.5Z"/>
    <path class="st11" d="M56.1,2.3l1.5,1.5c.7.7.9,1.8.4,2.7l-1.6,3.2,4.7,4.7,3.2-1.6c.9-.4,2-.3,2.7.4l1.5,1.5c.9.9.9,2.4,0,3.3s-.2.2-.3.2l-1.1.8c-2.8,2-6.6,1.7-9-.7l-5.6-5.6c-2.4-2.4-2.7-6.2-.7-9l.8-1.1c.7-1,2.2-1.3,3.3-.5.1,0,.2.2.3.2h0Z"/>
    <path class="st1" d="M65.8,9.7h-2.3c0-1.3-1-2.3-2.3-2.3v-2.3c2.6,0,4.7,2.1,4.7,4.7Z"/>
    <path class="st15" d="M67.8,7.8c-.7-2.3-2.4-4-4.7-4.7l.7-2.2c3,.9,5.4,3.3,6.3,6.3l-2.2.7Z"/>
    <path class="st14" d="M.4,68.1h70v2.3H.4v-2.3Z"/>
    <g>
      <path class="st5" d="M29.1,17.8l1-2.1,4.7,2.3-1,2.1-4.7-2.3Z"/>
      <path class="st5" d="M36.1,18.1l4.7-2.3,1,2.1-4.7,2.3-1-2.1Z"/>
      <path class="st5" d="M34.3,23.8c.3,1,.9,1.8,1.8,2.2l1-2.1c-.6-.3-.8-1-.5-1.5,0,0,0,0,0-.1l.9-1.3-1.9-1.3-.9,1.3c-.6.8-.7,1.9-.5,2.8h0Z"/>
      <path class="st5" d="M32.3,27.6l1.7,1.7c.8-.8,2.2-.8,3,0l1.7-1.7c-1.7-1.7-4.6-1.7-6.3,0Z"/>
      <path class="st5" d="M35.5,49.5c-3.2,0-5.8,2.6-5.8,5.8s2.6,5.8,5.8,5.8,5.8-2.6,5.8-5.8c0-3.2-2.6-5.8-5.8-5.8ZM35.5,58.8c-1.9,0-3.5-1.6-3.5-3.5s1.6-3.5,3.5-3.5,3.5,1.6,3.5,3.5c0,1.9-1.6,3.5-3.5,3.5Z"/>
      <path class="st5" d="M3.9,40.1h7c1.9,0,3.5-1.6,3.5-3.5v-14c0-1.9-1.6-3.5-3.5-3.5H3.9c-1.9,0-3.5,1.6-3.5,3.5v14c0,1.9,1.6,3.5,3.5,3.5ZM2.8,22.6c0-.6.5-1.2,1.2-1.2h7c.6,0,1.2.5,1.2,1.2v14c0,.6-.5,1.2-1.2,1.2H3.9c-.6,0-1.2-.5-1.2-1.2v-14Z"/>
      <path class="st5" d="M6.3,33.1h2.3v2.3h-2.3v-2.3Z"/>
      <path class="st5" d="M3.9,13.3h2l5.6,3.3c.6.3,1.3.2,1.6-.4.1-.2.2-.4.2-.6V1.6c0-.6-.5-1.2-1.2-1.2-.2,0-.4,0-.6.2l-5.6,3.3h-2c-1.9,0-3.5,1.6-3.5,3.5v2.3c0,1.9,1.6,3.5,3.5,3.5ZM10.9,13.5l-3.5-2.1v-5.7l3.5-2.1v9.9ZM2.8,7.4c0-.6.5-1.2,1.2-1.2h1.2v4.7h-1.2c-.6,0-1.2-.5-1.2-1.2v-2.3Z"/>
      <path class="st5" d="M16.5,12.5c1.9-2.2,1.9-5.5,0-7.7l-1.8,1.5c1.2,1.3,1.2,3.3,0,4.6l1.8,1.5Z"/>
      <path class="st5" d="M54.9,36.6l2.3.4c.2-1.2,1-2.2,2.1-2.6l3-1.3,3,1.3c1.1.5,1.9,1.5,2.1,2.6l.7,4.5,2.3-.4-.7-4.5c-.3-2-1.6-3.6-3.5-4.4l-1.4-.6c.6-.6.9-1.5.9-2.4v-2c0-1.9-1.6-3.5-3.5-3.5s-3.5,1.6-3.5,3.5v2c0,.9.3,1.7.9,2.4l-1.4.6c-1.8.8-3.1,2.4-3.5,4.4h0ZM61.1,27.3c0-.6.5-1.2,1.2-1.2s1.2.5,1.2,1.2v2c0,.5-.3.9-.7,1.1l-.5.2-.5-.2c-.4-.2-.7-.6-.7-1.1v-2Z"/>
      <path class="st5" d="M63.5,9.7h2.3c0-2.6-2.1-4.7-4.7-4.7v2.3c1.3,0,2.3,1,2.3,2.3Z"/>
      <path class="st5" d="M67.8,7.8l2.2-.7c-.9-3-3.3-5.4-6.3-6.3l-.7,2.2c2.3.7,4,2.4,4.7,4.7Z"/>
      <path class="st5" d="M56.3,68.1c.1-.4.2-.8.2-1.2v-3.8c3.6-.9,5.7-4.5,4.8-8-.2-.7-.5-1.3-.8-1.9l-4-6.3v-3.3c0-1.9-1.6-3.5-3.5-3.5h-.8l-3.7-5.8,3.7-5.1c1.3-1.8,1.4-4.3.4-6.2l-2.9-5.3.3-.7c.7-1.8.7-3.7.3-5.5.4.8.9,1.5,1.5,2.1l5.6,5.6c2.8,2.8,7.3,3.2,10.5.9l1.1-.8c1.6-1.1,1.9-3.3.8-4.9-.1-.2-.2-.3-.4-.4l-1.5-1.5c-1.1-1.1-2.7-1.3-4-.7l-2.4,1.2-3.5-3.5,1.2-2.4c.7-1.3.4-3-.7-4l-1.5-1.5c-1.4-1.4-3.6-1.4-5,0-.1.1-.3.3-.4.4l-.8,1.1c-1.4,2-1.9,4.4-1.3,6.8,0,0,0,0,0,0-1.1-2.1-2.9-3.7-5.1-4.5-1.7-3-4.9-4.9-8.4-4.9h-1.2c-3.5,0-6.7,1.9-8.4,4.9-4.7,1.6-7.2,6.8-5.5,11.5,0,0,0,.1,0,.2l.3.7-2.9,5.3c-1.1,2-1,4.4.4,6.2l3.7,5.1-3.7,5.8h-.8c-1.9,0-3.5,1.6-3.5,3.5v3.3l-4,6.3c-2,3.1-1,7.2,2.1,9.2.6.4,1.3.7,1.9.8v3.8c0,.4,0,.8.2,1.2H.4v2.3h70v-2.3h-14.2ZM52.7,4.4l.8-1.1c.2-.3.5-.5.9-.5,0,0,0,0,.1,0,.3,0,.6.1.8.3l1.5,1.5c.4.4.4.9.2,1.3l-1.6,3.2c-.2.4-.1,1,.2,1.3l4.7,4.7c.4.4.9.4,1.3.2l3.2-1.6c.4-.2,1-.1,1.3.2l1.5,1.5c.5.5.5,1.2,0,1.7,0,0,0,0-.1.1l-1.1.8c-2.3,1.7-5.5,1.4-7.5-.6l-5.6-5.6c-2-2-2.3-5.2-.6-7.5ZM58.5,54.5c1.3,2,.7,4.7-1.3,5.9-.2.1-.5.3-.7.4v-9.5l2,3.2ZM50.3,27.8l-4.1,5.8c-.3.4-.3.9,0,1.3l3.3,5.2h-6l-2.4-6c-.4-1-.3-2.1.2-3,1.3-1,2.3-2.3,3.1-3.8l2.5-2.9c.2-.3.3-.6.3-1l-.7-3.4c-.2-.9,0-1.8.5-2.6l3.6,6.5c.7,1.2.6,2.6-.2,3.7h0ZM27.3,21.2v-7.1l10-3c1.5,2,3.8,3.2,6.3,3.3v6.8c0,1.7-.4,3.3-1.2,4.8l-2.5,3c-.1.2-.3.3-.4.5-.5.4-1.1.8-1.7,1.1l-2.4,1.2-2.4-1.2c-.6-.3-1.2-.6-1.7-1.1-.1-.2-.3-.4-.4-.5l-2.5-3c-.8-1.5-1.2-3.2-1.2-4.8h0ZM34.9,34.2c.3.2.7.2,1,0l2.5-1.3c0,.6.1,1.2.3,1.8l-1.1.9c-1.3,1.1-3.2,1.1-4.5,0l-1.1-.9c.2-.6.3-1.2.3-1.8l2.5,1.3ZM31.2,36.9l.5.4c2.2,1.8,5.3,1.8,7.5,0l.5-.4,1.3,3.2h-11l1.3-3.2ZM23.5,10.8c.8-1.7,2.3-2.9,4.1-3.4.3,0,.6-.3.7-.6,1.2-2.5,3.8-4,6.5-4h1.2c2.8,0,5.3,1.6,6.5,4,.1.3.4.5.7.6,3.3.9,5.3,4.2,4.8,7.5-.4-.5-1.1-.6-1.6-.2,0,0,0,0-.1.1l-.3.3v-1.9c0-.6-.5-1.2-1.2-1.2h-.9c-2,0-3.8-1-4.9-2.6l-.3-.4c-.3-.4-.8-.6-1.3-.5l-11.7,3.5c-.5.1-.8.6-.8,1.1v1.9l-.3-.3c-.5-.5-1.2-.5-1.6,0,0,0,0,0-.1.1-.2-1.4,0-2.8.6-4.1h0ZM24.8,34.9c.3-.4.2-.9,0-1.3l-4.1-5.8c-.8-1.1-.9-2.6-.2-3.7l3.6-6.5c.5.8.7,1.7.5,2.6l-.7,3.4c0,.4,0,.7.3,1l2.5,2.9c.8,1.4,1.9,2.7,3.1,3.8.5.9.6,2,.2,3l-2.4,6h-6l3.3-5.2ZM12.2,58.7c-.7-1.3-.6-2.9.2-4.2l2-3.2v9.5c-1-.4-1.8-1.1-2.2-2.1h0ZM17.9,68.1c-.6,0-1.2-.5-1.2-1.2v-23.3c0-.6.5-1.2,1.2-1.2h35c.6,0,1.2.5,1.2,1.2v23.3c0,.6-.5,1.2-1.2,1.2H17.9Z"/>
    </g>
  </g>
</svg>