<?xml version="1.0" encoding="UTF-8"?>
<svg id="Layer_1" xmlns="http://www.w3.org/2000/svg" version="1.1" viewBox="0 0 70.9 70.9">
  <!-- Generator: Adobe Illustrator 29.3.0, SVG Export Plug-In . SVG Version: 2.1.0 Build 146)  -->
  <defs>
    <style>
      .st0 {
        fill: #fdd7ad;
      }

      .st1 {
        fill: #b9c9eb;
      }

      .st2 {
        fill: #76cff9;
      }

      .st3 {
        fill: #8d562b;
      }

      .st4 {
        fill: #5290cd;
      }
    </style>
  </defs>
  <path class="st0" d="M50.1,31.6c-4.4-3.2-5.1-4.1-7.2-8.7-5.8,4.9-11.3,5.9-15.8,6.7-2.6.5-4.8.9-6.3,2-1.3,1-2,2.3-2,3.9v9c0,5.2,2.5,10.1,6.6,13.3h20c4.2-3.1,6.6-8.1,6.6-13.3v-9c0-1.6-.7-2.9-2-3.9h0Z"/>
  <path d="M40.5,51.7c-1.2,1.5-3.1,2.4-5.1,2.4s-3.8-.9-5.1-2.4c-.4-.5-.3-1.1.2-1.5s1.1-.3,1.5.2c.8,1,2.1,1.6,3.4,1.6s2.6-.6,3.4-1.6c.4-.5,1-.5,1.5-.2s.5,1,.2,1.5h0ZM41.7,36.3c-.6,0-1.1.5-1.1,1.1v2.7c0,.6.5,1.1,1.1,1.1s1.1-.5,1.1-1.1v-2.7c0-.6-.5-1.1-1.1-1.1ZM30.2,37.4c0-.6-.5-1.1-1.1-1.1s-1.1.5-1.1,1.1v2.7c0,.6.5,1.1,1.1,1.1s1.1-.5,1.1-1.1v-2.7ZM67.4,60.5v.5c0,4.3-4.4,8.6-12.8,8.6H16.2c-8.4,0-12.8-4.3-12.8-8.6v-.5l.3-.3c4.3-4,6.5-7.2,6.7-13.6-1.7-.8-3.1-2.1-4.2-3.6-1.3-1.8-2-4-2-6.2s.7-4.4,2-6.2c1.1-1.6,2.5-2.8,4.2-3.6v-.5c0-6.6,2.6-12.9,7.3-17.6C22.5,3.9,28.8,1.3,35.4,1.3c13.8,0,24.9,11.2,24.9,24.9v.5c1.7.8,3.1,2.1,4.2,3.6,1.3,1.8,2,4,2,6.2s-.7,4.4-2,6.2c-1.1,1.6-2.5,2.8-4.2,3.6.1,6.4,2.4,9.6,6.7,13.6l.3.3ZM54.2,45.3c0,.7.5,1.2,1.2,1.2h1.6c.7,0,1.2-.5,1.2-1.2v-17.2c0-.7-.5-1.2-1.2-1.2h-1.6c-.7,0-1.2.5-1.2,1.2v17.2ZM52.1,44.5v-9c0-1.6-.7-2.9-2-3.9-4.4-3.2-5.1-4.1-7.2-8.7-5.8,4.9-11.3,5.9-15.8,6.7-2.6.5-4.8.9-6.3,2-1.3,1-2,2.3-2,3.9v9c0,5.2,2.5,10.1,6.6,13.3h20c4.2-3.1,6.6-8.1,6.6-13.3ZM16.7,28.1c0-.7-.5-1.2-1.2-1.2h-1.6c-.7,0-1.2.5-1.2,1.2v17.2c0,.7.5,1.2,1.2,1.2h1.6c.7,0,1.2-.5,1.2-1.2v-17.2ZM52.1,28.1c0-1.4.8-2.5,2-3.1-.6-9.7-8.7-17.4-18.6-17.4s-18,7.7-18.6,17.4c1.2.5,2,1.7,2,3.1v2.4c.2-.2.4-.4.7-.6,1.9-1.4,4.4-1.8,7.2-2.4,4.5-.8,10.1-1.8,15.8-7.1.3-.2.6-.3.9-.3s.6.3.8.6c2.6,5.6,2.8,5.9,7.2,9.2.2.2.5.4.7.6v-2.4ZM60.4,29.2v14.9c2.5-1.6,4-4.4,4-7.4s-1.5-5.8-4-7.4ZM12.7,25c.4-.1.8-.2,1.2-.2h.9c.4-5,2.5-9.6,6.1-13.2,3.9-3.9,9.2-6.1,14.7-6.1s10.8,2.2,14.7,6.1c3.6,3.6,5.7,8.2,6.1,13.2h.9c.4,0,.8,0,1.2.2-.7-12-10.6-21.5-22.8-21.5S13.3,13,12.7,25ZM10.5,44.1v-14.9c-2.5,1.6-4,4.4-4,7.4s1.6,5.8,4,7.4ZM16.2,67.4h2.7c-.2-.4-.3-.9-.3-1.5v-4.6c0-2,1.3-3.6,2.9-3.6h.6c-2.6-2.6-4.4-5.9-5.1-9.5-.5.3-1,.4-1.6.4h-1.6c-.5,0-.9,0-1.3-.3-.5,5.8-2.9,9.3-6.9,13.1.3,2.6,3.2,6,10.6,6ZM49.3,67.4c.3,0,.8-.6.8-1.5v-4.6c0-.9-.5-1.5-.8-1.5h-27.7c-.4,0-.8.6-.8,1.5v4.6c0,.8.4,1.5.8,1.5h1.9v-4.5c0-.6.5-1.1,1.1-1.1s1.1.5,1.1,1.1v4.5h3.3v-4.5c0-.6.5-1.1,1.1-1.1s1.1.5,1.1,1.1v4.5h3.3v-4.5c0-.6.5-1.1,1.1-1.1s1.1.5,1.1,1.1v4.5h3.3v-4.5c0-.6.5-1.1,1.1-1.1s1.1.5,1.1,1.1v4.5h3.3v-4.5c0-.6.5-1.1,1.1-1.1s1.1.5,1.1,1.1v4.5h1.9ZM65.2,61.4c-4-3.8-6.4-7.2-6.9-13.1-.4.2-.8.3-1.3.3h-1.6c-.6,0-1.1-.1-1.6-.4-.7,3.6-2.5,6.9-5.1,9.5h.6c1.6,0,2.9,1.6,2.9,3.6v4.6c0,.5,0,1-.3,1.5h2.7c7.4,0,10.3-3.4,10.6-6h0Z"/>
  <path class="st3" d="M58.3,48.3c-.4.2-.8.3-1.3.3h-1.6c-.6,0-1.1-.1-1.6-.4-.7,3.6-2.5,6.9-5.1,9.5h.6c1.6,0,2.9,1.6,2.9,3.6v4.6c0,.5,0,1-.3,1.5h2.7c7.4,0,10.3-3.4,10.6-6-4-3.8-6.4-7.2-6.9-13.1h0Z"/>
  <path class="st3" d="M21.6,57.8h.6c-2.6-2.6-4.4-5.9-5.1-9.5-.5.3-1,.4-1.6.4h-1.6c-.5,0-.9,0-1.3-.3-.5,5.8-2.9,9.3-6.9,13.1.3,2.6,3.2,6,10.6,6h2.7c-.2-.4-.3-.9-.3-1.5v-4.6c0-2,1.3-3.6,3-3.6h0Z"/>
  <g>
    <path class="st4" d="M49.3,59.9h-27.7c-.4,0-.8.6-.8,1.5v4.6c0,.8.4,1.5.8,1.5h1.9v-4.5c0-.6.5-1.1,1.1-1.1s1.1.5,1.1,1.1v4.5h3.3v-4.5c0-.6.5-1.1,1.1-1.1s1.1.5,1.1,1.1v4.5h3.3v-4.5c0-.6.5-1.1,1.1-1.1s1.1.5,1.1,1.1v4.5h3.3v-4.5c0-.6.5-1.1,1.1-1.1s1.1.5,1.1,1.1v4.5h3.3v-4.5c0-.6.5-1.1,1.1-1.1s1.1.5,1.1,1.1v4.5h1.9c.3,0,.8-.6.8-1.5v-4.6c0-.9-.5-1.5-.8-1.5Z"/>
    <path class="st4" d="M10.5,29.3c-2.5,1.6-4,4.4-4,7.4s1.6,5.8,4,7.4v-14.9Z"/>
    <path class="st4" d="M64.4,36.7c0-3.1-1.5-5.8-4-7.4v14.9c2.5-1.6,4-4.4,4-7.4Z"/>
  </g>
  <path class="st1" d="M14.7,24.8c.4-5,2.5-9.6,6.1-13.2s9.2-6.1,14.7-6.1,10.8,2.2,14.7,6.1c3.6,3.6,5.7,8.2,6.1,13.2h.9c.4,0,.8,0,1.2.2-.7-12-10.6-21.5-22.8-21.5S13.3,13,12.7,25c.4-.1.8-.2,1.2-.2h.9Z"/>
  <path class="st2" d="M13.8,46.5h1.6c.7,0,1.2-.5,1.2-1.2v-17.2c0-.7-.5-1.2-1.2-1.2h-1.6c-.7,0-1.2.5-1.2,1.2v17.2c0,.7.5,1.2,1.2,1.2Z"/>
  <path class="st2" d="M57,26.9h-1.6c-.7,0-1.2.5-1.2,1.2v17.2c0,.7.5,1.2,1.2,1.2h1.6c.7,0,1.2-.5,1.2-1.2v-17.2c0-.7-.5-1.2-1.2-1.2Z"/>
  <path class="st3" d="M52.1,28.1c0-1.4.8-2.5,2-3.1-.6-9.7-8.7-17.4-18.6-17.4s-18,7.7-18.6,17.4c1.2.5,2,1.7,2,3.1v2.4c.2-.2.4-.4.7-.6,1.9-1.4,4.4-1.8,7.2-2.4,4.5-.8,10.1-1.8,15.8-7.1.3-.2.6-.3.9-.3s.6.3.8.6c2.6,5.6,2.8,5.9,7.2,9.2.2.2.5.4.7.6v-2.4Z"/>
</svg>